<?plantuml 1.2026.1?><svg xmlns="http://www.w3.org/2000/svg" xmlns:xlink="http://www.w3.org/1999/xlink" contentStyleType="text/css" data-diagram-type="CLASS" height="1390px" preserveAspectRatio="none" style="width:1481px;height:1390px;background:#FFFFFF;" version="1.1" viewBox="0 0 1481 1390" width="1481px" zoomAndPan="magnify"><defs/><g><!--class User--><g class="entity" data-qualified-name="User" data-source-line="2" id="ent0002"><rect fill="#F1F1F1" height="98.3998" rx="2.5" ry="2.5" style="stroke:#181818;stroke-width:0.5;" width="145.0555" x="159.47" y="356"/><ellipse cx="212.9708" cy="372" fill="#ADD1B2" rx="11" ry="11" style="stroke:#181818;stroke-width:1;"/><path d="M207.9708,373.1563 C207.9708,375.6563 210.1114,377.4688 213.0333,377.4688 C214.2677,377.4688 215.4395,377.1719 216.1895,376.6563 C216.7989,376.2344 217.127,375.8125 217.127,375.4063 C217.127,374.9375 216.7052,374.5313 216.2052,374.5313 C215.9708,374.5313 215.752,374.6094 215.5489,374.8125 C215.1114,375.25 215.1114,375.25 214.9395,375.3438 C214.4864,375.5781 213.8458,375.7188 213.0802,375.7188 C211.0802,375.7188 209.7989,374.7031 209.7989,373.125 L209.7989,372.0781 C209.7989,370.375 211.0177,369.1719 212.7208,369.1719 C213.2989,369.1719 213.877,369.3125 214.3458,369.5625 C214.8145,369.8281 214.9864,370.0156 215.0489,370.375 C215.1739,371.0469 215.4239,371.2969 215.9552,371.2969 C216.2364,371.2969 216.5177,371.1563 216.7052,370.9375 C216.8302,370.7656 216.877,370.5938 216.877,370.1563 L216.877,368.7969 C216.877,368.375 216.8614,368.2344 216.7364,368.0625 C216.5645,367.8125 216.2833,367.6563 215.9552,367.6563 C215.6427,367.6563 215.4395,367.7656 215.2208,368.0313 C214.0489,367.5313 213.6114,367.4219 212.6583,367.4219 C209.9864,367.4219 207.9708,369.4375 207.9708,372.0625 L207.9708,373.1563 Z " fill="#000000"/><text fill="#000000" font-family="sans-serif" font-size="14" lengthAdjust="spacing" textLength="29.5539" x="233.4708" y="376.606">User</text><line style="stroke:#181818;stroke-width:0.5;" x1="160.47" x2="303.5255" y1="388" y2="388"/><text fill="#000000" font-family="sans-serif" font-size="14" lengthAdjust="spacing" textLength="79.3657" x="165.47" y="405.0059">name: String</text><text fill="#000000" font-family="sans-serif" font-size="14" lengthAdjust="spacing" textLength="77.7977" x="165.47" y="421.8059">eMail: String</text><text fill="#000000" font-family="sans-serif" font-size="14" lengthAdjust="spacing" textLength="133.0555" x="165.47" y="438.6058">phoneNumber: String</text><line style="stroke:#181818;stroke-width:0.5;" x1="160.47" x2="303.5255" y1="446.3998" y2="446.3998"/></g><!--class Address--><g class="entity" data-qualified-name="Address" data-source-line="8" id="ent0003"><rect fill="#F1F1F1" height="131.9996" rx="2.5" ry="2.5" style="stroke:#181818;stroke-width:0.5;" width="138.8255" x="128.59" y="1126.4"/><ellipse cx="168.5532" cy="1142.4" fill="#ADD1B2" rx="11" ry="11" style="stroke:#181818;stroke-width:1;"/><path d="M163.5532,1143.5563 C163.5532,1146.0563 165.6938,1147.8688 168.6157,1147.8688 C169.85,1147.8688 171.0219,1147.5719 171.7719,1147.0563 C172.3813,1146.6344 172.7094,1146.2125 172.7094,1145.8063 C172.7094,1145.3375 172.2875,1144.9313 171.7875,1144.9313 C171.5532,1144.9313 171.3344,1145.0094 171.1313,1145.2125 C170.6938,1145.65 170.6938,1145.65 170.5219,1145.7438 C170.0688,1145.9781 169.4282,1146.1188 168.6625,1146.1188 C166.6625,1146.1188 165.3813,1145.1031 165.3813,1143.525 L165.3813,1142.4781 C165.3813,1140.775 166.6,1139.5719 168.3032,1139.5719 C168.8813,1139.5719 169.4594,1139.7125 169.9282,1139.9625 C170.3969,1140.2281 170.5688,1140.4156 170.6313,1140.775 C170.7563,1141.4469 171.0063,1141.6969 171.5375,1141.6969 C171.8188,1141.6969 172.1,1141.5563 172.2875,1141.3375 C172.4125,1141.1656 172.4594,1140.9938 172.4594,1140.5563 L172.4594,1139.1969 C172.4594,1138.775 172.4438,1138.6344 172.3188,1138.4625 C172.1469,1138.2125 171.8657,1138.0563 171.5375,1138.0563 C171.225,1138.0563 171.0219,1138.1656 170.8032,1138.4313 C169.6313,1137.9313 169.1938,1137.8219 168.2407,1137.8219 C165.5688,1137.8219 163.5532,1139.8375 163.5532,1142.4625 L163.5532,1143.5563 Z " fill="#000000"/><text fill="#000000" font-family="sans-serif" font-size="14" lengthAdjust="spacing" textLength="51.3518" x="188.1005" y="1147.006">Address</text><line style="stroke:#181818;stroke-width:0.5;" x1="129.59" x2="266.4155" y1="1158.4" y2="1158.4"/><text fill="#000000" font-family="sans-serif" font-size="14" lengthAdjust="spacing" textLength="114.3795" x="134.59" y="1175.4059">streetname: String</text><text fill="#000000" font-family="sans-serif" font-size="14" lengthAdjust="spacing" textLength="126.8255" x="134.59" y="1192.2059">streetnumber: String</text><text fill="#000000" font-family="sans-serif" font-size="14" lengthAdjust="spacing" textLength="91.0556" x="134.59" y="1209.0058">postalcode: Int</text><text fill="#000000" font-family="sans-serif" font-size="14" lengthAdjust="spacing" textLength="65.3517" x="134.59" y="1225.8057">city: String</text><text fill="#000000" font-family="sans-serif" font-size="14" lengthAdjust="spacing" textLength="90.2576" x="134.59" y="1242.6057">country: String</text><line style="stroke:#181818;stroke-width:0.5;" x1="129.59" x2="266.4155" y1="1250.3996" y2="1250.3996"/></g><!--class Donor--><g class="entity" data-qualified-name="Donor" data-source-line="11" id="ent0006"><rect fill="#F1F1F1" height="98.3998" rx="2.5" ry="2.5" style="stroke:#181818;stroke-width:0.5;" width="275.6049" x="699.2" y="515.4"/><ellipse cx="813.6915" cy="531.4" fill="#ADD1B2" rx="11" ry="11" style="stroke:#181818;stroke-width:1;"/><path d="M808.6915,532.5563 C808.6915,535.0563 810.8322,536.8688 813.754,536.8688 C814.9884,536.8688 816.1603,536.5719 816.9103,536.0563 C817.5197,535.6344 817.8478,535.2125 817.8478,534.8063 C817.8478,534.3375 817.4259,533.9313 816.9259,533.9313 C816.6915,533.9313 816.4728,534.0094 816.2697,534.2125 C815.8322,534.65 815.8322,534.65 815.6603,534.7438 C815.2072,534.9781 814.5665,535.1188 813.8009,535.1188 C811.8009,535.1188 810.5197,534.1031 810.5197,532.525 L810.5197,531.4781 C810.5197,529.775 811.7384,528.5719 813.4415,528.5719 C814.0197,528.5719 814.5978,528.7125 815.0665,528.9625 C815.5353,529.2281 815.7072,529.4156 815.7697,529.775 C815.8947,530.4469 816.1447,530.6969 816.6759,530.6969 C816.9572,530.6969 817.2384,530.5563 817.4259,530.3375 C817.5509,530.1656 817.5978,529.9938 817.5978,529.5563 L817.5978,528.1969 C817.5978,527.775 817.5822,527.6344 817.4572,527.4625 C817.2853,527.2125 817.004,527.0563 816.6759,527.0563 C816.3634,527.0563 816.1603,527.1656 815.9415,527.4313 C814.7697,526.9313 814.3322,526.8219 813.379,526.8219 C810.7072,526.8219 808.6915,528.8375 808.6915,531.4625 L808.6915,532.5563 Z " fill="#000000"/><text fill="#000000" font-family="sans-serif" font-size="14" lengthAdjust="spacing" textLength="38.1218" x="834.1915" y="536.006">Donor</text><line style="stroke:#181818;stroke-width:0.5;" x1="700.2" x2="973.8049" y1="547.4" y2="547.4"/><text fill="#000000" font-family="sans-serif" font-size="14" lengthAdjust="spacing" textLength="263.6049" x="705.2" y="564.4059">comment: String // "about me/preferences"</text><text fill="#000000" font-family="sans-serif" font-size="14" lengthAdjust="spacing" textLength="116.6895" x="705.2" y="581.2059">interval: DeltaTime</text><text fill="#000000" font-family="sans-serif" font-size="14" lengthAdjust="spacing" textLength="187.5152" x="705.2" y="598.0058">slotPreferences: String // Cron</text><line style="stroke:#181818;stroke-width:0.5;" x1="700.2" x2="973.8049" y1="605.7998" y2="605.7998"/></g><!--class Bloodtype--><g class="entity" data-qualified-name="Bloodtype" data-source-line="16" id="ent0008"><rect fill="#F1F1F1" height="182.3994" rx="2.5" ry="2.5" style="stroke:#181818;stroke-width:0.5;" width="94.2577" x="789.87" y="690.8"/><ellipse cx="804.87" cy="706.8" fill="#EB937F" rx="11" ry="11" style="stroke:#181818;stroke-width:1;"/><path d="M803.7294,707.8625 L805.0419,707.8625 L805.0419,707.9094 C805.0419,708.3156 805.0575,708.4719 805.1669,708.6281 C805.3388,708.8781 805.6356,709.05 805.9481,709.05 C806.2294,709.05 806.5263,708.9094 806.6981,708.6906 C806.8231,708.5031 806.87,708.3625 806.87,707.9094 L806.87,706.0656 C806.87,705.7375 806.8544,705.6281 806.7919,705.4563 C806.6825,705.1594 806.3231,704.9094 805.9481,704.9094 C805.6513,704.9094 805.3856,705.05 805.2138,705.2688 C805.0731,705.4563 805.0419,705.6281 805.0419,706.0656 L805.0419,706.1281 L803.7294,706.1281 L803.7294,703.9563 L807.5731,703.9563 L807.5731,704.7063 C807.5731,705.0969 807.6044,705.2844 807.7138,705.4406 C807.8856,705.6906 808.1825,705.8625 808.495,705.8625 C808.7919,705.8625 809.0575,705.7375 809.245,705.5031 C809.3856,705.3156 809.4169,705.175 809.4169,704.7063 L809.4169,702.2063 L801.7138,702.2063 C801.2606,702.2063 801.1356,702.2219 800.9638,702.3313 C800.6981,702.5031 800.5263,702.7688 800.5263,703.0813 C800.5263,703.3625 800.6513,703.6281 800.9013,703.8 C801.0888,703.925 801.2763,703.9563 801.7138,703.9563 L801.9013,703.9563 L801.9013,710.05 L801.7138,710.05 C801.2919,710.05 801.1356,710.0813 800.9638,710.175 C800.6981,710.3313 800.5263,710.6125 800.5263,710.9094 C800.5263,711.4875 800.9325,711.8 801.7138,711.8 L809.7919,711.8 L809.7919,709.2688 C809.7919,708.8625 809.7606,708.6906 809.6513,708.5344 C809.4794,708.2688 809.1981,708.1125 808.87,708.1125 C808.5888,708.1125 808.3075,708.2531 808.12,708.4719 C807.9794,708.6594 807.9481,708.8156 807.9481,709.2688 L807.9481,710.05 L803.7294,710.05 L803.7294,707.8625 Z " fill="#000000"/><text fill="#000000" font-family="sans-serif" font-size="14" lengthAdjust="spacing" textLength="62.2577" x="818.87" y="711.406">Bloodtype</text><line style="stroke:#181818;stroke-width:0.5;" x1="790.87" x2="883.1277" y1="722.8" y2="722.8"/><text fill="#000000" font-family="sans-serif" font-size="14" lengthAdjust="spacing" textLength="15.5539" x="795.87" y="739.8059">O-</text><text fill="#000000" font-family="sans-serif" font-size="14" lengthAdjust="spacing" textLength="19.0679" x="795.87" y="756.6059">O+</text><text fill="#000000" font-family="sans-serif" font-size="14" lengthAdjust="spacing" textLength="17.5139" x="795.87" y="773.4058">A+</text><text fill="#000000" font-family="sans-serif" font-size="14" lengthAdjust="spacing" textLength="14" x="795.87" y="790.2057">A-</text><text fill="#000000" font-family="sans-serif" font-size="14" lengthAdjust="spacing" textLength="17.5139" x="795.87" y="807.0057">B+</text><text fill="#000000" font-family="sans-serif" font-size="14" lengthAdjust="spacing" textLength="14" x="795.87" y="823.8056">B-</text><text fill="#000000" font-family="sans-serif" font-size="14" lengthAdjust="spacing" textLength="26.8519" x="795.87" y="840.6055">AB+</text><text fill="#000000" font-family="sans-serif" font-size="14" lengthAdjust="spacing" textLength="23.3379" x="795.87" y="857.4054">AB-</text><line style="stroke:#181818;stroke-width:0.5;" x1="790.87" x2="883.1277" y1="865.1994" y2="865.1994"/></g><!--class TestResult--><g class="entity" data-qualified-name="TestResult" data-source-line="27" id="ent0009"><rect fill="#F1F1F1" height="98.3998" rx="2.5" ry="2.5" style="stroke:#181818;stroke-width:0.5;" width="145.7974" x="919.1" y="732.8"/><ellipse cx="955.2013" cy="748.8" fill="#ADD1B2" rx="11" ry="11" style="stroke:#181818;stroke-width:1;"/><path d="M950.2013,749.9563 C950.2013,752.4563 952.3419,754.2688 955.2638,754.2688 C956.4982,754.2688 957.67,753.9719 958.42,753.4563 C959.0294,753.0344 959.3575,752.6125 959.3575,752.2063 C959.3575,751.7375 958.9357,751.3313 958.4357,751.3313 C958.2013,751.3313 957.9825,751.4094 957.7794,751.6125 C957.3419,752.05 957.3419,752.05 957.17,752.1438 C956.7169,752.3781 956.0763,752.5188 955.3107,752.5188 C953.3107,752.5188 952.0294,751.5031 952.0294,749.925 L952.0294,748.8781 C952.0294,747.175 953.2482,745.9719 954.9513,745.9719 C955.5294,745.9719 956.1075,746.1125 956.5763,746.3625 C957.045,746.6281 957.2169,746.8156 957.2794,747.175 C957.4044,747.8469 957.6544,748.0969 958.1857,748.0969 C958.4669,748.0969 958.7482,747.9563 958.9357,747.7375 C959.0607,747.5656 959.1075,747.3938 959.1075,746.9563 L959.1075,745.5969 C959.1075,745.175 959.0919,745.0344 958.9669,744.8625 C958.795,744.6125 958.5138,744.4563 958.1857,744.4563 C957.8732,744.4563 957.67,744.5656 957.4513,744.8313 C956.2794,744.3313 955.8419,744.2219 954.8888,744.2219 C952.2169,744.2219 950.2013,746.2375 950.2013,748.8625 L950.2013,749.9563 Z " fill="#000000"/><text fill="#000000" font-family="sans-serif" font-size="14" lengthAdjust="spacing" textLength="66.9057" x="973.8904" y="753.406">TestResult</text><line style="stroke:#181818;stroke-width:0.5;" x1="920.1" x2="1063.8974" y1="764.8" y2="764.8"/><text fill="#000000" font-family="sans-serif" font-size="14" lengthAdjust="spacing" textLength="103.4596" x="925.1" y="781.8059">time: Timestamp</text><text fill="#000000" font-family="sans-serif" font-size="14" lengthAdjust="spacing" textLength="133.7974" x="925.1" y="798.6059">validUntil: Timestamp</text><text fill="#000000" font-family="sans-serif" font-size="14" lengthAdjust="spacing" textLength="126.0695" x="925.1" y="815.4058">invalidated: Boolean</text><line style="stroke:#181818;stroke-width:0.5;" x1="920.1" x2="1063.8974" y1="823.1998" y2="823.1998"/></g><!--class Bloodbank--><g class="entity" data-qualified-name="Bloodbank" data-source-line="28" id="ent0011"><rect fill="#F1F1F1" height="98.3998" rx="2.5" ry="2.5" style="stroke:#181818;stroke-width:0.5;" width="264.1109" x="490.94" y="732.8"/><ellipse cx="585.6706" cy="748.8" fill="#ADD1B2" rx="11" ry="11" style="stroke:#181818;stroke-width:1;"/><path d="M580.6706,749.9563 C580.6706,752.4563 582.8112,754.2688 585.7331,754.2688 C586.9675,754.2688 588.1393,753.9719 588.8893,753.4563 C589.4987,753.0344 589.8268,752.6125 589.8268,752.2063 C589.8268,751.7375 589.405,751.3313 588.905,751.3313 C588.6706,751.3313 588.4518,751.4094 588.2487,751.6125 C587.8112,752.05 587.8112,752.05 587.6393,752.1438 C587.1862,752.3781 586.5456,752.5188 585.78,752.5188 C583.78,752.5188 582.4987,751.5031 582.4987,749.925 L582.4987,748.8781 C582.4987,747.175 583.7175,745.9719 585.4206,745.9719 C585.9987,745.9719 586.5768,746.1125 587.0456,746.3625 C587.5143,746.6281 587.6862,746.8156 587.7487,747.175 C587.8737,747.8469 588.1237,748.0969 588.655,748.0969 C588.9362,748.0969 589.2175,747.9563 589.405,747.7375 C589.53,747.5656 589.5768,747.3938 589.5768,746.9563 L589.5768,745.5969 C589.5768,745.175 589.5612,745.0344 589.4362,744.8625 C589.2643,744.6125 588.9831,744.4563 588.655,744.4563 C588.3425,744.4563 588.1393,744.5656 587.9206,744.8313 C586.7487,744.3313 586.3112,744.2219 585.3581,744.2219 C582.6862,744.2219 580.6706,746.2375 580.6706,748.8625 L580.6706,749.9563 Z " fill="#000000"/><text fill="#000000" font-family="sans-serif" font-size="14" lengthAdjust="spacing" textLength="66.1497" x="606.1706" y="753.406">Bloodbank</text><line style="stroke:#181818;stroke-width:0.5;" x1="491.94" x2="754.0509" y1="764.8" y2="764.8"/><text fill="#000000" font-family="sans-serif" font-size="14" lengthAdjust="spacing" textLength="79.3657" x="496.94" y="781.8059">name: String</text><text fill="#000000" font-family="sans-serif" font-size="14" lengthAdjust="spacing" textLength="189.0972" x="496.94" y="798.6059">// A blood bus is represnted by</text><text fill="#000000" font-family="sans-serif" font-size="14" lengthAdjust="spacing" textLength="252.1109" x="496.94" y="815.4058">// multiple bloodbanks with diffent names</text><line style="stroke:#181818;stroke-width:0.5;" x1="491.94" x2="754.0509" y1="823.1998" y2="823.1998"/></g><!--class Form--><g class="entity" data-qualified-name="Form" data-source-line="36" id="ent0013"><rect fill="#F1F1F1" height="64.7999" rx="2.5" ry="2.5" style="stroke:#181818;stroke-width:0.5;" width="147.4074" x="1216.3" y="975.4"/><ellipse cx="1269.4228" cy="991.4" fill="#ADD1B2" rx="11" ry="11" style="stroke:#181818;stroke-width:1;"/><path d="M1264.4228,992.5563 C1264.4228,995.0563 1266.5634,996.8688 1269.4853,996.8688 C1270.7196,996.8688 1271.8915,996.5719 1272.6415,996.0563 C1273.2509,995.6344 1273.579,995.2125 1273.579,994.8063 C1273.579,994.3375 1273.1571,993.9313 1272.6571,993.9313 C1272.4228,993.9313 1272.204,994.0094 1272.0009,994.2125 C1271.5634,994.65 1271.5634,994.65 1271.3915,994.7438 C1270.9384,994.9781 1270.2978,995.1188 1269.5321,995.1188 C1267.5321,995.1188 1266.2509,994.1031 1266.2509,992.525 L1266.2509,991.4781 C1266.2509,989.775 1267.4696,988.5719 1269.1728,988.5719 C1269.7509,988.5719 1270.329,988.7125 1270.7978,988.9625 C1271.2665,989.2281 1271.4384,989.4156 1271.5009,989.775 C1271.6259,990.4469 1271.8759,990.6969 1272.4071,990.6969 C1272.6884,990.6969 1272.9696,990.5563 1273.1571,990.3375 C1273.2821,990.1656 1273.329,989.9938 1273.329,989.5563 L1273.329,988.1969 C1273.329,987.775 1273.3134,987.6344 1273.1884,987.4625 C1273.0165,987.2125 1272.7353,987.0563 1272.4071,987.0563 C1272.0946,987.0563 1271.8915,987.1656 1271.6728,987.4313 C1270.5009,986.9313 1270.0634,986.8219 1269.1103,986.8219 C1266.4384,986.8219 1264.4228,988.8375 1264.4228,991.4625 L1264.4228,992.5563 Z " fill="#000000"/><text fill="#000000" font-family="sans-serif" font-size="14" lengthAdjust="spacing" textLength="32.6619" x="1289.9228" y="996.006">Form</text><line style="stroke:#181818;stroke-width:0.5;" x1="1217.3" x2="1362.7074" y1="1007.4" y2="1007.4"/><text fill="#000000" font-family="sans-serif" font-size="14" lengthAdjust="spacing" textLength="135.4074" x="1222.3" y="1024.4059">okToDonate: Boolean</text><line style="stroke:#181818;stroke-width:0.5;" x1="1217.3" x2="1362.7074" y1="1032.1999" y2="1032.1999"/></g><!--class EntryForm--><g class="entity" data-qualified-name="EntryForm" data-source-line="42" id="ent0015"><rect fill="#F1F1F1" height="48" rx="2.5" ry="2.5" style="stroke:#181818;stroke-width:0.5;" width="97.3378" x="1227.33" y="1168.4"/><ellipse cx="1242.33" cy="1184.4" fill="#ADD1B2" rx="11" ry="11" style="stroke:#181818;stroke-width:1;"/><path d="M1237.33,1185.5563 C1237.33,1188.0563 1239.4706,1189.8688 1242.3925,1189.8688 C1243.6269,1189.8688 1244.7988,1189.5719 1245.5488,1189.0563 C1246.1581,1188.6344 1246.4863,1188.2125 1246.4863,1187.8063 C1246.4863,1187.3375 1246.0644,1186.9313 1245.5644,1186.9313 C1245.33,1186.9313 1245.1113,1187.0094 1244.9081,1187.2125 C1244.4706,1187.65 1244.4706,1187.65 1244.2988,1187.7438 C1243.8456,1187.9781 1243.205,1188.1188 1242.4394,1188.1188 C1240.4394,1188.1188 1239.1581,1187.1031 1239.1581,1185.525 L1239.1581,1184.4781 C1239.1581,1182.775 1240.3769,1181.5719 1242.08,1181.5719 C1242.6581,1181.5719 1243.2363,1181.7125 1243.705,1181.9625 C1244.1738,1182.2281 1244.3456,1182.4156 1244.4081,1182.775 C1244.5331,1183.4469 1244.7831,1183.6969 1245.3144,1183.6969 C1245.5956,1183.6969 1245.8769,1183.5563 1246.0644,1183.3375 C1246.1894,1183.1656 1246.2363,1182.9938 1246.2363,1182.5563 L1246.2363,1181.1969 C1246.2363,1180.775 1246.2206,1180.6344 1246.0956,1180.4625 C1245.9238,1180.2125 1245.6425,1180.0563 1245.3144,1180.0563 C1245.0019,1180.0563 1244.7988,1180.1656 1244.58,1180.4313 C1243.4081,1179.9313 1242.9706,1179.8219 1242.0175,1179.8219 C1239.3456,1179.8219 1237.33,1181.8375 1237.33,1184.4625 L1237.33,1185.5563 Z " fill="#000000"/><text fill="#000000" font-family="sans-serif" font-size="14" lengthAdjust="spacing" textLength="65.3378" x="1256.33" y="1189.006">EntryForm</text><line style="stroke:#181818;stroke-width:0.5;" x1="1228.33" x2="1323.6678" y1="1200.4" y2="1200.4"/><line style="stroke:#181818;stroke-width:0.5;" x1="1228.33" x2="1323.6678" y1="1208.4" y2="1208.4"/></g><!--class Interview--><g class="entity" data-qualified-name="Interview" data-source-line="46" id="ent0017"><rect fill="#F1F1F1" height="48" rx="2.5" ry="2.5" style="stroke:#181818;stroke-width:0.5;" width="88.0138" x="1060.99" y="1168.4"/><ellipse cx="1075.99" cy="1184.4" fill="#ADD1B2" rx="11" ry="11" style="stroke:#181818;stroke-width:1;"/><path d="M1070.99,1185.5563 C1070.99,1188.0563 1073.1306,1189.8688 1076.0525,1189.8688 C1077.2869,1189.8688 1078.4588,1189.5719 1079.2088,1189.0563 C1079.8181,1188.6344 1080.1463,1188.2125 1080.1463,1187.8063 C1080.1463,1187.3375 1079.7244,1186.9313 1079.2244,1186.9313 C1078.99,1186.9313 1078.7713,1187.0094 1078.5681,1187.2125 C1078.1306,1187.65 1078.1306,1187.65 1077.9588,1187.7438 C1077.5056,1187.9781 1076.865,1188.1188 1076.0994,1188.1188 C1074.0994,1188.1188 1072.8181,1187.1031 1072.8181,1185.525 L1072.8181,1184.4781 C1072.8181,1182.775 1074.0369,1181.5719 1075.74,1181.5719 C1076.3181,1181.5719 1076.8963,1181.7125 1077.365,1181.9625 C1077.8338,1182.2281 1078.0056,1182.4156 1078.0681,1182.775 C1078.1931,1183.4469 1078.4431,1183.6969 1078.9744,1183.6969 C1079.2556,1183.6969 1079.5369,1183.5563 1079.7244,1183.3375 C1079.8494,1183.1656 1079.8963,1182.9938 1079.8963,1182.5563 L1079.8963,1181.1969 C1079.8963,1180.775 1079.8806,1180.6344 1079.7556,1180.4625 C1079.5838,1180.2125 1079.3025,1180.0563 1078.9744,1180.0563 C1078.6619,1180.0563 1078.4588,1180.1656 1078.24,1180.4313 C1077.0681,1179.9313 1076.6306,1179.8219 1075.6775,1179.8219 C1073.0056,1179.8219 1070.99,1181.8375 1070.99,1184.4625 L1070.99,1185.5563 Z " fill="#000000"/><text fill="#000000" font-family="sans-serif" font-size="14" lengthAdjust="spacing" textLength="56.0138" x="1089.99" y="1189.006">Interview</text><line style="stroke:#181818;stroke-width:0.5;" x1="1061.99" x2="1148.0038" y1="1200.4" y2="1200.4"/><line style="stroke:#181818;stroke-width:0.5;" x1="1061.99" x2="1148.0038" y1="1208.4" y2="1208.4"/></g><!--class Admin--><g class="entity" data-qualified-name="Admin" data-source-line="49" id="ent0019"><rect fill="#F1F1F1" height="48" rx="2.5" ry="2.5" style="stroke:#181818;stroke-width:0.5;" width="71.6758" x="881.16" y="1335.4"/><ellipse cx="896.16" cy="1351.4" fill="#ADD1B2" rx="11" ry="11" style="stroke:#181818;stroke-width:1;"/><path d="M891.16,1352.5563 C891.16,1355.0563 893.3006,1356.8688 896.2225,1356.8688 C897.4569,1356.8688 898.6288,1356.5719 899.3788,1356.0563 C899.9881,1355.6344 900.3163,1355.2125 900.3163,1354.8063 C900.3163,1354.3375 899.8944,1353.9313 899.3944,1353.9313 C899.16,1353.9313 898.9413,1354.0094 898.7381,1354.2125 C898.3006,1354.65 898.3006,1354.65 898.1288,1354.7438 C897.6756,1354.9781 897.035,1355.1188 896.2694,1355.1188 C894.2694,1355.1188 892.9881,1354.1031 892.9881,1352.525 L892.9881,1351.4781 C892.9881,1349.775 894.2069,1348.5719 895.91,1348.5719 C896.4881,1348.5719 897.0663,1348.7125 897.535,1348.9625 C898.0038,1349.2281 898.1756,1349.4156 898.2381,1349.775 C898.3631,1350.4469 898.6131,1350.6969 899.1444,1350.6969 C899.4256,1350.6969 899.7069,1350.5563 899.8944,1350.3375 C900.0194,1350.1656 900.0663,1349.9938 900.0663,1349.5563 L900.0663,1348.1969 C900.0663,1347.775 900.0506,1347.6344 899.9256,1347.4625 C899.7538,1347.2125 899.4725,1347.0563 899.1444,1347.0563 C898.8319,1347.0563 898.6288,1347.1656 898.41,1347.4313 C897.2381,1346.9313 896.8006,1346.8219 895.8475,1346.8219 C893.1756,1346.8219 891.16,1348.8375 891.16,1351.4625 L891.16,1352.5563 Z " fill="#000000"/><text fill="#000000" font-family="sans-serif" font-size="14" lengthAdjust="spacing" textLength="39.6758" x="910.16" y="1356.006">Admin</text><line style="stroke:#181818;stroke-width:0.5;" x1="882.16" x2="951.8358" y1="1367.4" y2="1367.4"/><line style="stroke:#181818;stroke-width:0.5;" x1="882.16" x2="951.8358" y1="1375.4" y2="1375.4"/></g><!--class DonationTest--><g class="entity" data-qualified-name="DonationTest" data-source-line="51" id="ent0021"><rect fill="#F1F1F1" height="48" rx="2.5" ry="2.5" style="stroke:#181818;stroke-width:0.5;" width="115.2576" x="1359.37" y="1168.4"/><ellipse cx="1374.37" cy="1184.4" fill="#ADD1B2" rx="11" ry="11" style="stroke:#181818;stroke-width:1;"/><path d="M1369.37,1185.5563 C1369.37,1188.0563 1371.5106,1189.8688 1374.4325,1189.8688 C1375.6669,1189.8688 1376.8388,1189.5719 1377.5888,1189.0563 C1378.1981,1188.6344 1378.5263,1188.2125 1378.5263,1187.8063 C1378.5263,1187.3375 1378.1044,1186.9313 1377.6044,1186.9313 C1377.37,1186.9313 1377.1513,1187.0094 1376.9481,1187.2125 C1376.5106,1187.65 1376.5106,1187.65 1376.3388,1187.7438 C1375.8856,1187.9781 1375.245,1188.1188 1374.4794,1188.1188 C1372.4794,1188.1188 1371.1981,1187.1031 1371.1981,1185.525 L1371.1981,1184.4781 C1371.1981,1182.775 1372.4169,1181.5719 1374.12,1181.5719 C1374.6981,1181.5719 1375.2763,1181.7125 1375.745,1181.9625 C1376.2138,1182.2281 1376.3856,1182.4156 1376.4481,1182.775 C1376.5731,1183.4469 1376.8231,1183.6969 1377.3544,1183.6969 C1377.6356,1183.6969 1377.9169,1183.5563 1378.1044,1183.3375 C1378.2294,1183.1656 1378.2763,1182.9938 1378.2763,1182.5563 L1378.2763,1181.1969 C1378.2763,1180.775 1378.2606,1180.6344 1378.1356,1180.4625 C1377.9638,1180.2125 1377.6825,1180.0563 1377.3544,1180.0563 C1377.0419,1180.0563 1376.8388,1180.1656 1376.62,1180.4313 C1375.4481,1179.9313 1375.0106,1179.8219 1374.0575,1179.8219 C1371.3856,1179.8219 1369.37,1181.8375 1369.37,1184.4625 L1369.37,1185.5563 Z " fill="#000000"/><text fill="#000000" font-family="sans-serif" font-size="14" lengthAdjust="spacing" textLength="83.2576" x="1388.37" y="1189.006">DonationTest</text><line style="stroke:#181818;stroke-width:0.5;" x1="1360.37" x2="1473.6276" y1="1200.4" y2="1200.4"/><line style="stroke:#181818;stroke-width:0.5;" x1="1360.37" x2="1473.6276" y1="1208.4" y2="1208.4"/></g><!--class Note--><g class="entity" data-qualified-name="Note" data-source-line="61" id="ent0026"><rect fill="#F1F1F1" height="81.5999" rx="2.5" ry="2.5" style="stroke:#181818;stroke-width:0.5;" width="115.4596" x="623.27" y="132.8"/><ellipse cx="662.5213" cy="148.8" fill="#ADD1B2" rx="11" ry="11" style="stroke:#181818;stroke-width:1;"/><path d="M657.5213,149.9563 C657.5213,152.4563 659.6619,154.2688 662.5838,154.2688 C663.8181,154.2688 664.99,153.9719 665.74,153.4563 C666.3494,153.0344 666.6775,152.6125 666.6775,152.2063 C666.6775,151.7375 666.2556,151.3313 665.7556,151.3313 C665.5213,151.3313 665.3025,151.4094 665.0994,151.6125 C664.6619,152.05 664.6619,152.05 664.49,152.1438 C664.0369,152.3781 663.3963,152.5188 662.6306,152.5188 C660.6306,152.5188 659.3494,151.5031 659.3494,149.925 L659.3494,148.8781 C659.3494,147.175 660.5681,145.9719 662.2713,145.9719 C662.8494,145.9719 663.4275,146.1125 663.8963,146.3625 C664.365,146.6281 664.5369,146.8156 664.5994,147.175 C664.7244,147.8469 664.9744,148.0969 665.5056,148.0969 C665.7869,148.0969 666.0681,147.9563 666.2556,147.7375 C666.3806,147.5656 666.4275,147.3938 666.4275,146.9563 L666.4275,145.5969 C666.4275,145.175 666.4119,145.0344 666.2869,144.8625 C666.115,144.6125 665.8338,144.4563 665.5056,144.4563 C665.1931,144.4563 664.99,144.5656 664.7713,144.8313 C663.5994,144.3313 663.1619,144.2219 662.2088,144.2219 C659.5369,144.2219 657.5213,146.2375 657.5213,148.8625 L657.5213,149.9563 Z " fill="#000000"/><text fill="#000000" font-family="sans-serif" font-size="14" lengthAdjust="spacing" textLength="29.5679" x="681.9104" y="153.406">Note</text><line style="stroke:#181818;stroke-width:0.5;" x1="624.27" x2="737.7296" y1="164.8" y2="164.8"/><text fill="#000000" font-family="sans-serif" font-size="14" lengthAdjust="spacing" textLength="103.4596" x="629.27" y="181.8059">time: Timestamp</text><text fill="#000000" font-family="sans-serif" font-size="14" lengthAdjust="spacing" textLength="101.1496" x="629.27" y="198.6059">message: String</text><line style="stroke:#181818;stroke-width:0.5;" x1="624.27" x2="737.7296" y1="206.3999" y2="206.3999"/></g><!--class Appointment--><g class="entity" data-qualified-name="Appointment" data-source-line="66" id="ent0027"><rect fill="#F1F1F1" height="64.7999" rx="2.5" ry="2.5" style="stroke:#181818;stroke-width:0.5;" width="130.2855" x="981.86" y="7"/><ellipse cx="1005.7204" cy="23" fill="#ADD1B2" rx="11" ry="11" style="stroke:#181818;stroke-width:1;"/><path d="M1000.7204,24.1563 C1000.7204,26.6563 1002.861,28.4688 1005.7829,28.4688 C1007.0173,28.4688 1008.1892,28.1719 1008.9392,27.6563 C1009.5485,27.2344 1009.8767,26.8125 1009.8767,26.4063 C1009.8767,25.9375 1009.4548,25.5313 1008.9548,25.5313 C1008.7204,25.5313 1008.5017,25.6094 1008.2985,25.8125 C1007.861,26.25 1007.861,26.25 1007.6892,26.3438 C1007.236,26.5781 1006.5954,26.7188 1005.8298,26.7188 C1003.8298,26.7188 1002.5485,25.7031 1002.5485,24.125 L1002.5485,23.0781 C1002.5485,21.375 1003.7673,20.1719 1005.4704,20.1719 C1006.0485,20.1719 1006.6267,20.3125 1007.0954,20.5625 C1007.5642,20.8281 1007.736,21.0156 1007.7985,21.375 C1007.9235,22.0469 1008.1735,22.2969 1008.7048,22.2969 C1008.986,22.2969 1009.2673,22.1563 1009.4548,21.9375 C1009.5798,21.7656 1009.6267,21.5938 1009.6267,21.1563 L1009.6267,19.7969 C1009.6267,19.375 1009.611,19.2344 1009.486,19.0625 C1009.3142,18.8125 1009.0329,18.6563 1008.7048,18.6563 C1008.3923,18.6563 1008.1892,18.7656 1007.9704,19.0313 C1006.7985,18.5313 1006.361,18.4219 1005.4079,18.4219 C1002.736,18.4219 1000.7204,20.4375 1000.7204,23.0625 L1000.7204,24.1563 Z " fill="#000000"/><text fill="#000000" font-family="sans-serif" font-size="14" lengthAdjust="spacing" textLength="78.5957" x="1021.6894" y="27.606">Appointment</text><line style="stroke:#181818;stroke-width:0.5;" x1="982.86" x2="1111.1455" y1="39" y2="39"/><text fill="#000000" font-family="sans-serif" font-size="14" lengthAdjust="spacing" textLength="118.2855" x="987.86" y="56.0059">cancelled: Boolean</text><line style="stroke:#181818;stroke-width:0.5;" x1="982.86" x2="1111.1455" y1="63.7999" y2="63.7999"/></g><!--class Donation--><g class="entity" data-qualified-name="Donation" data-source-line="73" id="ent0030"><rect fill="#F1F1F1" height="81.5999" rx="2.5" ry="2.5" style="stroke:#181818;stroke-width:0.5;" width="185.5153" x="1267.24" y="244.4"/><ellipse cx="1327.7338" cy="260.4" fill="#ADD1B2" rx="11" ry="11" style="stroke:#181818;stroke-width:1;"/><path d="M1322.7338,261.5563 C1322.7338,264.0563 1324.8744,265.8688 1327.7963,265.8688 C1329.0306,265.8688 1330.2025,265.5719 1330.9525,265.0563 C1331.5619,264.6344 1331.89,264.2125 1331.89,263.8063 C1331.89,263.3375 1331.4681,262.9313 1330.9681,262.9313 C1330.7338,262.9313 1330.515,263.0094 1330.3119,263.2125 C1329.8744,263.65 1329.8744,263.65 1329.7025,263.7438 C1329.2494,263.9781 1328.6088,264.1188 1327.8431,264.1188 C1325.8431,264.1188 1324.5619,263.1031 1324.5619,261.525 L1324.5619,260.4781 C1324.5619,258.775 1325.7806,257.5719 1327.4838,257.5719 C1328.0619,257.5719 1328.64,257.7125 1329.1088,257.9625 C1329.5775,258.2281 1329.7494,258.4156 1329.8119,258.775 C1329.9369,259.4469 1330.1869,259.6969 1330.7181,259.6969 C1330.9994,259.6969 1331.2806,259.5563 1331.4681,259.3375 C1331.5931,259.1656 1331.64,258.9938 1331.64,258.5563 L1331.64,257.1969 C1331.64,256.775 1331.6244,256.6344 1331.4994,256.4625 C1331.3275,256.2125 1331.0463,256.0563 1330.7181,256.0563 C1330.4056,256.0563 1330.2025,256.1656 1329.9838,256.4313 C1328.8119,255.9313 1328.3744,255.8219 1327.4213,255.8219 C1324.7494,255.8219 1322.7338,257.8375 1322.7338,260.4625 L1322.7338,261.5563 Z " fill="#000000"/><text fill="#000000" font-family="sans-serif" font-size="14" lengthAdjust="spacing" textLength="56.0278" x="1348.2338" y="265.006">Donation</text><line style="stroke:#181818;stroke-width:0.5;" x1="1268.24" x2="1451.7553" y1="276.4" y2="276.4"/><text fill="#000000" font-family="sans-serif" font-size="14" lengthAdjust="spacing" textLength="112.0415" x="1273.24" y="293.4059">amountInMl: Float</text><text fill="#000000" font-family="sans-serif" font-size="14" lengthAdjust="spacing" textLength="173.5153" x="1273.24" y="310.2059">isBloodNotPlasma: Boolean</text><line style="stroke:#181818;stroke-width:0.5;" x1="1268.24" x2="1451.7553" y1="317.9999" y2="317.9999"/></g><!--class Bookingslot--><g class="entity" data-qualified-name="Bookingslot" data-source-line="81" id="ent0033"><rect fill="#F1F1F1" height="115.1997" rx="2.5" ry="2.5" style="stroke:#181818;stroke-width:0.5;" width="211.2331" x="970.38" y="950.2"/><ellipse cx="1035.5637" cy="966.2" fill="#ADD1B2" rx="11" ry="11" style="stroke:#181818;stroke-width:1;"/><path d="M1030.5637,967.3563 C1030.5637,969.8563 1032.7043,971.6688 1035.6262,971.6688 C1036.8606,971.6688 1038.0325,971.3719 1038.7825,970.8563 C1039.3918,970.4344 1039.72,970.0125 1039.72,969.6063 C1039.72,969.1375 1039.2981,968.7313 1038.7981,968.7313 C1038.5637,968.7313 1038.345,968.8094 1038.1418,969.0125 C1037.7043,969.45 1037.7043,969.45 1037.5325,969.5438 C1037.0793,969.7781 1036.4387,969.9188 1035.6731,969.9188 C1033.6731,969.9188 1032.3918,968.9031 1032.3918,967.325 L1032.3918,966.2781 C1032.3918,964.575 1033.6106,963.3719 1035.3137,963.3719 C1035.8918,963.3719 1036.47,963.5125 1036.9387,963.7625 C1037.4075,964.0281 1037.5793,964.2156 1037.6418,964.575 C1037.7668,965.2469 1038.0168,965.4969 1038.5481,965.4969 C1038.8293,965.4969 1039.1106,965.3563 1039.2981,965.1375 C1039.4231,964.9656 1039.47,964.7938 1039.47,964.3563 L1039.47,962.9969 C1039.47,962.575 1039.4543,962.4344 1039.3293,962.2625 C1039.1575,962.0125 1038.8762,961.8563 1038.5481,961.8563 C1038.2356,961.8563 1038.0325,961.9656 1037.8137,962.2313 C1036.6418,961.7313 1036.2043,961.6219 1035.2512,961.6219 C1032.5793,961.6219 1030.5637,963.6375 1030.5637,966.2625 L1030.5637,967.3563 Z " fill="#000000"/><text fill="#000000" font-family="sans-serif" font-size="14" lengthAdjust="spacing" textLength="72.3657" x="1056.0637" y="970.806">Bookingslot</text><line style="stroke:#181818;stroke-width:0.5;" x1="971.38" x2="1180.6131" y1="982.2" y2="982.2"/><text fill="#000000" font-family="sans-serif" font-size="14" lengthAdjust="spacing" textLength="103.4596" x="976.38" y="999.2059">time: Timestamp</text><text fill="#000000" font-family="sans-serif" font-size="14" lengthAdjust="spacing" textLength="133.0554" x="976.38" y="1016.0059">// Time has to fall into</text><text fill="#000000" font-family="sans-serif" font-size="14" lengthAdjust="spacing" textLength="199.2331" x="976.38" y="1032.8058">// the bloodbanks opening hours</text><text fill="#000000" font-family="sans-serif" font-size="14" lengthAdjust="spacing" textLength="74.7037" x="976.38" y="1049.6057">capacity: Int</text><line style="stroke:#181818;stroke-width:0.5;" x1="971.38" x2="1180.6131" y1="1057.3997" y2="1057.3997"/></g><!--class Location--><g class="entity" data-qualified-name="Location" data-source-line="100" id="ent0037"><rect fill="#F1F1F1" height="81.5999" rx="2.5" ry="2.5" style="stroke:#181818;stroke-width:0.5;" width="107.7176" x="251.14" y="967"/><ellipse cx="276.399" cy="983" fill="#ADD1B2" rx="11" ry="11" style="stroke:#181818;stroke-width:1;"/><path d="M271.399,984.1563 C271.399,986.6563 273.5396,988.4688 276.4615,988.4688 C277.6959,988.4688 278.8678,988.1719 279.6178,987.6563 C280.2271,987.2344 280.5553,986.8125 280.5553,986.4063 C280.5553,985.9375 280.1334,985.5313 279.6334,985.5313 C279.399,985.5313 279.1803,985.6094 278.9771,985.8125 C278.5396,986.25 278.5396,986.25 278.3678,986.3438 C277.9146,986.5781 277.274,986.7188 276.5084,986.7188 C274.5084,986.7188 273.2271,985.7031 273.2271,984.125 L273.2271,983.0781 C273.2271,981.375 274.4459,980.1719 276.149,980.1719 C276.7271,980.1719 277.3053,980.3125 277.774,980.5625 C278.2428,980.8281 278.4146,981.0156 278.4771,981.375 C278.6021,982.0469 278.8521,982.2969 279.3834,982.2969 C279.6646,982.2969 279.9459,982.1563 280.1334,981.9375 C280.2584,981.7656 280.3053,981.5938 280.3053,981.1563 L280.3053,979.7969 C280.3053,979.375 280.2896,979.2344 280.1646,979.0625 C279.9928,978.8125 279.7115,978.6563 279.3834,978.6563 C279.0709,978.6563 278.8678,978.7656 278.649,979.0313 C277.4771,978.5313 277.0396,978.4219 276.0865,978.4219 C273.4146,978.4219 271.399,980.4375 271.399,983.0625 L271.399,984.1563 Z " fill="#000000"/><text fill="#000000" font-family="sans-serif" font-size="14" lengthAdjust="spacing" textLength="52.9198" x="292.6788" y="987.606">Location</text><line style="stroke:#181818;stroke-width:0.5;" x1="252.14" x2="357.8576" y1="999" y2="999"/><text fill="#000000" font-family="sans-serif" font-size="14" lengthAdjust="spacing" textLength="95.7176" x="257.14" y="1016.0059">longitude: Float</text><text fill="#000000" font-family="sans-serif" font-size="14" lengthAdjust="spacing" textLength="84.0416" x="257.14" y="1032.8059">latitude: Float</text><line style="stroke:#181818;stroke-width:0.5;" x1="252.14" x2="357.8576" y1="1040.5999" y2="1040.5999"/></g><!--class Holiday--><g class="entity" data-qualified-name="Holiday" data-source-line="101" id="ent0039"><rect fill="#F1F1F1" height="98.3998" rx="2.5" ry="2.5" style="stroke:#181818;stroke-width:0.5;" width="124.0415" x="393.98" y="958.6"/><ellipse cx="429.3946" cy="974.6" fill="#ADD1B2" rx="11" ry="11" style="stroke:#181818;stroke-width:1;"/><path d="M424.3946,975.7563 C424.3946,978.2563 426.5352,980.0688 429.4571,980.0688 C430.6915,980.0688 431.8633,979.7719 432.6133,979.2563 C433.2227,978.8344 433.5508,978.4125 433.5508,978.0063 C433.5508,977.5375 433.129,977.1313 432.629,977.1313 C432.3946,977.1313 432.1758,977.2094 431.9727,977.4125 C431.5352,977.85 431.5352,977.85 431.3633,977.9438 C430.9102,978.1781 430.2696,978.3188 429.504,978.3188 C427.504,978.3188 426.2227,977.3031 426.2227,975.725 L426.2227,974.6781 C426.2227,972.975 427.4415,971.7719 429.1446,971.7719 C429.7227,971.7719 430.3008,971.9125 430.7696,972.1625 C431.2383,972.4281 431.4102,972.6156 431.4727,972.975 C431.5977,973.6469 431.8477,973.8969 432.379,973.8969 C432.6602,973.8969 432.9415,973.7563 433.129,973.5375 C433.254,973.3656 433.3008,973.1938 433.3008,972.7563 L433.3008,971.3969 C433.3008,970.975 433.2852,970.8344 433.1602,970.6625 C432.9883,970.4125 432.7071,970.2563 432.379,970.2563 C432.0665,970.2563 431.8633,970.3656 431.6446,970.6313 C430.4727,970.1313 430.0352,970.0219 429.0821,970.0219 C426.4102,970.0219 424.3946,972.0375 424.3946,974.6625 L424.3946,975.7563 Z " fill="#000000"/><text fill="#000000" font-family="sans-serif" font-size="14" lengthAdjust="spacing" textLength="46.6758" x="447.9312" y="979.206">Holiday</text><line style="stroke:#181818;stroke-width:0.5;" x1="394.98" x2="517.0215" y1="990.6" y2="990.6"/><text fill="#000000" font-family="sans-serif" font-size="14" lengthAdjust="spacing" textLength="112.0415" x="399.98" y="1007.6059">description: String</text><text fill="#000000" font-family="sans-serif" font-size="14" lengthAdjust="spacing" textLength="104.2436" x="399.98" y="1024.4059">start: Timestamp</text><text fill="#000000" font-family="sans-serif" font-size="14" lengthAdjust="spacing" textLength="100.3656" x="399.98" y="1041.2058">end: Timestamp</text><line style="stroke:#181818;stroke-width:0.5;" x1="394.98" x2="517.0215" y1="1048.9998" y2="1048.9998"/></g><!--class RecurringHoliday--><g class="entity" data-qualified-name="RecurringHoliday" data-source-line="102" id="ent0041"><rect fill="#F1F1F1" height="81.5999" rx="2.5" ry="2.5" style="stroke:#181818;stroke-width:0.5;" width="139.3515" x="553.32" y="967"/><ellipse cx="568.32" cy="983" fill="#ADD1B2" rx="11" ry="11" style="stroke:#181818;stroke-width:1;"/><path d="M563.32,984.1563 C563.32,986.6563 565.4606,988.4688 568.3825,988.4688 C569.6169,988.4688 570.7888,988.1719 571.5388,987.6563 C572.1481,987.2344 572.4763,986.8125 572.4763,986.4063 C572.4763,985.9375 572.0544,985.5313 571.5544,985.5313 C571.32,985.5313 571.1013,985.6094 570.8981,985.8125 C570.4606,986.25 570.4606,986.25 570.2888,986.3438 C569.8356,986.5781 569.195,986.7188 568.4294,986.7188 C566.4294,986.7188 565.1481,985.7031 565.1481,984.125 L565.1481,983.0781 C565.1481,981.375 566.3669,980.1719 568.07,980.1719 C568.6481,980.1719 569.2263,980.3125 569.695,980.5625 C570.1638,980.8281 570.3356,981.0156 570.3981,981.375 C570.5231,982.0469 570.7731,982.2969 571.3044,982.2969 C571.5856,982.2969 571.8669,982.1563 572.0544,981.9375 C572.1794,981.7656 572.2263,981.5938 572.2263,981.1563 L572.2263,979.7969 C572.2263,979.375 572.2106,979.2344 572.0856,979.0625 C571.9138,978.8125 571.6325,978.6563 571.3044,978.6563 C570.9919,978.6563 570.7888,978.7656 570.57,979.0313 C569.3981,978.5313 568.9606,978.4219 568.0075,978.4219 C565.3356,978.4219 563.32,980.4375 563.32,983.0625 L563.32,984.1563 Z " fill="#000000"/><text fill="#000000" font-family="sans-serif" font-size="14" lengthAdjust="spacing" textLength="107.3515" x="582.32" y="987.606">RecurringHoliday</text><line style="stroke:#181818;stroke-width:0.5;" x1="554.32" x2="691.6715" y1="999" y2="999"/><text fill="#000000" font-family="sans-serif" font-size="14" lengthAdjust="spacing" textLength="112.0415" x="559.32" y="1016.0059">description: String</text><text fill="#000000" font-family="sans-serif" font-size="14" lengthAdjust="spacing" textLength="116.7175" x="559.32" y="1032.8059">cronPattern: String</text><line style="stroke:#181818;stroke-width:0.5;" x1="554.32" x2="691.6715" y1="1040.5999" y2="1040.5999"/></g><!--class Timerange--><g class="entity" data-qualified-name="Timerange" data-source-line="119" id="ent0044"><rect fill="#F1F1F1" height="81.5999" rx="2.5" ry="2.5" style="stroke:#181818;stroke-width:0.5;" width="136.5015" x="727.75" y="967"/><ellipse cx="759.6681" cy="983" fill="#ADD1B2" rx="11" ry="11" style="stroke:#181818;stroke-width:1;"/><path d="M754.6681,984.1563 C754.6681,986.6563 756.8087,988.4688 759.7306,988.4688 C760.965,988.4688 762.1368,988.1719 762.8868,987.6563 C763.4962,987.2344 763.8243,986.8125 763.8243,986.4063 C763.8243,985.9375 763.4025,985.5313 762.9025,985.5313 C762.6681,985.5313 762.4493,985.6094 762.2462,985.8125 C761.8087,986.25 761.8087,986.25 761.6368,986.3438 C761.1837,986.5781 760.5431,986.7188 759.7775,986.7188 C757.7775,986.7188 756.4962,985.7031 756.4962,984.125 L756.4962,983.0781 C756.4962,981.375 757.715,980.1719 759.4181,980.1719 C759.9962,980.1719 760.5743,980.3125 761.0431,980.5625 C761.5118,980.8281 761.6837,981.0156 761.7462,981.375 C761.8712,982.0469 762.1212,982.2969 762.6525,982.2969 C762.9337,982.2969 763.215,982.1563 763.4025,981.9375 C763.5275,981.7656 763.5743,981.5938 763.5743,981.1563 L763.5743,979.7969 C763.5743,979.375 763.5587,979.2344 763.4337,979.0625 C763.2618,978.8125 762.9806,978.6563 762.6525,978.6563 C762.34,978.6563 762.1368,978.7656 761.9181,979.0313 C760.7462,978.5313 760.3087,978.4219 759.3556,978.4219 C756.6837,978.4219 754.6681,980.4375 754.6681,983.0625 L754.6681,984.1563 Z " fill="#000000"/><text fill="#000000" font-family="sans-serif" font-size="14" lengthAdjust="spacing" textLength="66.9057" x="777.4277" y="987.606">Timerange</text><line style="stroke:#181818;stroke-width:0.5;" x1="728.75" x2="863.2515" y1="999" y2="999"/><text fill="#000000" font-family="sans-serif" font-size="14" lengthAdjust="spacing" textLength="124.5015" x="733.75" y="1016.0059">openingCron: String</text><text fill="#000000" font-family="sans-serif" font-size="14" lengthAdjust="spacing" textLength="118.2575" x="733.75" y="1032.8059">closingCron: String</text><line style="stroke:#181818;stroke-width:0.5;" x1="728.75" x2="863.2515" y1="1040.5999" y2="1040.5999"/></g><!--link User to Address--><g class="link" data-entity-1="ent0002" data-entity-2="ent0003" data-link-type="dependency" data-source-line="8" id="lnk4"><path codeLine="8" d="M229.9,454.73 C224.04,590.14 207.7496,966.2756 201.0896,1120.0756" fill="none" id="User-to-Address" style="stroke:#181818;stroke-width:1;"/><polygon fill="#181818" points="200.83,1126.07,205.2156,1117.2515,201.0463,1121.0747,197.2231,1116.9054,200.83,1126.07" style="stroke:#181818;stroke-width:1;"/><text fill="#000000" font-family="sans-serif" font-size="13" lengthAdjust="spacing" textLength="32.513" x="220.67" y="786.577">home</text><text fill="#000000" font-family="sans-serif" font-size="13" lengthAdjust="spacing" textLength="7.228" x="193.7689" y="1115.1047">1</text></g><!--link User to Address--><g class="link" data-entity-1="ent0002" data-entity-2="ent0003" data-link-type="dependency" data-source-line="9" id="lnk5"><path codeLine="9" d="M159.36,452.98 C126.12,480.51 94,518.72 94,563.6 C94,563.6 94,563.6 94,1008.8 C94,1051.49 112.2181,1088.418 135.8081,1121.238" fill="none" id="User-to-Address-1" style="stroke:#181818;stroke-width:1;"/><polygon fill="#181818" points="139.31,1126.11,137.3052,1116.4673,136.3918,1122.05,130.8092,1121.1365,139.31,1126.11" style="stroke:#181818;stroke-width:1;"/><text fill="#000000" font-family="sans-serif" font-size="13" lengthAdjust="spacing" textLength="66.4691" x="95" y="786.577">alternatives</text><text fill="#000000" font-family="sans-serif" font-size="13" lengthAdjust="spacing" textLength="19.513" x="112.4549" y="1114.6898">0..*</text></g><!--reverse link User to Donor--><g class="link" data-entity-1="ent0002" data-entity-2="ent0006" data-link-type="extension" data-source-line="12" id="lnk7"><path d="M322.4004,429.7211 C419.6704,455.0211 576.33,495.78 698.81,527.65" fill="none" id="User-backto-Donor" style="stroke:#181818;stroke-width:1;"/><polygon fill="none" points="304.98,425.19,320.89,435.5278,323.9107,423.9143,304.98,425.19" style="stroke:#181818;stroke-width:1;"/></g><!--link Donor to TestResult--><g class="link" data-entity-1="ent0006" data-entity-2="ent0009" data-link-type="dependency" data-source-line="27" id="lnk10"><path codeLine="27" d="M871.98,614.21 C897.43,649.57 928.2251,692.3801 953.6451,727.7001" fill="none" id="Donor-to-TestResult" style="stroke:#181818;stroke-width:1;"/><polygon fill="#181818" points="957.15,732.57,955.1393,722.9286,954.2293,728.5118,948.6461,727.6018,957.15,732.57" style="stroke:#181818;stroke-width:1;"/><text fill="#000000" font-family="sans-serif" font-size="13" lengthAdjust="spacing" textLength="19.513" x="931.674" y="721.3295">0..*</text></g><!--link Donor to Bloodbank--><g class="link" data-entity-1="ent0006" data-entity-2="ent0011" data-link-type="dependency" data-source-line="28" id="lnk12"><path codeLine="28" d="M788.71,614.21 C753.57,649.57 710.4388,692.9935 675.3488,728.3135" fill="none" id="Donor-to-Bloodbank" style="stroke:#181818;stroke-width:1;"/><polygon fill="#181818" points="671.12,732.57,680.3008,729.0045,674.644,729.0229,674.6255,723.3661,671.12,732.57" style="stroke:#181818;stroke-width:1;"/><text fill="#000000" font-family="sans-serif" font-size="13" lengthAdjust="spacing" textLength="51.2981" x="756.46" y="656.877">prefers a</text><text fill="#000000" font-family="sans-serif" font-size="13" lengthAdjust="spacing" textLength="7.228" x="670.691" y="721.3295">1</text></g><!--link TestResult to Form--><g class="link" data-entity-1="ent0009" data-entity-2="ent0013" data-link-type="dependency" data-source-line="36" id="lnk14"><path codeLine="36" d="M1056.66,831.56 C1114.69,875.14 1193.3722,934.2371 1243.1622,971.6271" fill="none" id="TestResult-to-Form" style="stroke:#181818;stroke-width:1;"/><polygon fill="#181818" points="1247.96,975.23,1243.1652,966.6271,1243.9618,972.2276,1238.3613,973.0241,1247.96,975.23" style="stroke:#181818;stroke-width:1;"/><text fill="#000000" font-family="sans-serif" font-size="13" lengthAdjust="spacing" textLength="7.228" x="1231.5901" y="964.1045">1</text></g><!--reverse link Form to EntryForm--><g class="link" data-entity-1="ent0013" data-entity-2="ent0015" data-link-type="extension" data-source-line="43" id="lnk16"><path d="M1286.1832,1058.5573 C1283.3932,1094.9273 1280.27,1135.68 1277.79,1168.07" fill="none" id="Form-backto-EntryForm" style="stroke:#181818;stroke-width:1;"/><polygon fill="none" points="1287.56,1040.61,1280.2008,1058.0983,1292.1657,1059.0162,1287.56,1040.61" style="stroke:#181818;stroke-width:1;"/></g><!--reverse link Form to Interview--><g class="link" data-entity-1="ent0013" data-entity-2="ent0017" data-link-type="extension" data-source-line="47" id="lnk18"><path d="M1244.9672,1053.2525 C1208.1072,1089.6225 1161.46,1135.68 1128.64,1168.07" fill="none" id="Form-backto-Interview" style="stroke:#181818;stroke-width:1;"/><polygon fill="none" points="1257.78,1040.61,1240.753,1048.9815,1249.1814,1057.5234,1257.78,1040.61" style="stroke:#181818;stroke-width:1;"/></g><!--link Interview to Admin--><g class="link" data-entity-1="ent0017" data-entity-2="ent0019" data-link-type="dependency" data-source-line="49" id="lnk20"><path codeLine="49" d="M1078.46,1216.69 C1042.73,1248.05 984.0294,1299.5721 948.2194,1331.0021" fill="none" id="Interview-to-Admin" style="stroke:#181818;stroke-width:1;"/><polygon fill="#181818" points="943.71,1334.96,953.1128,1332.0295,947.4679,1331.6618,947.8356,1326.0169,943.71,1334.96" style="stroke:#181818;stroke-width:1;"/><text fill="#000000" font-family="sans-serif" font-size="13" lengthAdjust="spacing" textLength="41.912" x="995.16" y="1301.477">held by</text><text fill="#000000" font-family="sans-serif" font-size="13" lengthAdjust="spacing" textLength="7.228" x="942.6873" y="1323.9293">1</text></g><!--reverse link Form to DonationTest--><g class="link" data-entity-1="ent0013" data-entity-2="ent0021" data-link-type="extension" data-source-line="52" id="lnk22"><path d="M1322.3989,1055.3865 C1347.6989,1091.7565 1378.24,1135.68 1400.77,1168.07" fill="none" id="Form-backto-DonationTest" style="stroke:#181818;stroke-width:1;"/><polygon fill="none" points="1312.12,1040.61,1317.4734,1058.8128,1327.3244,1051.9602,1312.12,1040.61" style="stroke:#181818;stroke-width:1;"/></g><!--link Donor to Bloodtype--><g class="link" data-entity-1="ent0006" data-entity-2="ent0008" data-link-type="dependency" data-source-line="55" id="lnk23"><path codeLine="55" d="M837,614.21 C837,636.79 837,658.4 837,684.6" fill="none" id="Donor-to-Bloodtype" style="stroke:#181818;stroke-width:1;"/><polygon fill="#181818" points="837,690.6,841,681.6,837,685.6,833,681.6,837,690.6" style="stroke:#181818;stroke-width:1;"/><text fill="#000000" font-family="sans-serif" font-size="13" lengthAdjust="spacing" textLength="7.228" x="829.7091" y="679.2036">1</text></g><!--reverse link User to Admin--><g class="link" data-entity-1="ent0002" data-entity-2="ent0019" data-link-type="extension" data-source-line="57" id="lnk24"><path d="M142.1062,429.6154 C76.0362,450.7554 6,487.58 6,563.6 C6,563.6 6,563.6 6,1193.4 C6,1248.28 59.24,1240.15 111,1258.4 C256.78,1309.78 744.06,1346.5 880.95,1355.99" fill="none" id="User-backto-Admin" style="stroke:#181818;stroke-width:1;"/><polygon fill="none" points="159.25,424.13,140.2777,423.9008,143.9347,435.33,159.25,424.13" style="stroke:#181818;stroke-width:1;"/></g><!--link Bloodbank to Admin--><g class="link" data-entity-1="ent0011" data-entity-2="ent0019" data-link-type="dependency" data-source-line="59" id="lnk25"><path codeLine="59" d="M704.05,831.44 C739.14,852.87 780.46,878.72 817,903.2 C846.62,923.05 864.44,919.18 882,950.2 C955.24,1079.57 933.2068,1263.8517 922.2868,1329.3417" fill="none" id="Bloodbank-to-Admin" style="stroke:#181818;stroke-width:1;"/><polygon fill="#181818" points="921.3,1335.26,926.7258,1327.0405,922.1224,1330.3281,918.8347,1325.7247,921.3,1335.26" style="stroke:#181818;stroke-width:1;"/><text fill="#000000" font-family="sans-serif" font-size="13" lengthAdjust="spacing" textLength="19.513" x="694.6996" y="851.2087">0..*</text><text fill="#000000" font-family="sans-serif" font-size="13" lengthAdjust="spacing" textLength="19.513" x="900.972" y="1323.9144">1..*</text></g><!--reverse link Appointment to Note--><g class="link" data-entity-1="ent0027" data-entity-2="ent0026" data-link-type="dependency" data-source-line="66" id="lnk28"><path codeLine="66" d="M975.9266,66.0776 C906.9366,90.9876 804.95,127.83 738.94,151.68" fill="none" id="Appointment-backto-Note" style="stroke:#181818;stroke-width:1;"/><polygon fill="#181818" points="981.57,64.04,971.7465,63.3342,976.8672,65.738,974.4633,70.8587,981.57,64.04" style="stroke:#181818;stroke-width:1;"/><text fill="#000000" font-family="sans-serif" font-size="13" lengthAdjust="spacing" textLength="19.513" x="954.4023" y="63.0245">0..*</text></g><!--link Note to User--><g class="link" data-entity-1="ent0026" data-entity-2="ent0002" data-link-type="dependency" data-source-line="67" id="lnk29"><path codeLine="67" d="M623.22,204.15 C541.86,245.75 398.9222,318.8485 310.1322,364.2485" fill="none" id="Note-to-User" style="stroke:#181818;stroke-width:1;"/><polygon fill="#181818" points="304.79,366.98,314.6243,366.4441,309.2418,364.7037,310.9822,359.3212,304.79,366.98" style="stroke:#181818;stroke-width:1;"/><text fill="#000000" font-family="sans-serif" font-size="13" lengthAdjust="spacing" textLength="60.6971" x="536.77" y="289.777">created by</text><text fill="#000000" font-family="sans-serif" font-size="13" lengthAdjust="spacing" textLength="7.228" x="312.6694" y="359.3731">1</text></g><!--link Donation to DonationTest--><g class="link" data-entity-1="ent0030" data-entity-2="ent0021" data-link-type="dependency" data-source-line="78" id="lnk31"><path codeLine="78" d="M1378.66,326.23 C1395.29,365.59 1417,427.83 1417,484.4 C1417,484.4 1417,484.4 1417,1008.8 C1417,1066.02 1417,1127.33 1417,1162.05" fill="none" id="Donation-to-DonationTest" style="stroke:#181818;stroke-width:1;"/><polygon fill="#181818" points="1417,1168.05,1421,1159.05,1417,1163.05,1413,1159.05,1417,1168.05" style="stroke:#181818;stroke-width:1;"/><text fill="#000000" font-family="sans-serif" font-size="13" lengthAdjust="spacing" textLength="21.684" x="1393.3973" y="1157.0423">0..1</text></g><!--link Appointment to Donation--><g class="link" data-entity-1="ent0027" data-entity-2="ent0030" data-link-type="dependency" data-source-line="80" id="lnk32"><path codeLine="80" d="M1100.23,72.26 C1114.7,81.41 1130.18,91.67 1144,101.8 C1206.14,147.37 1268.8337,201.6434 1311.4837,239.9034" fill="none" id="Appointment-to-Donation" style="stroke:#181818;stroke-width:1;"/><polygon fill="#181818" points="1315.95,243.91,1311.9216,234.9227,1312.2281,240.5712,1306.5796,240.8777,1315.95,243.91" style="stroke:#181818;stroke-width:1;"/><text fill="#000000" font-family="sans-serif" font-size="13" lengthAdjust="spacing" textLength="21.684" x="1285.9722" y="232.9559">0..1</text></g><!--link Appointment to Bookingslot--><g class="link" data-entity-1="ent0027" data-entity-2="ent0033" data-link-type="dependency" data-source-line="81" id="lnk34"><path codeLine="81" d="M1075.47,72.11 C1095.22,97.43 1118,134.83 1118,172.6 C1118,172.6 1118,172.6 1118,783 C1118,840.52 1105.9438,899.1441 1094.2338,944.0541" fill="none" id="Appointment-to-Bookingslot" style="stroke:#181818;stroke-width:1;"/><polygon fill="#181818" points="1092.72,949.86,1098.8614,942.1604,1093.9815,945.0218,1091.1202,940.1419,1092.72,949.86" style="stroke:#181818;stroke-width:1;"/><text fill="#000000" font-family="sans-serif" font-size="13" lengthAdjust="spacing" textLength="7.228" x="1087.4289" y="938.591">1</text></g><!--link Appointment to Donor--><g class="link" data-entity-1="ent0027" data-entity-2="ent0006" data-link-type="dependency" data-source-line="82" id="lnk35"><path codeLine="82" d="M1034.34,71.95 C998.95,160.1 901.1152,403.8719 858.6552,509.6419" fill="none" id="Appointment-to-Donor" style="stroke:#181818;stroke-width:1;"/><polygon fill="#181818" points="856.42,515.21,863.4849,508.348,858.2827,510.5699,856.0608,505.3677,856.42,515.21" style="stroke:#181818;stroke-width:1;"/><text fill="#000000" font-family="sans-serif" font-size="13" lengthAdjust="spacing" textLength="19.513" x="1011.0272" y="91.9709">0..*</text><text fill="#000000" font-family="sans-serif" font-size="13" lengthAdjust="spacing" textLength="7.228" x="851.7746" y="503.9754">1</text></g><!--link Bloodbank to Bookingslot--><g class="link" data-entity-1="ent0011" data-entity-2="ent0033" data-link-type="dependency" data-source-line="91" id="lnk36"><path codeLine="91" d="M691.13,831.53 C715.63,846.97 744.11,862.74 772,873.2 C844.24,900.31 872.47,871.9 943,903.2 C968.95,914.72 989.6758,928.5934 1011.1858,946.0934" fill="none" id="Bloodbank-to-Bookingslot" style="stroke:#181818;stroke-width:1;"/><polygon fill="#181818" points="1015.84,949.88,1011.383,941.0973,1011.9615,946.7245,1006.3343,947.303,1015.84,949.88" style="stroke:#181818;stroke-width:1;"/><text fill="#000000" font-family="sans-serif" font-size="13" lengthAdjust="spacing" textLength="19.513" x="987.9481" y="938.6135">0..*</text></g><!--link Bloodbank to Location--><g class="link" data-entity-1="ent0011" data-entity-2="ent0037" data-link-type="dependency" data-source-line="100" id="lnk38"><path codeLine="100" d="M547.92,831.63 C498.41,864.23 432.53,908.63 376,950.2 C368.89,955.43 366.2183,957.3864 358.9983,963.0264" fill="none" id="Bloodbank-to-Location" style="stroke:#181818;stroke-width:1;"/><polygon fill="#181818" points="354.27,966.72,363.8249,964.3318,358.2103,963.642,358.9001,958.0274,354.27,966.72" style="stroke:#181818;stroke-width:1;"/><text fill="#000000" font-family="sans-serif" font-size="13" lengthAdjust="spacing" textLength="7.228" x="355.1565" y="955.4989">1</text></g><!--link Bloodbank to Holiday--><g class="link" data-entity-1="ent0011" data-entity-2="ent0039" data-link-type="dependency" data-source-line="101" id="lnk40"><path codeLine="101" d="M586.76,831.56 C558.75,869.1 523.7483,916.0112 495.7583,953.5212" fill="none" id="Bloodbank-to-Holiday" style="stroke:#181818;stroke-width:1;"/><polygon fill="#181818" points="492.17,958.33,500.7583,953.5091,495.1602,954.3227,494.3466,948.7247,492.17,958.33" style="stroke:#181818;stroke-width:1;"/><text fill="#000000" font-family="sans-serif" font-size="13" lengthAdjust="spacing" textLength="19.513" x="477.1247" y="947.0836">0..*</text></g><!--link Bloodbank to RecurringHoliday--><g class="link" data-entity-1="ent0011" data-entity-2="ent0041" data-link-type="dependency" data-source-line="102" id="lnk42"><path codeLine="102" d="M623,831.56 C623,871.93 623,922.69 623,960.56" fill="none" id="Bloodbank-to-RecurringHoliday" style="stroke:#181818;stroke-width:1;"/><polygon fill="#181818" points="623,966.56,627,957.56,623,961.56,619,957.56,623,966.56" style="stroke:#181818;stroke-width:1;"/><text fill="#000000" font-family="sans-serif" font-size="13" lengthAdjust="spacing" textLength="19.513" x="602.4697" y="955.6141">0..*</text></g><!--link Location to Address--><g class="link" data-entity-1="ent0037" data-entity-2="ent0003" data-link-type="dependency" data-source-line="109" id="lnk43"><path codeLine="109" d="M281.52,1048.87 C268.29,1071.44 254.4842,1095.0138 239.3842,1120.7738" fill="none" id="Location-to-Address" style="stroke:#181818;stroke-width:1;"/><polygon fill="#181818" points="236.35,1125.95,244.3522,1120.2084,238.8785,1121.6365,237.4505,1116.1628,236.35,1125.95" style="stroke:#181818;stroke-width:1;"/><text fill="#000000" font-family="sans-serif" font-size="13" lengthAdjust="spacing" textLength="21.684" x="218.4332" y="1114.9716">0..1</text></g><!--link Bloodbank to Timerange--><g class="link" data-entity-1="ent0011" data-entity-2="ent0044" data-link-type="dependency" data-source-line="119" id="lnk45"><path codeLine="119" d="M660.54,831.56 C691.74,871.93 731.9508,923.9427 761.2208,961.8127" fill="none" id="Bloodbank-to-Timerange" style="stroke:#181818;stroke-width:1;"/><polygon fill="#181818" points="764.89,966.56,762.551,956.9929,761.8323,962.6039,756.2213,961.8852,764.89,966.56" style="stroke:#181818;stroke-width:1;"/><text fill="#000000" font-family="sans-serif" font-size="13" lengthAdjust="spacing" textLength="82.3811" x="726" y="916.277">opening hours</text><text fill="#000000" font-family="sans-serif" font-size="13" lengthAdjust="spacing" textLength="5.057" x="754.3279" y="955.6141">*</text></g><?plantuml-src VLNRRjim37ttLmX-t91sUms60ScwOWNMhkZQ3r1i9X4gYOP4jmk6_Vj8-IQdtbuCNNWvF8UKAwjZL4yHWlfTAEMrWxNwIS7u0s_XLXkRxPiZUhXhtGx2UFgdA9BxQlMv_5YgJLq7Y76joYCwAAUx3nSNx_9hRGc2rsHU89P5KIKWL-WnAFX5uEiCLeNEWQSXfxgyPFyTjgGSN3O1zX30Ln97AUCvxejcs5TWIJyQ1tmQBTBzP9X7-XBGSnNWMwUs5h6cKmCfxO-LVDxpPvC-ijtAQYkhJLfkUCqKTC2dEXyXqWF4rj9qfOIVb66d_JDJq26FIe_rJsu901cHGqg8f5t39roOgPyyYIpvkV7fHXFKQxL5jA2bg28Bs0jqZS4DwMIT4k7p8p9ETfzvTrPVFOLJCXs4wVqcavj4ke7N1PFfRcmHPxmq2DXQxKwv-DmEw0NpKge58aMgmJs5FUiTzXe9Lvqq2KJVY-mmUDyXmJyuvrNK1yWxVjCqo8qcJTc7_RHQfHX52ZI051HSQHL0bCcBpIAa3jVSbjQUgJVd9S7J3bjFD_wM6-3QeYOHFwOYEVCzEpWzYp5wzyt9g7AYvxKat7EZj_T2Fk8pKo5JjS35O9K46wh8N9Pfvb6KhJhgg0ZLNbihmuogkwCZgDsWPLJOW9S1Fc8ROYAmqPMXqrfwiPZfFarb3dk0DPejl7-STjCbLRisCiyg00zjz9sOFJB7qsKQEuFtQkYeQhFV2oiIDHPlGJ55tx7gM5w2-mrbf4-BTmzGjK5W3aPzFKF0L8v5Vp3KrZ3rYkNR_8H1ZIwP-lqxFSrMsgQWaG80dJ7L7yv_3Vp3G5RNLYZvH1VMAMaq6bJIpU6KpzQiMbNAOyfj4RIN4Indka_lvc3HlMQTZJpiUIgByVnqdB6UnUHUGwo2QOIIMOKwqBnZ-Q793yPWvzhy9sh5QEuroQzm0lKN?></g></svg>