<?plantuml 1.2026.1?><svg xmlns="http://www.w3.org/2000/svg" xmlns:xlink="http://www.w3.org/1999/xlink" contentStyleType="text/css" data-diagram-type="CLASS" height="1424px" preserveAspectRatio="none" style="width:1217px;height:1424px;background:#FFFFFF;" version="1.1" viewBox="0 0 1217 1424" width="1217px" zoomAndPan="magnify"><defs/><g><!--class User--><g class="entity" data-qualified-name="User" data-source-line="2" id="ent0002"><rect fill="#F1F1F1" height="98.3998" rx="2.5" ry="2.5" style="stroke:#181818;stroke-width:0.5;" width="145.0555" x="300.47" y="356"/><ellipse cx="353.9708" cy="372" fill="#ADD1B2" rx="11" ry="11" style="stroke:#181818;stroke-width:1;"/><path d="M348.9708,373.1563 C348.9708,375.6563 351.1114,377.4688 354.0333,377.4688 C355.2677,377.4688 356.4395,377.1719 357.1895,376.6563 C357.7989,376.2344 358.127,375.8125 358.127,375.4063 C358.127,374.9375 357.7052,374.5313 357.2052,374.5313 C356.9708,374.5313 356.752,374.6094 356.5489,374.8125 C356.1114,375.25 356.1114,375.25 355.9395,375.3438 C355.4864,375.5781 354.8458,375.7188 354.0802,375.7188 C352.0802,375.7188 350.7989,374.7031 350.7989,373.125 L350.7989,372.0781 C350.7989,370.375 352.0177,369.1719 353.7208,369.1719 C354.2989,369.1719 354.877,369.3125 355.3458,369.5625 C355.8145,369.8281 355.9864,370.0156 356.0489,370.375 C356.1739,371.0469 356.4239,371.2969 356.9552,371.2969 C357.2364,371.2969 357.5177,371.1563 357.7052,370.9375 C357.8302,370.7656 357.877,370.5938 357.877,370.1563 L357.877,368.7969 C357.877,368.375 357.8614,368.2344 357.7364,368.0625 C357.5645,367.8125 357.2833,367.6563 356.9552,367.6563 C356.6427,367.6563 356.4395,367.7656 356.2208,368.0313 C355.0489,367.5313 354.6114,367.4219 353.6583,367.4219 C350.9864,367.4219 348.9708,369.4375 348.9708,372.0625 L348.9708,373.1563 Z " fill="#000000"/><text fill="#000000" font-family="sans-serif" font-size="14" lengthAdjust="spacing" textLength="29.5539" x="374.4708" y="376.606">User</text><line style="stroke:#181818;stroke-width:0.5;" x1="301.47" x2="444.5255" y1="388" y2="388"/><text fill="#000000" font-family="sans-serif" font-size="14" lengthAdjust="spacing" textLength="79.3657" x="306.47" y="405.0059">name: String</text><text fill="#000000" font-family="sans-serif" font-size="14" lengthAdjust="spacing" textLength="77.7977" x="306.47" y="421.8059">eMail: String</text><text fill="#000000" font-family="sans-serif" font-size="14" lengthAdjust="spacing" textLength="133.0555" x="306.47" y="438.6058">phoneNumber: String</text><line style="stroke:#181818;stroke-width:0.5;" x1="301.47" x2="444.5255" y1="446.3998" y2="446.3998"/></g><!--class Address--><g class="entity" data-qualified-name="Address" data-source-line="8" id="ent0003"><rect fill="#F1F1F1" height="131.9996" rx="2.5" ry="2.5" style="stroke:#181818;stroke-width:0.5;" width="138.8255" x="44.59" y="1285.8"/><ellipse cx="84.5532" cy="1301.8" fill="#ADD1B2" rx="11" ry="11" style="stroke:#181818;stroke-width:1;"/><path d="M79.5532,1302.9563 C79.5532,1305.4563 81.6938,1307.2688 84.6157,1307.2688 C85.85,1307.2688 87.0219,1306.9719 87.7719,1306.4563 C88.3813,1306.0344 88.7094,1305.6125 88.7094,1305.2063 C88.7094,1304.7375 88.2875,1304.3313 87.7875,1304.3313 C87.5532,1304.3313 87.3344,1304.4094 87.1313,1304.6125 C86.6938,1305.05 86.6938,1305.05 86.5219,1305.1438 C86.0688,1305.3781 85.4282,1305.5188 84.6625,1305.5188 C82.6625,1305.5188 81.3813,1304.5031 81.3813,1302.925 L81.3813,1301.8781 C81.3813,1300.175 82.6,1298.9719 84.3032,1298.9719 C84.8813,1298.9719 85.4594,1299.1125 85.9282,1299.3625 C86.3969,1299.6281 86.5688,1299.8156 86.6313,1300.175 C86.7563,1300.8469 87.0063,1301.0969 87.5375,1301.0969 C87.8188,1301.0969 88.1,1300.9563 88.2875,1300.7375 C88.4125,1300.5656 88.4594,1300.3938 88.4594,1299.9563 L88.4594,1298.5969 C88.4594,1298.175 88.4438,1298.0344 88.3188,1297.8625 C88.1469,1297.6125 87.8657,1297.4563 87.5375,1297.4563 C87.225,1297.4563 87.0219,1297.5656 86.8032,1297.8313 C85.6313,1297.3313 85.1938,1297.2219 84.2407,1297.2219 C81.5688,1297.2219 79.5532,1299.2375 79.5532,1301.8625 L79.5532,1302.9563 Z " fill="#000000"/><text fill="#000000" font-family="sans-serif" font-size="14" lengthAdjust="spacing" textLength="51.3518" x="104.1005" y="1306.406">Address</text><line style="stroke:#181818;stroke-width:0.5;" x1="45.59" x2="182.4155" y1="1317.8" y2="1317.8"/><text fill="#000000" font-family="sans-serif" font-size="14" lengthAdjust="spacing" textLength="114.3795" x="50.59" y="1334.8059">streetname: String</text><text fill="#000000" font-family="sans-serif" font-size="14" lengthAdjust="spacing" textLength="126.8255" x="50.59" y="1351.6059">streetnumber: String</text><text fill="#000000" font-family="sans-serif" font-size="14" lengthAdjust="spacing" textLength="91.0556" x="50.59" y="1368.4058">postalcode: Int</text><text fill="#000000" font-family="sans-serif" font-size="14" lengthAdjust="spacing" textLength="65.3517" x="50.59" y="1385.2057">city: String</text><text fill="#000000" font-family="sans-serif" font-size="14" lengthAdjust="spacing" textLength="90.2576" x="50.59" y="1402.0057">country: String</text><line style="stroke:#181818;stroke-width:0.5;" x1="45.59" x2="182.4155" y1="1409.7996" y2="1409.7996"/></g><!--class TestResult--><g class="entity" data-qualified-name="TestResult" data-source-line="10" id="ent0006"><rect fill="#F1F1F1" height="98.3998" rx="2.5" ry="2.5" style="stroke:#181818;stroke-width:0.5;" width="145.7974" x="272.1" y="515.4"/><ellipse cx="308.2013" cy="531.4" fill="#ADD1B2" rx="11" ry="11" style="stroke:#181818;stroke-width:1;"/><path d="M303.2013,532.5563 C303.2013,535.0563 305.3419,536.8688 308.2638,536.8688 C309.4982,536.8688 310.67,536.5719 311.42,536.0563 C312.0294,535.6344 312.3575,535.2125 312.3575,534.8063 C312.3575,534.3375 311.9357,533.9313 311.4357,533.9313 C311.2013,533.9313 310.9825,534.0094 310.7794,534.2125 C310.3419,534.65 310.3419,534.65 310.17,534.7438 C309.7169,534.9781 309.0763,535.1188 308.3107,535.1188 C306.3107,535.1188 305.0294,534.1031 305.0294,532.525 L305.0294,531.4781 C305.0294,529.775 306.2482,528.5719 307.9513,528.5719 C308.5294,528.5719 309.1075,528.7125 309.5763,528.9625 C310.045,529.2281 310.2169,529.4156 310.2794,529.775 C310.4044,530.4469 310.6544,530.6969 311.1857,530.6969 C311.4669,530.6969 311.7482,530.5563 311.9357,530.3375 C312.0607,530.1656 312.1075,529.9938 312.1075,529.5563 L312.1075,528.1969 C312.1075,527.775 312.0919,527.6344 311.9669,527.4625 C311.795,527.2125 311.5138,527.0563 311.1857,527.0563 C310.8732,527.0563 310.67,527.1656 310.4513,527.4313 C309.2794,526.9313 308.8419,526.8219 307.8888,526.8219 C305.2169,526.8219 303.2013,528.8375 303.2013,531.4625 L303.2013,532.5563 Z " fill="#000000"/><text fill="#000000" font-family="sans-serif" font-size="14" lengthAdjust="spacing" textLength="66.9057" x="326.8904" y="536.006">TestResult</text><line style="stroke:#181818;stroke-width:0.5;" x1="273.1" x2="416.8974" y1="547.4" y2="547.4"/><text fill="#000000" font-family="sans-serif" font-size="14" lengthAdjust="spacing" textLength="103.4596" x="278.1" y="564.4059">time: Timestamp</text><text fill="#000000" font-family="sans-serif" font-size="14" lengthAdjust="spacing" textLength="133.7974" x="278.1" y="581.2059">validUntil: Timestamp</text><text fill="#000000" font-family="sans-serif" font-size="14" lengthAdjust="spacing" textLength="126.0695" x="278.1" y="598.0058">invalidated: Boolean</text><line style="stroke:#181818;stroke-width:0.5;" x1="273.1" x2="416.8974" y1="605.7998" y2="605.7998"/></g><!--class Donor--><g class="entity" data-qualified-name="Donor" data-source-line="12" id="ent0008"><rect fill="#F1F1F1" height="64.7999" rx="2.5" ry="2.5" style="stroke:#181818;stroke-width:0.5;" width="275.6049" x="595.2" y="532.2"/><ellipse cx="709.6915" cy="548.2" fill="#ADD1B2" rx="11" ry="11" style="stroke:#181818;stroke-width:1;"/><path d="M704.6915,549.3562 C704.6915,551.8562 706.8322,553.6687 709.754,553.6687 C710.9884,553.6687 712.1603,553.3719 712.9103,552.8562 C713.5197,552.4344 713.8478,552.0125 713.8478,551.6062 C713.8478,551.1375 713.4259,550.7312 712.9259,550.7312 C712.6915,550.7312 712.4728,550.8094 712.2697,551.0125 C711.8322,551.45 711.8322,551.45 711.6603,551.5437 C711.2072,551.7781 710.5665,551.9187 709.8009,551.9187 C707.8009,551.9187 706.5197,550.9031 706.5197,549.325 L706.5197,548.2781 C706.5197,546.575 707.7384,545.3719 709.4415,545.3719 C710.0197,545.3719 710.5978,545.5125 711.0665,545.7625 C711.5353,546.0281 711.7072,546.2156 711.7697,546.575 C711.8947,547.2469 712.1447,547.4969 712.6759,547.4969 C712.9572,547.4969 713.2384,547.3562 713.4259,547.1375 C713.5509,546.9656 713.5978,546.7937 713.5978,546.3562 L713.5978,544.9969 C713.5978,544.575 713.5822,544.4344 713.4572,544.2625 C713.2853,544.0125 713.004,543.8562 712.6759,543.8562 C712.3634,543.8562 712.1603,543.9656 711.9415,544.2312 C710.7697,543.7312 710.3322,543.6219 709.379,543.6219 C706.7072,543.6219 704.6915,545.6375 704.6915,548.2625 L704.6915,549.3562 Z " fill="#000000"/><text fill="#000000" font-family="sans-serif" font-size="14" lengthAdjust="spacing" textLength="38.1218" x="730.1915" y="552.806">Donor</text><line style="stroke:#181818;stroke-width:0.5;" x1="596.2" x2="869.8049" y1="564.2" y2="564.2"/><text fill="#000000" font-family="sans-serif" font-size="14" lengthAdjust="spacing" textLength="263.6049" x="601.2" y="581.2059">comment: String // "about me/preferences"</text><line style="stroke:#181818;stroke-width:0.5;" x1="596.2" x2="869.8049" y1="588.9999" y2="588.9999"/></g><!--class Bloodtype--><g class="entity" data-qualified-name="Bloodtype" data-source-line="15" id="ent0010"><rect fill="#F1F1F1" height="182.3994" rx="2.5" ry="2.5" style="stroke:#181818;stroke-width:0.5;" width="94.2577" x="594.87" y="674.8"/><ellipse cx="609.87" cy="690.8" fill="#EB937F" rx="11" ry="11" style="stroke:#181818;stroke-width:1;"/><path d="M608.7294,691.8625 L610.0419,691.8625 L610.0419,691.9094 C610.0419,692.3156 610.0575,692.4719 610.1669,692.6281 C610.3388,692.8781 610.6356,693.05 610.9481,693.05 C611.2294,693.05 611.5263,692.9094 611.6981,692.6906 C611.8231,692.5031 611.87,692.3625 611.87,691.9094 L611.87,690.0656 C611.87,689.7375 611.8544,689.6281 611.7919,689.4563 C611.6825,689.1594 611.3231,688.9094 610.9481,688.9094 C610.6513,688.9094 610.3856,689.05 610.2138,689.2688 C610.0731,689.4563 610.0419,689.6281 610.0419,690.0656 L610.0419,690.1281 L608.7294,690.1281 L608.7294,687.9563 L612.5731,687.9563 L612.5731,688.7063 C612.5731,689.0969 612.6044,689.2844 612.7138,689.4406 C612.8856,689.6906 613.1825,689.8625 613.495,689.8625 C613.7919,689.8625 614.0575,689.7375 614.245,689.5031 C614.3856,689.3156 614.4169,689.175 614.4169,688.7063 L614.4169,686.2063 L606.7138,686.2063 C606.2606,686.2063 606.1356,686.2219 605.9638,686.3313 C605.6981,686.5031 605.5263,686.7688 605.5263,687.0813 C605.5263,687.3625 605.6513,687.6281 605.9013,687.8 C606.0888,687.925 606.2763,687.9563 606.7138,687.9563 L606.9013,687.9563 L606.9013,694.05 L606.7138,694.05 C606.2919,694.05 606.1356,694.0813 605.9638,694.175 C605.6981,694.3313 605.5263,694.6125 605.5263,694.9094 C605.5263,695.4875 605.9325,695.8 606.7138,695.8 L614.7919,695.8 L614.7919,693.2688 C614.7919,692.8625 614.7606,692.6906 614.6513,692.5344 C614.4794,692.2688 614.1981,692.1125 613.87,692.1125 C613.5888,692.1125 613.3075,692.2531 613.12,692.4719 C612.9794,692.6594 612.9481,692.8156 612.9481,693.2688 L612.9481,694.05 L608.7294,694.05 L608.7294,691.8625 Z " fill="#000000"/><text fill="#000000" font-family="sans-serif" font-size="14" lengthAdjust="spacing" textLength="62.2577" x="623.87" y="695.406">Bloodtype</text><line style="stroke:#181818;stroke-width:0.5;" x1="595.87" x2="688.1277" y1="706.8" y2="706.8"/><text fill="#000000" font-family="sans-serif" font-size="14" lengthAdjust="spacing" textLength="15.5539" x="600.87" y="723.8059">O-</text><text fill="#000000" font-family="sans-serif" font-size="14" lengthAdjust="spacing" textLength="19.0679" x="600.87" y="740.6059">O+</text><text fill="#000000" font-family="sans-serif" font-size="14" lengthAdjust="spacing" textLength="17.5139" x="600.87" y="757.4058">A+</text><text fill="#000000" font-family="sans-serif" font-size="14" lengthAdjust="spacing" textLength="14" x="600.87" y="774.2057">A-</text><text fill="#000000" font-family="sans-serif" font-size="14" lengthAdjust="spacing" textLength="17.5139" x="600.87" y="791.0057">B+</text><text fill="#000000" font-family="sans-serif" font-size="14" lengthAdjust="spacing" textLength="14" x="600.87" y="807.8056">B-</text><text fill="#000000" font-family="sans-serif" font-size="14" lengthAdjust="spacing" textLength="26.8519" x="600.87" y="824.6055">AB+</text><text fill="#000000" font-family="sans-serif" font-size="14" lengthAdjust="spacing" textLength="23.3379" x="600.87" y="841.4054">AB-</text><line style="stroke:#181818;stroke-width:0.5;" x1="595.87" x2="688.1277" y1="849.1994" y2="849.1994"/></g><!--class DonationPreference--><g class="entity" data-qualified-name="DonationPreference" data-source-line="26" id="ent0011"><rect fill="#F1F1F1" height="81.5999" rx="2.5" ry="2.5" style="stroke:#181818;stroke-width:0.5;" width="199.5152" x="724.24" y="725.2"/><ellipse cx="758.5962" cy="741.2" fill="#ADD1B2" rx="11" ry="11" style="stroke:#181818;stroke-width:1;"/><path d="M753.5962,742.3562 C753.5962,744.8562 755.7368,746.6687 758.6587,746.6687 C759.8931,746.6687 761.0649,746.3719 761.8149,745.8562 C762.4243,745.4344 762.7524,745.0125 762.7524,744.6062 C762.7524,744.1375 762.3306,743.7312 761.8306,743.7312 C761.5962,743.7312 761.3774,743.8094 761.1743,744.0125 C760.7368,744.45 760.7368,744.45 760.5649,744.5437 C760.1118,744.7781 759.4712,744.9187 758.7056,744.9187 C756.7056,744.9187 755.4243,743.9031 755.4243,742.325 L755.4243,741.2781 C755.4243,739.575 756.6431,738.3719 758.3462,738.3719 C758.9243,738.3719 759.5024,738.5125 759.9712,738.7625 C760.4399,739.0281 760.6118,739.2156 760.6743,739.575 C760.7993,740.2469 761.0493,740.4969 761.5806,740.4969 C761.8618,740.4969 762.1431,740.3562 762.3306,740.1375 C762.4556,739.9656 762.5024,739.7937 762.5024,739.3562 L762.5024,737.9969 C762.5024,737.575 762.4868,737.4344 762.3618,737.2625 C762.1899,737.0125 761.9087,736.8562 761.5806,736.8562 C761.2681,736.8562 761.0649,736.9656 760.8462,737.2312 C759.6743,736.7312 759.2368,736.6219 758.2837,736.6219 C755.6118,736.6219 753.5962,738.6375 753.5962,741.2625 L753.5962,742.3562 Z " fill="#000000"/><text fill="#000000" font-family="sans-serif" font-size="14" lengthAdjust="spacing" textLength="124.5015" x="776.8976" y="745.806">DonationPreference</text><line style="stroke:#181818;stroke-width:0.5;" x1="725.24" x2="922.7552" y1="757.2" y2="757.2"/><text fill="#000000" font-family="sans-serif" font-size="14" lengthAdjust="spacing" textLength="116.6895" x="730.24" y="774.2059">interval: DeltaTime</text><text fill="#000000" font-family="sans-serif" font-size="14" lengthAdjust="spacing" textLength="187.5152" x="730.24" y="791.0059">slotPreferences: String // Cron</text><line style="stroke:#181818;stroke-width:0.5;" x1="725.24" x2="922.7552" y1="798.7999" y2="798.7999"/></g><!--class Bloodbank--><g class="entity" data-qualified-name="Bloodbank" data-source-line="32" id="ent0013"><rect fill="#F1F1F1" height="98.3998" rx="2.5" ry="2.5" style="stroke:#181818;stroke-width:0.5;" width="264.1109" x="707.94" y="934.2"/><ellipse cx="802.6706" cy="950.2" fill="#ADD1B2" rx="11" ry="11" style="stroke:#181818;stroke-width:1;"/><path d="M797.6706,951.3562 C797.6706,953.8562 799.8112,955.6687 802.7331,955.6687 C803.9675,955.6687 805.1393,955.3719 805.8893,954.8562 C806.4987,954.4344 806.8268,954.0125 806.8268,953.6062 C806.8268,953.1375 806.405,952.7312 805.905,952.7312 C805.6706,952.7312 805.4518,952.8094 805.2487,953.0125 C804.8112,953.45 804.8112,953.45 804.6393,953.5437 C804.1862,953.7781 803.5456,953.9187 802.78,953.9187 C800.78,953.9187 799.4987,952.9031 799.4987,951.325 L799.4987,950.2781 C799.4987,948.575 800.7175,947.3719 802.4206,947.3719 C802.9987,947.3719 803.5768,947.5125 804.0456,947.7625 C804.5143,948.0281 804.6862,948.2156 804.7487,948.575 C804.8737,949.2469 805.1237,949.4969 805.655,949.4969 C805.9362,949.4969 806.2175,949.3562 806.405,949.1375 C806.53,948.9656 806.5768,948.7937 806.5768,948.3562 L806.5768,946.9969 C806.5768,946.575 806.5612,946.4344 806.4362,946.2625 C806.2643,946.0125 805.9831,945.8562 805.655,945.8562 C805.3425,945.8562 805.1393,945.9656 804.9206,946.2312 C803.7487,945.7312 803.3112,945.6219 802.3581,945.6219 C799.6862,945.6219 797.6706,947.6375 797.6706,950.2625 L797.6706,951.3562 Z " fill="#000000"/><text fill="#000000" font-family="sans-serif" font-size="14" lengthAdjust="spacing" textLength="66.1497" x="823.1706" y="954.806">Bloodbank</text><line style="stroke:#181818;stroke-width:0.5;" x1="708.94" x2="971.0509" y1="966.2" y2="966.2"/><text fill="#000000" font-family="sans-serif" font-size="14" lengthAdjust="spacing" textLength="79.3657" x="713.94" y="983.2059">name: String</text><text fill="#000000" font-family="sans-serif" font-size="14" lengthAdjust="spacing" textLength="189.0972" x="713.94" y="1000.0059">// A blood bus is represnted by</text><text fill="#000000" font-family="sans-serif" font-size="14" lengthAdjust="spacing" textLength="252.1109" x="713.94" y="1016.8058">// multiple bloodbanks with diffent names</text><line style="stroke:#181818;stroke-width:0.5;" x1="708.94" x2="971.0509" y1="1024.5998" y2="1024.5998"/></g><!--class Form--><g class="entity" data-qualified-name="Form" data-source-line="40" id="ent0015"><rect fill="#F1F1F1" height="64.7999" rx="2.5" ry="2.5" style="stroke:#181818;stroke-width:0.5;" width="147.4074" x="270.3" y="733.6"/><ellipse cx="323.4228" cy="749.6" fill="#ADD1B2" rx="11" ry="11" style="stroke:#181818;stroke-width:1;"/><path d="M318.4228,750.7562 C318.4228,753.2562 320.5634,755.0687 323.4853,755.0687 C324.7196,755.0687 325.8915,754.7719 326.6415,754.2562 C327.2509,753.8344 327.579,753.4125 327.579,753.0062 C327.579,752.5375 327.1571,752.1312 326.6571,752.1312 C326.4228,752.1312 326.204,752.2094 326.0009,752.4125 C325.5634,752.85 325.5634,752.85 325.3915,752.9437 C324.9384,753.1781 324.2978,753.3187 323.5321,753.3187 C321.5321,753.3187 320.2509,752.3031 320.2509,750.725 L320.2509,749.6781 C320.2509,747.975 321.4696,746.7719 323.1728,746.7719 C323.7509,746.7719 324.329,746.9125 324.7978,747.1625 C325.2665,747.4281 325.4384,747.6156 325.5009,747.975 C325.6259,748.6469 325.8759,748.8969 326.4071,748.8969 C326.6884,748.8969 326.9696,748.7562 327.1571,748.5375 C327.2821,748.3656 327.329,748.1937 327.329,747.7562 L327.329,746.3969 C327.329,745.975 327.3134,745.8344 327.1884,745.6625 C327.0165,745.4125 326.7353,745.2562 326.4071,745.2562 C326.0946,745.2562 325.8915,745.3656 325.6728,745.6312 C324.5009,745.1312 324.0634,745.0219 323.1103,745.0219 C320.4384,745.0219 318.4228,747.0375 318.4228,749.6625 L318.4228,750.7562 Z " fill="#000000"/><text fill="#000000" font-family="sans-serif" font-size="14" lengthAdjust="spacing" textLength="32.6619" x="343.9228" y="754.206">Form</text><line style="stroke:#181818;stroke-width:0.5;" x1="271.3" x2="416.7074" y1="765.6" y2="765.6"/><text fill="#000000" font-family="sans-serif" font-size="14" lengthAdjust="spacing" textLength="135.4074" x="276.3" y="782.6059">okToDonate: Boolean</text><line style="stroke:#181818;stroke-width:0.5;" x1="271.3" x2="416.7074" y1="790.3999" y2="790.3999"/></g><!--class EntryForm--><g class="entity" data-qualified-name="EntryForm" data-source-line="46" id="ent0017"><rect fill="#F1F1F1" height="48" rx="2.5" ry="2.5" style="stroke:#181818;stroke-width:0.5;" width="97.3378" x="167.33" y="959.4"/><ellipse cx="182.33" cy="975.4" fill="#ADD1B2" rx="11" ry="11" style="stroke:#181818;stroke-width:1;"/><path d="M177.33,976.5563 C177.33,979.0563 179.4706,980.8688 182.3925,980.8688 C183.6269,980.8688 184.7988,980.5719 185.5488,980.0563 C186.1581,979.6344 186.4863,979.2125 186.4863,978.8063 C186.4863,978.3375 186.0644,977.9313 185.5644,977.9313 C185.33,977.9313 185.1113,978.0094 184.9081,978.2125 C184.4706,978.65 184.4706,978.65 184.2988,978.7438 C183.8456,978.9781 183.205,979.1188 182.4394,979.1188 C180.4394,979.1188 179.1581,978.1031 179.1581,976.525 L179.1581,975.4781 C179.1581,973.775 180.3769,972.5719 182.08,972.5719 C182.6581,972.5719 183.2363,972.7125 183.705,972.9625 C184.1738,973.2281 184.3456,973.4156 184.4081,973.775 C184.5331,974.4469 184.7831,974.6969 185.3144,974.6969 C185.5956,974.6969 185.8769,974.5563 186.0644,974.3375 C186.1894,974.1656 186.2363,973.9938 186.2363,973.5563 L186.2363,972.1969 C186.2363,971.775 186.2206,971.6344 186.0956,971.4625 C185.9238,971.2125 185.6425,971.0563 185.3144,971.0563 C185.0019,971.0563 184.7988,971.1656 184.58,971.4313 C183.4081,970.9313 182.9706,970.8219 182.0175,970.8219 C179.3456,970.8219 177.33,972.8375 177.33,975.4625 L177.33,976.5563 Z " fill="#000000"/><text fill="#000000" font-family="sans-serif" font-size="14" lengthAdjust="spacing" textLength="65.3378" x="196.33" y="980.006">EntryForm</text><line style="stroke:#181818;stroke-width:0.5;" x1="168.33" x2="263.6678" y1="991.4" y2="991.4"/><line style="stroke:#181818;stroke-width:0.5;" x1="168.33" x2="263.6678" y1="999.4" y2="999.4"/></g><!--class Interview--><g class="entity" data-qualified-name="Interview" data-source-line="50" id="ent0019"><rect fill="#F1F1F1" height="48" rx="2.5" ry="2.5" style="stroke:#181818;stroke-width:0.5;" width="88.0138" x="299.99" y="959.4"/><ellipse cx="314.99" cy="975.4" fill="#ADD1B2" rx="11" ry="11" style="stroke:#181818;stroke-width:1;"/><path d="M309.99,976.5563 C309.99,979.0563 312.1306,980.8688 315.0525,980.8688 C316.2869,980.8688 317.4588,980.5719 318.2088,980.0563 C318.8181,979.6344 319.1463,979.2125 319.1463,978.8063 C319.1463,978.3375 318.7244,977.9313 318.2244,977.9313 C317.99,977.9313 317.7713,978.0094 317.5681,978.2125 C317.1306,978.65 317.1306,978.65 316.9588,978.7438 C316.5056,978.9781 315.865,979.1188 315.0994,979.1188 C313.0994,979.1188 311.8181,978.1031 311.8181,976.525 L311.8181,975.4781 C311.8181,973.775 313.0369,972.5719 314.74,972.5719 C315.3181,972.5719 315.8963,972.7125 316.365,972.9625 C316.8338,973.2281 317.0056,973.4156 317.0681,973.775 C317.1931,974.4469 317.4431,974.6969 317.9744,974.6969 C318.2556,974.6969 318.5369,974.5563 318.7244,974.3375 C318.8494,974.1656 318.8963,973.9938 318.8963,973.5563 L318.8963,972.1969 C318.8963,971.775 318.8806,971.6344 318.7556,971.4625 C318.5838,971.2125 318.3025,971.0563 317.9744,971.0563 C317.6619,971.0563 317.4588,971.1656 317.24,971.4313 C316.0681,970.9313 315.6306,970.8219 314.6775,970.8219 C312.0056,970.8219 309.99,972.8375 309.99,975.4625 L309.99,976.5563 Z " fill="#000000"/><text fill="#000000" font-family="sans-serif" font-size="14" lengthAdjust="spacing" textLength="56.0138" x="328.99" y="980.006">Interview</text><line style="stroke:#181818;stroke-width:0.5;" x1="300.99" x2="387.0038" y1="991.4" y2="991.4"/><line style="stroke:#181818;stroke-width:0.5;" x1="300.99" x2="387.0038" y1="999.4" y2="999.4"/></g><!--class Admin--><g class="entity" data-qualified-name="Admin" data-source-line="53" id="ent0021"><rect fill="#F1F1F1" height="48" rx="2.5" ry="2.5" style="stroke:#181818;stroke-width:0.5;" width="71.6758" x="538.16" y="1143.2"/><ellipse cx="553.16" cy="1159.2" fill="#ADD1B2" rx="11" ry="11" style="stroke:#181818;stroke-width:1;"/><path d="M548.16,1160.3563 C548.16,1162.8563 550.3006,1164.6688 553.2225,1164.6688 C554.4569,1164.6688 555.6288,1164.3719 556.3788,1163.8563 C556.9881,1163.4344 557.3163,1163.0125 557.3163,1162.6063 C557.3163,1162.1375 556.8944,1161.7313 556.3944,1161.7313 C556.16,1161.7313 555.9413,1161.8094 555.7381,1162.0125 C555.3006,1162.45 555.3006,1162.45 555.1288,1162.5438 C554.6756,1162.7781 554.035,1162.9188 553.2694,1162.9188 C551.2694,1162.9188 549.9881,1161.9031 549.9881,1160.325 L549.9881,1159.2781 C549.9881,1157.575 551.2069,1156.3719 552.91,1156.3719 C553.4881,1156.3719 554.0663,1156.5125 554.535,1156.7625 C555.0038,1157.0281 555.1756,1157.2156 555.2381,1157.575 C555.3631,1158.2469 555.6131,1158.4969 556.1444,1158.4969 C556.4256,1158.4969 556.7069,1158.3563 556.8944,1158.1375 C557.0194,1157.9656 557.0663,1157.7938 557.0663,1157.3563 L557.0663,1155.9969 C557.0663,1155.575 557.0506,1155.4344 556.9256,1155.2625 C556.7538,1155.0125 556.4725,1154.8563 556.1444,1154.8563 C555.8319,1154.8563 555.6288,1154.9656 555.41,1155.2313 C554.2381,1154.7313 553.8006,1154.6219 552.8475,1154.6219 C550.1756,1154.6219 548.16,1156.6375 548.16,1159.2625 L548.16,1160.3563 Z " fill="#000000"/><text fill="#000000" font-family="sans-serif" font-size="14" lengthAdjust="spacing" textLength="39.6758" x="567.16" y="1163.806">Admin</text><line style="stroke:#181818;stroke-width:0.5;" x1="539.16" x2="608.8358" y1="1175.2" y2="1175.2"/><line style="stroke:#181818;stroke-width:0.5;" x1="539.16" x2="608.8358" y1="1183.2" y2="1183.2"/></g><!--class DonationTest--><g class="entity" data-qualified-name="DonationTest" data-source-line="55" id="ent0023"><rect fill="#F1F1F1" height="48" rx="2.5" ry="2.5" style="stroke:#181818;stroke-width:0.5;" width="115.2576" x="423.37" y="959.4"/><ellipse cx="438.37" cy="975.4" fill="#ADD1B2" rx="11" ry="11" style="stroke:#181818;stroke-width:1;"/><path d="M433.37,976.5563 C433.37,979.0563 435.5106,980.8688 438.4325,980.8688 C439.6669,980.8688 440.8388,980.5719 441.5888,980.0563 C442.1981,979.6344 442.5263,979.2125 442.5263,978.8063 C442.5263,978.3375 442.1044,977.9313 441.6044,977.9313 C441.37,977.9313 441.1513,978.0094 440.9481,978.2125 C440.5106,978.65 440.5106,978.65 440.3388,978.7438 C439.8856,978.9781 439.245,979.1188 438.4794,979.1188 C436.4794,979.1188 435.1981,978.1031 435.1981,976.525 L435.1981,975.4781 C435.1981,973.775 436.4169,972.5719 438.12,972.5719 C438.6981,972.5719 439.2763,972.7125 439.745,972.9625 C440.2138,973.2281 440.3856,973.4156 440.4481,973.775 C440.5731,974.4469 440.8231,974.6969 441.3544,974.6969 C441.6356,974.6969 441.9169,974.5563 442.1044,974.3375 C442.2294,974.1656 442.2763,973.9938 442.2763,973.5563 L442.2763,972.1969 C442.2763,971.775 442.2606,971.6344 442.1356,971.4625 C441.9638,971.2125 441.6825,971.0563 441.3544,971.0563 C441.0419,971.0563 440.8388,971.1656 440.62,971.4313 C439.4481,970.9313 439.0106,970.8219 438.0575,970.8219 C435.3856,970.8219 433.37,972.8375 433.37,975.4625 L433.37,976.5563 Z " fill="#000000"/><text fill="#000000" font-family="sans-serif" font-size="14" lengthAdjust="spacing" textLength="83.2576" x="452.37" y="980.006">DonationTest</text><line style="stroke:#181818;stroke-width:0.5;" x1="424.37" x2="537.6276" y1="991.4" y2="991.4"/><line style="stroke:#181818;stroke-width:0.5;" x1="424.37" x2="537.6276" y1="999.4" y2="999.4"/></g><!--class Note--><g class="entity" data-qualified-name="Note" data-source-line="66" id="ent0029"><rect fill="#F1F1F1" height="81.5999" rx="2.5" ry="2.5" style="stroke:#181818;stroke-width:0.5;" width="115.4596" x="395.27" y="132.8"/><ellipse cx="434.5213" cy="148.8" fill="#ADD1B2" rx="11" ry="11" style="stroke:#181818;stroke-width:1;"/><path d="M429.5213,149.9562 C429.5213,152.4562 431.6619,154.2687 434.5838,154.2687 C435.8181,154.2687 436.99,153.9719 437.74,153.4562 C438.3494,153.0344 438.6775,152.6125 438.6775,152.2062 C438.6775,151.7375 438.2556,151.3312 437.7556,151.3312 C437.5213,151.3312 437.3025,151.4094 437.0994,151.6125 C436.6619,152.05 436.6619,152.05 436.49,152.1437 C436.0369,152.3781 435.3963,152.5187 434.6306,152.5187 C432.6306,152.5187 431.3494,151.5031 431.3494,149.925 L431.3494,148.8781 C431.3494,147.175 432.5681,145.9719 434.2713,145.9719 C434.8494,145.9719 435.4275,146.1125 435.8963,146.3625 C436.365,146.6281 436.5369,146.8156 436.5994,147.175 C436.7244,147.8469 436.9744,148.0969 437.5056,148.0969 C437.7869,148.0969 438.0681,147.9562 438.2556,147.7375 C438.3806,147.5656 438.4275,147.3937 438.4275,146.9562 L438.4275,145.5969 C438.4275,145.175 438.4119,145.0344 438.2869,144.8625 C438.115,144.6125 437.8338,144.4562 437.5056,144.4562 C437.1931,144.4562 436.99,144.5656 436.7713,144.8312 C435.5994,144.3312 435.1619,144.2219 434.2088,144.2219 C431.5369,144.2219 429.5213,146.2375 429.5213,148.8625 L429.5213,149.9562 Z " fill="#000000"/><text fill="#000000" font-family="sans-serif" font-size="14" lengthAdjust="spacing" textLength="29.5679" x="453.9104" y="153.406">Note</text><line style="stroke:#181818;stroke-width:0.5;" x1="396.27" x2="509.7296" y1="164.8" y2="164.8"/><text fill="#000000" font-family="sans-serif" font-size="14" lengthAdjust="spacing" textLength="103.4596" x="401.27" y="181.8059">time: Timestamp</text><text fill="#000000" font-family="sans-serif" font-size="14" lengthAdjust="spacing" textLength="101.1496" x="401.27" y="198.6059">message: String</text><line style="stroke:#181818;stroke-width:0.5;" x1="396.27" x2="509.7296" y1="206.3999" y2="206.3999"/></g><!--class Appointment--><g class="entity" data-qualified-name="Appointment" data-source-line="71" id="ent0030"><rect fill="#F1F1F1" height="64.7999" rx="2.5" ry="2.5" style="stroke:#181818;stroke-width:0.5;" width="130.2855" x="599.86" y="7"/><ellipse cx="623.7204" cy="23" fill="#ADD1B2" rx="11" ry="11" style="stroke:#181818;stroke-width:1;"/><path d="M618.7204,24.1563 C618.7204,26.6563 620.861,28.4688 623.7829,28.4688 C625.0173,28.4688 626.1892,28.1719 626.9392,27.6563 C627.5485,27.2344 627.8767,26.8125 627.8767,26.4063 C627.8767,25.9375 627.4548,25.5313 626.9548,25.5313 C626.7204,25.5313 626.5017,25.6094 626.2985,25.8125 C625.861,26.25 625.861,26.25 625.6892,26.3438 C625.236,26.5781 624.5954,26.7188 623.8298,26.7188 C621.8298,26.7188 620.5485,25.7031 620.5485,24.125 L620.5485,23.0781 C620.5485,21.375 621.7673,20.1719 623.4704,20.1719 C624.0485,20.1719 624.6267,20.3125 625.0954,20.5625 C625.5642,20.8281 625.736,21.0156 625.7985,21.375 C625.9235,22.0469 626.1735,22.2969 626.7048,22.2969 C626.986,22.2969 627.2673,22.1563 627.4548,21.9375 C627.5798,21.7656 627.6267,21.5938 627.6267,21.1563 L627.6267,19.7969 C627.6267,19.375 627.611,19.2344 627.486,19.0625 C627.3142,18.8125 627.0329,18.6563 626.7048,18.6563 C626.3923,18.6563 626.1892,18.7656 625.9704,19.0313 C624.7985,18.5313 624.361,18.4219 623.4079,18.4219 C620.736,18.4219 618.7204,20.4375 618.7204,23.0625 L618.7204,24.1563 Z " fill="#000000"/><text fill="#000000" font-family="sans-serif" font-size="14" lengthAdjust="spacing" textLength="78.5957" x="639.6894" y="27.606">Appointment</text><line style="stroke:#181818;stroke-width:0.5;" x1="600.86" x2="729.1455" y1="39" y2="39"/><text fill="#000000" font-family="sans-serif" font-size="14" lengthAdjust="spacing" textLength="118.2855" x="605.86" y="56.0059">cancelled: Boolean</text><line style="stroke:#181818;stroke-width:0.5;" x1="600.86" x2="729.1455" y1="63.7999" y2="63.7999"/></g><!--class Donation--><g class="entity" data-qualified-name="Donation" data-source-line="78" id="ent0033"><rect fill="#F1F1F1" height="81.5999" rx="2.5" ry="2.5" style="stroke:#181818;stroke-width:0.5;" width="185.5153" x="473.24" y="244.4"/><ellipse cx="533.7338" cy="260.4" fill="#ADD1B2" rx="11" ry="11" style="stroke:#181818;stroke-width:1;"/><path d="M528.7338,261.5562 C528.7338,264.0562 530.8744,265.8687 533.7963,265.8687 C535.0306,265.8687 536.2025,265.5719 536.9525,265.0562 C537.5619,264.6344 537.89,264.2125 537.89,263.8062 C537.89,263.3375 537.4681,262.9312 536.9681,262.9312 C536.7338,262.9312 536.515,263.0094 536.3119,263.2125 C535.8744,263.65 535.8744,263.65 535.7025,263.7437 C535.2494,263.9781 534.6088,264.1187 533.8431,264.1187 C531.8431,264.1187 530.5619,263.1031 530.5619,261.525 L530.5619,260.4781 C530.5619,258.775 531.7806,257.5719 533.4838,257.5719 C534.0619,257.5719 534.64,257.7125 535.1088,257.9625 C535.5775,258.2281 535.7494,258.4156 535.8119,258.775 C535.9369,259.4469 536.1869,259.6969 536.7181,259.6969 C536.9994,259.6969 537.2806,259.5562 537.4681,259.3375 C537.5931,259.1656 537.64,258.9937 537.64,258.5562 L537.64,257.1969 C537.64,256.775 537.6244,256.6344 537.4994,256.4625 C537.3275,256.2125 537.0463,256.0562 536.7181,256.0562 C536.4056,256.0562 536.2025,256.1656 535.9838,256.4312 C534.8119,255.9312 534.3744,255.8219 533.4213,255.8219 C530.7494,255.8219 528.7338,257.8375 528.7338,260.4625 L528.7338,261.5562 Z " fill="#000000"/><text fill="#000000" font-family="sans-serif" font-size="14" lengthAdjust="spacing" textLength="56.0278" x="554.2338" y="265.006">Donation</text><line style="stroke:#181818;stroke-width:0.5;" x1="474.24" x2="657.7553" y1="276.4" y2="276.4"/><text fill="#000000" font-family="sans-serif" font-size="14" lengthAdjust="spacing" textLength="112.0415" x="479.24" y="293.4059">amountInMl: Float</text><text fill="#000000" font-family="sans-serif" font-size="14" lengthAdjust="spacing" textLength="173.5153" x="479.24" y="310.2059">isBloodNotPlasma: Boolean</text><line style="stroke:#181818;stroke-width:0.5;" x1="474.24" x2="657.7553" y1="317.9999" y2="317.9999"/></g><!--class Bookingslot--><g class="entity" data-qualified-name="Bookingslot" data-source-line="86" id="ent0036"><rect fill="#F1F1F1" height="115.1997" rx="2.5" ry="2.5" style="stroke:#181818;stroke-width:0.5;" width="211.2331" x="999.38" y="1109.6"/><ellipse cx="1064.5637" cy="1125.6" fill="#ADD1B2" rx="11" ry="11" style="stroke:#181818;stroke-width:1;"/><path d="M1059.5637,1126.7563 C1059.5637,1129.2563 1061.7043,1131.0688 1064.6262,1131.0688 C1065.8606,1131.0688 1067.0325,1130.7719 1067.7825,1130.2563 C1068.3918,1129.8344 1068.72,1129.4125 1068.72,1129.0063 C1068.72,1128.5375 1068.2981,1128.1313 1067.7981,1128.1313 C1067.5637,1128.1313 1067.345,1128.2094 1067.1418,1128.4125 C1066.7043,1128.85 1066.7043,1128.85 1066.5325,1128.9438 C1066.0793,1129.1781 1065.4387,1129.3188 1064.6731,1129.3188 C1062.6731,1129.3188 1061.3918,1128.3031 1061.3918,1126.725 L1061.3918,1125.6781 C1061.3918,1123.975 1062.6106,1122.7719 1064.3137,1122.7719 C1064.8918,1122.7719 1065.47,1122.9125 1065.9387,1123.1625 C1066.4075,1123.4281 1066.5793,1123.6156 1066.6418,1123.975 C1066.7668,1124.6469 1067.0168,1124.8969 1067.5481,1124.8969 C1067.8293,1124.8969 1068.1106,1124.7563 1068.2981,1124.5375 C1068.4231,1124.3656 1068.47,1124.1938 1068.47,1123.7563 L1068.47,1122.3969 C1068.47,1121.975 1068.4543,1121.8344 1068.3293,1121.6625 C1068.1575,1121.4125 1067.8762,1121.2563 1067.5481,1121.2563 C1067.2356,1121.2563 1067.0325,1121.3656 1066.8137,1121.6313 C1065.6418,1121.1313 1065.2043,1121.0219 1064.2512,1121.0219 C1061.5793,1121.0219 1059.5637,1123.0375 1059.5637,1125.6625 L1059.5637,1126.7563 Z " fill="#000000"/><text fill="#000000" font-family="sans-serif" font-size="14" lengthAdjust="spacing" textLength="72.3657" x="1085.0637" y="1130.206">Bookingslot</text><line style="stroke:#181818;stroke-width:0.5;" x1="1000.38" x2="1209.6131" y1="1141.6" y2="1141.6"/><text fill="#000000" font-family="sans-serif" font-size="14" lengthAdjust="spacing" textLength="103.4596" x="1005.38" y="1158.6059">time: Timestamp</text><text fill="#000000" font-family="sans-serif" font-size="14" lengthAdjust="spacing" textLength="133.0554" x="1005.38" y="1175.4059">// Time has to fall into</text><text fill="#000000" font-family="sans-serif" font-size="14" lengthAdjust="spacing" textLength="199.2331" x="1005.38" y="1192.2058">// the bloodbanks opening hours</text><text fill="#000000" font-family="sans-serif" font-size="14" lengthAdjust="spacing" textLength="74.7037" x="1005.38" y="1209.0057">capacity: Int</text><line style="stroke:#181818;stroke-width:0.5;" x1="1000.38" x2="1209.6131" y1="1216.7997" y2="1216.7997"/></g><!--class Location--><g class="entity" data-qualified-name="Location" data-source-line="105" id="ent0040"><rect fill="#F1F1F1" height="81.5999" rx="2.5" ry="2.5" style="stroke:#181818;stroke-width:0.5;" width="107.7176" x="645.14" y="1126.4"/><ellipse cx="670.399" cy="1142.4" fill="#ADD1B2" rx="11" ry="11" style="stroke:#181818;stroke-width:1;"/><path d="M665.399,1143.5562 C665.399,1146.0562 667.5396,1147.8687 670.4615,1147.8687 C671.6959,1147.8687 672.8678,1147.5719 673.6178,1147.0562 C674.2271,1146.6344 674.5553,1146.2125 674.5553,1145.8062 C674.5553,1145.3375 674.1334,1144.9312 673.6334,1144.9312 C673.399,1144.9312 673.1803,1145.0094 672.9771,1145.2125 C672.5396,1145.65 672.5396,1145.65 672.3678,1145.7437 C671.9146,1145.9781 671.274,1146.1187 670.5084,1146.1187 C668.5084,1146.1187 667.2271,1145.1031 667.2271,1143.525 L667.2271,1142.4781 C667.2271,1140.775 668.4459,1139.5719 670.149,1139.5719 C670.7271,1139.5719 671.3053,1139.7125 671.774,1139.9625 C672.2428,1140.2281 672.4146,1140.4156 672.4771,1140.775 C672.6021,1141.4469 672.8521,1141.6969 673.3834,1141.6969 C673.6646,1141.6969 673.9459,1141.5562 674.1334,1141.3375 C674.2584,1141.1656 674.3053,1140.9937 674.3053,1140.5562 L674.3053,1139.1969 C674.3053,1138.775 674.2896,1138.6344 674.1646,1138.4625 C673.9928,1138.2125 673.7115,1138.0562 673.3834,1138.0562 C673.0709,1138.0562 672.8678,1138.1656 672.649,1138.4312 C671.4771,1137.9312 671.0396,1137.8219 670.0865,1137.8219 C667.4146,1137.8219 665.399,1139.8375 665.399,1142.4625 L665.399,1143.5562 Z " fill="#000000"/><text fill="#000000" font-family="sans-serif" font-size="14" lengthAdjust="spacing" textLength="52.9198" x="686.6788" y="1147.006">Location</text><line style="stroke:#181818;stroke-width:0.5;" x1="646.14" x2="751.8576" y1="1158.4" y2="1158.4"/><text fill="#000000" font-family="sans-serif" font-size="14" lengthAdjust="spacing" textLength="95.7176" x="651.14" y="1175.4059">longitude: Float</text><text fill="#000000" font-family="sans-serif" font-size="14" lengthAdjust="spacing" textLength="84.0416" x="651.14" y="1192.2059">latitude: Float</text><line style="stroke:#181818;stroke-width:0.5;" x1="646.14" x2="751.8576" y1="1199.9999" y2="1199.9999"/></g><!--class Timerange--><g class="entity" data-qualified-name="Timerange" data-source-line="122" id="ent0043"><rect fill="#F1F1F1" height="81.5999" rx="2.5" ry="2.5" style="stroke:#181818;stroke-width:0.5;" width="136.5015" x="787.75" y="1126.4"/><ellipse cx="819.6681" cy="1142.4" fill="#ADD1B2" rx="11" ry="11" style="stroke:#181818;stroke-width:1;"/><path d="M814.6681,1143.5562 C814.6681,1146.0562 816.8087,1147.8687 819.7306,1147.8687 C820.965,1147.8687 822.1368,1147.5719 822.8868,1147.0562 C823.4962,1146.6344 823.8243,1146.2125 823.8243,1145.8062 C823.8243,1145.3375 823.4025,1144.9312 822.9025,1144.9312 C822.6681,1144.9312 822.4493,1145.0094 822.2462,1145.2125 C821.8087,1145.65 821.8087,1145.65 821.6368,1145.7437 C821.1837,1145.9781 820.5431,1146.1187 819.7775,1146.1187 C817.7775,1146.1187 816.4962,1145.1031 816.4962,1143.525 L816.4962,1142.4781 C816.4962,1140.775 817.715,1139.5719 819.4181,1139.5719 C819.9962,1139.5719 820.5743,1139.7125 821.0431,1139.9625 C821.5118,1140.2281 821.6837,1140.4156 821.7462,1140.775 C821.8712,1141.4469 822.1212,1141.6969 822.6525,1141.6969 C822.9337,1141.6969 823.215,1141.5562 823.4025,1141.3375 C823.5275,1141.1656 823.5743,1140.9937 823.5743,1140.5562 L823.5743,1139.1969 C823.5743,1138.775 823.5587,1138.6344 823.4337,1138.4625 C823.2618,1138.2125 822.9806,1138.0562 822.6525,1138.0562 C822.34,1138.0562 822.1368,1138.1656 821.9181,1138.4312 C820.7462,1137.9312 820.3087,1137.8219 819.3556,1137.8219 C816.6837,1137.8219 814.6681,1139.8375 814.6681,1142.4625 L814.6681,1143.5562 Z " fill="#000000"/><text fill="#000000" font-family="sans-serif" font-size="14" lengthAdjust="spacing" textLength="66.9057" x="837.4277" y="1147.006">Timerange</text><line style="stroke:#181818;stroke-width:0.5;" x1="788.75" x2="923.2515" y1="1158.4" y2="1158.4"/><text fill="#000000" font-family="sans-serif" font-size="14" lengthAdjust="spacing" textLength="124.5015" x="793.75" y="1175.4059">openingCron: String</text><text fill="#000000" font-family="sans-serif" font-size="14" lengthAdjust="spacing" textLength="118.2575" x="793.75" y="1192.2059">closingCron: String</text><line style="stroke:#181818;stroke-width:0.5;" x1="788.75" x2="923.2515" y1="1199.9999" y2="1199.9999"/></g><!--link User to Address--><g class="link" data-entity-1="ent0002" data-entity-2="ent0003" data-link-type="dependency" data-source-line="8" id="lnk4"><path codeLine="8" d="M300.16,418.34 C223.56,435.76 114,475.99 114,563.6 C114,563.6 114,563.6 114,1168.2 C114,1207.03 114,1244.51 114,1279.3" fill="none" id="User-to-Address" style="stroke:#181818;stroke-width:1;"/><polygon fill="#181818" points="114,1285.3,118,1276.3,114,1280.3,110,1276.3,114,1285.3" style="stroke:#181818;stroke-width:1;"/><text fill="#000000" font-family="sans-serif" font-size="13" lengthAdjust="spacing" textLength="32.513" x="115" y="900.277">home</text><text fill="#000000" font-family="sans-serif" font-size="13" lengthAdjust="spacing" textLength="7.228" x="106.6294" y="1274.3161">1</text></g><!--link User to Address--><g class="link" data-entity-1="ent0002" data-entity-2="ent0003" data-link-type="dependency" data-source-line="9" id="lnk5"><path codeLine="9" d="M300.05,406.37 C193.03,410.89 6,436.9 6,563.6 C6,563.6 6,563.6 6,1168.2 C6,1211.11 24.7825,1247.9707 49.1525,1280.6407" fill="none" id="User-to-Address-1" style="stroke:#181818;stroke-width:1;"/><polygon fill="#181818" points="52.74,1285.45,50.565,1275.8443,49.7504,1281.4422,44.1525,1280.6277,52.74,1285.45" style="stroke:#181818;stroke-width:1;"/><text fill="#000000" font-family="sans-serif" font-size="13" lengthAdjust="spacing" textLength="66.4691" x="7" y="900.277">alternatives</text><text fill="#000000" font-family="sans-serif" font-size="13" lengthAdjust="spacing" textLength="19.513" x="26.0284" y="1274.4825">0..*</text></g><!--link User to TestResult--><g class="link" data-entity-1="ent0002" data-entity-2="ent0006" data-link-type="dependency" data-source-line="10" id="lnk7"><path codeLine="10" d="M364.37,454.71 C360.96,473.86 358.1113,489.9128 354.7013,509.0728" fill="none" id="User-to-TestResult" style="stroke:#181818;stroke-width:1;"/><polygon fill="#181818" points="353.65,514.98,359.1651,506.8201,354.5261,510.0574,351.2889,505.4184,353.65,514.98" style="stroke:#181818;stroke-width:1;"/><text fill="#000000" font-family="sans-serif" font-size="13" lengthAdjust="spacing" textLength="19.513" x="334.563" y="503.7116">0..*</text></g><!--reverse link User to Donor--><g class="link" data-entity-1="ent0002" data-entity-2="ent0008" data-link-type="extension" data-source-line="13" id="lnk9"><path d="M462.3424,445.2611 C524.8024,472.5711 597.83,504.5 660.26,531.8" fill="none" id="User-backto-Donor" style="stroke:#181818;stroke-width:1;"/><polygon fill="none" points="445.85,438.05,459.9387,450.7586,464.7461,439.7637,445.85,438.05" style="stroke:#181818;stroke-width:1;"/></g><!--link Donor to DonationPreference--><g class="link" data-entity-1="ent0008" data-entity-2="ent0011" data-link-type="dependency" data-source-line="26" id="lnk12"><path codeLine="26" d="M747.42,597.2 C763.21,631.79 786.0588,681.8716 803.2288,719.4916" fill="none" id="Donor-to-DonationPreference" style="stroke:#181818;stroke-width:1;"/><polygon fill="#181818" points="805.72,724.95,805.6221,715.1016,803.644,720.4014,798.3442,718.4233,805.72,724.95" style="stroke:#181818;stroke-width:1;"/><text fill="#000000" font-family="sans-serif" font-size="13" lengthAdjust="spacing" textLength="7.228" x="794.9966" y="713.7341">1</text></g><!--link DonationPreference to Bloodbank--><g class="link" data-entity-1="ent0011" data-entity-2="ent0013" data-link-type="dependency" data-source-line="32" id="lnk14"><path codeLine="32" d="M826.99,807.26 C829.66,843.18 833.1252,889.8665 835.9652,928.0665" fill="none" id="DonationPreference-to-Bloodbank" style="stroke:#181818;stroke-width:1;"/><polygon fill="#181818" points="836.41,934.05,839.7317,924.7782,836.0393,929.0638,831.7537,925.3713,836.41,934.05" style="stroke:#181818;stroke-width:1;"/><text fill="#000000" font-family="sans-serif" font-size="13" lengthAdjust="spacing" textLength="7.228" x="828.3861" y="922.8212">1</text></g><!--link TestResult to Form--><g class="link" data-entity-1="ent0006" data-entity-2="ent0015" data-link-type="dependency" data-source-line="40" id="lnk16"><path codeLine="40" d="M344.76,614.13 C344.57,651.13 344.3499,695.0401 344.1899,727.1301" fill="none" id="TestResult-to-Form" style="stroke:#181818;stroke-width:1;"/><polygon fill="#181818" points="344.16,733.13,348.2048,724.1501,344.1849,728.1301,340.2049,724.1102,344.16,733.13" style="stroke:#181818;stroke-width:1;"/><text fill="#000000" font-family="sans-serif" font-size="13" lengthAdjust="spacing" textLength="7.228" x="336.4939" y="721.9426">1</text></g><!--reverse link Form to EntryForm--><g class="link" data-entity-1="ent0015" data-entity-2="ent0017" data-link-type="extension" data-source-line="47" id="lnk18"><path d="M315.9147,814.254 C289.9047,858.024 252.87,920.35 229.84,959.11" fill="none" id="Form-backto-EntryForm" style="stroke:#181818;stroke-width:1;"/><polygon fill="none" points="325.11,798.78,310.7567,811.1889,321.0727,817.3191,325.11,798.78" style="stroke:#181818;stroke-width:1;"/></g><!--reverse link Form to Interview--><g class="link" data-entity-1="ent0015" data-entity-2="ent0019" data-link-type="extension" data-source-line="51" id="lnk20"><path d="M344,816.78 C344,860.55 344,920.35 344,959.11" fill="none" id="Form-backto-Interview" style="stroke:#181818;stroke-width:1;"/><polygon fill="none" points="344,798.78,338,816.78,350,816.78,344,798.78" style="stroke:#181818;stroke-width:1;"/></g><!--link Interview to Admin--><g class="link" data-entity-1="ent0019" data-entity-2="ent0021" data-link-type="dependency" data-source-line="53" id="lnk22"><path codeLine="53" d="M373.6,1007.8 C417.76,1042.7 495.713,1104.3192 539.813,1139.1792" fill="none" id="Interview-to-Admin" style="stroke:#181818;stroke-width:1;"/><polygon fill="#181818" points="544.52,1142.9,539.94,1134.1808,540.5975,1139.7994,534.979,1140.4568,544.52,1142.9" style="stroke:#181818;stroke-width:1;"/><text fill="#000000" font-family="sans-serif" font-size="13" lengthAdjust="spacing" textLength="41.912" x="460" y="1075.677">held by</text><text fill="#000000" font-family="sans-serif" font-size="13" lengthAdjust="spacing" textLength="7.228" x="528.6878" y="1131.5114">1</text></g><!--reverse link Form to DonationTest--><g class="link" data-entity-1="ent0015" data-entity-2="ent0023" data-link-type="extension" data-source-line="56" id="lnk24"><path d="M373.8704,813.968 C401.7104,857.738 441.54,920.35 466.19,959.11" fill="none" id="Form-backto-DonationTest" style="stroke:#181818;stroke-width:1;"/><polygon fill="none" points="364.21,798.78,368.8077,817.1882,378.9331,810.7479,364.21,798.78" style="stroke:#181818;stroke-width:1;"/></g><!--link Donor to Bloodbank--><g class="link" data-entity-1="ent0008" data-entity-2="ent0013" data-link-type="dependency" data-source-line="59" id="lnk25"><path codeLine="59" d="M843.8,597.47 C881.35,614.15 919.27,638.85 941,674.8 C982.93,744.18 967.99,780.76 941,857.2 C930.96,885.64 915.4215,907.9082 896.1815,929.3082" fill="none" id="Donor-to-Bloodbank" style="stroke:#181818;stroke-width:1;"/><polygon fill="#181818" points="892.17,933.77,901.1618,929.7516,895.5129,930.0518,895.2127,924.4029,892.17,933.77" style="stroke:#181818;stroke-width:1;"/><text fill="#000000" font-family="sans-serif" font-size="13" lengthAdjust="spacing" textLength="96.1091" x="968.14" y="770.577">home bloodbank</text><text fill="#000000" font-family="sans-serif" font-size="13" lengthAdjust="spacing" textLength="7.228" x="892.3358" y="922.5001">1</text></g><!--link Donor to Bloodtype--><g class="link" data-entity-1="ent0008" data-entity-2="ent0010" data-link-type="dependency" data-source-line="60" id="lnk26"><path codeLine="60" d="M718.58,597.2 C709.01,618.17 698.4117,641.3919 685.7617,669.1019" fill="none" id="Donor-to-Bloodtype" style="stroke:#181818;stroke-width:1;"/><polygon fill="#181818" points="683.27,674.56,690.6463,668.0339,685.3464,670.0115,683.3688,664.7116,683.27,674.56" style="stroke:#181818;stroke-width:1;"/><text fill="#000000" font-family="sans-serif" font-size="13" lengthAdjust="spacing" textLength="7.228" x="679.5258" y="663.1602">1</text></g><!--reverse link User to Admin--><g class="link" data-entity-1="ent0002" data-entity-2="ent0021" data-link-type="extension" data-source-line="62" id="lnk27"><path d="M412.895,470.2115 C423.765,488.7215 426.32,494.81 435,515.4 C510.24,693.94 521.44,743.56 556,934.2 C569.69,1009.73 572.98,1100.94 573.76,1142.95" fill="none" id="User-backto-Admin" style="stroke:#181818;stroke-width:1;"/><polygon fill="none" points="403.78,454.69,407.7212,473.2498,418.0688,467.1732,403.78,454.69" style="stroke:#181818;stroke-width:1;"/></g><!--link Bloodbank to Admin--><g class="link" data-entity-1="ent0013" data-entity-2="ent0021" data-link-type="dependency" data-source-line="64" id="lnk28"><path codeLine="64" d="M745.08,1033.06 C707.13,1054.37 663.98,1081.02 628,1109.6 C615.66,1119.4 607.4333,1127.4798 597.7333,1138.2598" fill="none" id="Bloodbank-to-Admin" style="stroke:#181818;stroke-width:1;"/><polygon fill="#181818" points="593.72,1142.72,602.7134,1138.7053,597.0644,1139.0032,596.7665,1133.3542,593.72,1142.72" style="stroke:#181818;stroke-width:1;"/><text fill="#000000" font-family="sans-serif" font-size="13" lengthAdjust="spacing" textLength="19.513" x="577.4051" y="1131.679">1..*</text></g><!--link Appointment to Note--><g class="link" data-entity-1="ent0030" data-entity-2="ent0029" data-link-type="dependency" data-source-line="71" id="lnk31"><path codeLine="71" d="M613.95,72.24 C582.95,91.57 548.3812,113.1251 516.1812,133.2051" fill="none" id="Appointment-to-Note" style="stroke:#181818;stroke-width:1;"/><polygon fill="#181818" points="511.09,136.38,520.8434,135.0118,515.3327,133.7343,516.6102,128.2236,511.09,136.38" style="stroke:#181818;stroke-width:1;"/><text fill="#000000" font-family="sans-serif" font-size="13" lengthAdjust="spacing" textLength="19.513" x="518.9348" y="128.321">0..*</text></g><!--link Note to User--><g class="link" data-entity-1="ent0029" data-entity-2="ent0002" data-link-type="dependency" data-source-line="72" id="lnk32"><path codeLine="72" d="M412.53,214.75 C405.31,223.86 398.62,233.95 394,244.4 C378.45,279.59 373.7617,317.0841 372.5517,349.8041" fill="none" id="Note-to-User" style="stroke:#181818;stroke-width:1;"/><polygon fill="#181818" points="372.33,355.8,376.6599,346.954,372.5148,350.8034,368.6653,346.6583,372.33,355.8" style="stroke:#181818;stroke-width:1;"/><text fill="#000000" font-family="sans-serif" font-size="13" lengthAdjust="spacing" textLength="60.6971" x="395" y="289.777">created by</text><text fill="#000000" font-family="sans-serif" font-size="13" lengthAdjust="spacing" textLength="7.228" x="364.7346" y="344.5639">1</text></g><!--link Donation to DonationTest--><g class="link" data-entity-1="ent0033" data-entity-2="ent0023" data-link-type="dependency" data-source-line="83" id="lnk34"><path codeLine="83" d="M561.09,326.39 C545.33,455.54 496.9772,851.5142 484.5872,952.9942" fill="none" id="Donation-to-DonationTest" style="stroke:#181818;stroke-width:1;"/><polygon fill="#181818" points="483.86,958.95,488.9213,950.5011,484.466,953.9869,480.9802,949.5316,483.86,958.95" style="stroke:#181818;stroke-width:1;"/><text fill="#000000" font-family="sans-serif" font-size="13" lengthAdjust="spacing" textLength="21.684" x="460.9902" y="947.9167">0..1</text></g><!--link Appointment to Donation--><g class="link" data-entity-1="ent0030" data-entity-2="ent0033" data-link-type="dependency" data-source-line="85" id="lnk35"><path codeLine="85" d="M652.06,72.27 C634.13,116.42 604.0184,190.5913 584.4884,238.6613" fill="none" id="Appointment-to-Donation" style="stroke:#181818;stroke-width:1;"/><polygon fill="#181818" points="582.23,244.22,589.3235,237.3875,584.112,239.5877,581.9118,234.3763,582.23,244.22" style="stroke:#181818;stroke-width:1;"/><text fill="#000000" font-family="sans-serif" font-size="13" lengthAdjust="spacing" textLength="21.684" x="562.274" y="233.0161">0..1</text></g><!--link Appointment to Bookingslot--><g class="link" data-entity-1="ent0030" data-entity-2="ent0036" data-link-type="dependency" data-source-line="86" id="lnk37"><path codeLine="86" d="M730.48,44.72 C861.84,55.2 1145,87.62 1145,172.6 C1145,172.6 1145,172.6 1145,984.4 C1145,1026.9 1136.1187,1067.9467 1125.8487,1103.4167" fill="none" id="Appointment-to-Bookingslot" style="stroke:#181818;stroke-width:1;"/><polygon fill="#181818" points="1124.18,1109.18,1130.5252,1101.6475,1125.5706,1104.3773,1122.8409,1099.4226,1124.18,1109.18" style="stroke:#181818;stroke-width:1;"/><text fill="#000000" font-family="sans-serif" font-size="13" lengthAdjust="spacing" textLength="7.228" x="1119.204" y="1097.9007">1</text></g><!--link Appointment to Donor--><g class="link" data-entity-1="ent0030" data-entity-2="ent0008" data-link-type="dependency" data-source-line="87" id="lnk38"><path codeLine="87" d="M669.1,71.95 C681.22,165.18 715.997,432.77 728.117,526.06" fill="none" id="Appointment-to-Donor" style="stroke:#181818;stroke-width:1;"/><polygon fill="#181818" points="728.89,532.01,731.6972,522.5697,728.2458,527.0517,723.7638,523.6003,728.89,532.01" style="stroke:#181818;stroke-width:1;"/><text fill="#000000" font-family="sans-serif" font-size="13" lengthAdjust="spacing" textLength="19.513" x="649.0868" y="91.9709">0..*</text><text fill="#000000" font-family="sans-serif" font-size="13" lengthAdjust="spacing" textLength="7.228" x="720.3434" y="520.8803">1</text></g><!--link Bloodbank to Bookingslot--><g class="link" data-entity-1="ent0013" data-entity-2="ent0036" data-link-type="dependency" data-source-line="96" id="lnk39"><path codeLine="96" d="M910.67,1032.88 C944.86,1056.34 981.1823,1081.2559 1016.8823,1105.7459" fill="none" id="Bloodbank-to-Bookingslot" style="stroke:#181818;stroke-width:1;"/><polygon fill="#181818" points="1021.83,1109.14,1016.6712,1100.7503,1017.7069,1106.3116,1012.1457,1107.3473,1021.83,1109.14" style="stroke:#181818;stroke-width:1;"/><text fill="#000000" font-family="sans-serif" font-size="13" lengthAdjust="spacing" textLength="19.513" x="991.5675" y="1098.2635">0..*</text></g><!--link Bloodbank to Location--><g class="link" data-entity-1="ent0013" data-entity-2="ent0040" data-link-type="dependency" data-source-line="105" id="lnk41"><path codeLine="105" d="M802.58,1032.64 C779.99,1061.78 755.1966,1093.7384 733.8266,1121.2984" fill="none" id="Bloodbank-to-Location" style="stroke:#181818;stroke-width:1;"/><polygon fill="#181818" points="730.15,1126.04,738.826,1121.3787,733.2138,1122.0887,732.5039,1116.4766,730.15,1126.04" style="stroke:#181818;stroke-width:1;"/><text fill="#000000" font-family="sans-serif" font-size="13" lengthAdjust="spacing" textLength="7.228" x="727.9221" y="1114.8051">1</text></g><!--link Location to Address--><g class="link" data-entity-1="ent0040" data-entity-2="ent0003" data-link-type="dependency" data-source-line="112" id="lnk42"><path codeLine="112" d="M653.69,1208.43 C645.22,1214.58 636.15,1220.34 627,1224.8 C478.61,1297.13 291.2204,1329.2701 189.5104,1342.4301" fill="none" id="Location-to-Address" style="stroke:#181818;stroke-width:1;"/><polygon fill="#181818" points="183.56,1343.2,192.9989,1346.0121,188.5187,1342.5584,191.9723,1338.0782,183.56,1343.2" style="stroke:#181818;stroke-width:1;"/><text fill="#000000" font-family="sans-serif" font-size="13" lengthAdjust="spacing" textLength="21.684" x="191.4743" y="1338.7217">0..1</text></g><!--link Bloodbank to Timerange--><g class="link" data-entity-1="ent0013" data-entity-2="ent0043" data-link-type="dependency" data-source-line="122" id="lnk44"><path codeLine="122" d="M844.25,1032.64 C846.81,1061.78 849.513,1092.5032 851.943,1120.0632" fill="none" id="Bloodbank-to-Timerange" style="stroke:#181818;stroke-width:1;"/><polygon fill="#181818" points="852.47,1126.04,855.6641,1116.7235,852.0308,1121.0593,847.695,1117.4261,852.47,1126.04" style="stroke:#181818;stroke-width:1;"/><text fill="#000000" font-family="sans-serif" font-size="13" lengthAdjust="spacing" textLength="82.3811" x="849" y="1075.677">opening hours</text><text fill="#000000" font-family="sans-serif" font-size="13" lengthAdjust="spacing" textLength="5.057" x="846.4384" y="1114.8051">*</text></g><?plantuml-src TLLDRzim3BtxLmW-RcYxNNCOaAmhK63jYgtz0OhDD48bqP3eTi7G_pvI_f8Tzs988iNt-4ZAbTKnggS8GVqhbFBQmKRzeM3yCs_XJXkRxPiZUhXltHx2UFfU5EdwnSMtyckfjdKT8CQDAe_ee9niNoulF-LcRGc2rsHU8PwvFKAatn1RIqLH9OhNw34e-4lWwunmXSw1fu6DkhhYo7jiIJcuQW8S882l1E6z0DywjRE8DPqQIDT_NSZdCt-swIFRdQnsijgcvPRNd6H7eC-IDymS_SE8aF5SM1AGyPpjgsOnhy6IVZGE-3HQfCanvbby3-WPTYKSKr328MMor_vbW9v4Iv1af9Q254cxXayOtzHFdgIc-RdnoQ89wetQ8LhGWbra0VkyRp2u0KxM2GXV7Z7nXDdjpkk7ft1AhaFj-dkJostIni3RYija6_lB6I_T1RPM-rEvr5quhq6DvPjhr_UfsWy7vPgdzCi0b0Wi6f7ZZn4xedspi-jmxnu9FgWBhw9-Xdoajas3t3FIsnsLRYuaI94Y3Vo402TH1P3ovOfa8TAaQ6uUQnSbdekN-6c7hQTRVyTTScDHatH8JFanyWDVS7eMOxpTpsys7rADzMGoftExw8xumbh8XCpidH23LwhLa4LsPLrd7YlPggEEYb0TjBKocAWw6nspFeWA6_0oZ4TiGqm2DheoTDf8mnPd9UyAbDCUQ8rkAoyimsuxKBLl8-ki0l2p5NrNp9wPun4qZPtHUpDqLBKv74GLYHgBCr99evzOTJBtV8PzecFHFnjgQvXgRTcQdt3GyKfMlVubdyOYRLFGI0605fdsX_EV1_zIaAjZAnGyqPLrJXgF3fLqOpZbmx78KVuNNDQWlSnGEQlRE0sZH_TaTJxooEPG5kFozFq_?></g></svg>