<?plantuml 1.2026.1?><svg xmlns="http://www.w3.org/2000/svg" xmlns:xlink="http://www.w3.org/1999/xlink" contentStyleType="text/css" data-diagram-type="CLASS" height="1407px" preserveAspectRatio="none" style="width:1495px;height:1407px;background:#FFFFFF;" version="1.1" viewBox="0 0 1495 1407" width="1495px" zoomAndPan="magnify"><defs/><g><!--class User--><g class="entity" data-qualified-name="User" data-source-line="2" id="ent0002"><rect fill="#F1F1F1" height="98.3998" rx="2.5" ry="2.5" style="stroke:#181818;stroke-width:0.5;" width="145.0555" x="159.47" y="356"/><ellipse cx="212.9708" cy="372" fill="#ADD1B2" rx="11" ry="11" style="stroke:#181818;stroke-width:1;"/><path d="M207.9708,373.1563 C207.9708,375.6563 210.1114,377.4688 213.0333,377.4688 C214.2677,377.4688 215.4395,377.1719 216.1895,376.6563 C216.7989,376.2344 217.127,375.8125 217.127,375.4063 C217.127,374.9375 216.7052,374.5313 216.2052,374.5313 C215.9708,374.5313 215.752,374.6094 215.5489,374.8125 C215.1114,375.25 215.1114,375.25 214.9395,375.3438 C214.4864,375.5781 213.8458,375.7188 213.0802,375.7188 C211.0802,375.7188 209.7989,374.7031 209.7989,373.125 L209.7989,372.0781 C209.7989,370.375 211.0177,369.1719 212.7208,369.1719 C213.2989,369.1719 213.877,369.3125 214.3458,369.5625 C214.8145,369.8281 214.9864,370.0156 215.0489,370.375 C215.1739,371.0469 215.4239,371.2969 215.9552,371.2969 C216.2364,371.2969 216.5177,371.1563 216.7052,370.9375 C216.8302,370.7656 216.877,370.5938 216.877,370.1563 L216.877,368.7969 C216.877,368.375 216.8614,368.2344 216.7364,368.0625 C216.5645,367.8125 216.2833,367.6563 215.9552,367.6563 C215.6427,367.6563 215.4395,367.7656 215.2208,368.0313 C214.0489,367.5313 213.6114,367.4219 212.6583,367.4219 C209.9864,367.4219 207.9708,369.4375 207.9708,372.0625 L207.9708,373.1563 Z " fill="#000000"/><text fill="#000000" font-family="sans-serif" font-size="14" lengthAdjust="spacing" textLength="29.5539" x="233.4708" y="376.606">User</text><line style="stroke:#181818;stroke-width:0.5;" x1="160.47" x2="303.5255" y1="388" y2="388"/><text fill="#000000" font-family="sans-serif" font-size="14" lengthAdjust="spacing" textLength="79.3657" x="165.47" y="405.0059">name: String</text><text fill="#000000" font-family="sans-serif" font-size="14" lengthAdjust="spacing" textLength="77.7977" x="165.47" y="421.8059">eMail: String</text><text fill="#000000" font-family="sans-serif" font-size="14" lengthAdjust="spacing" textLength="133.0555" x="165.47" y="438.6058">phoneNumber: String</text><line style="stroke:#181818;stroke-width:0.5;" x1="160.47" x2="303.5255" y1="446.3998" y2="446.3998"/></g><!--class Address--><g class="entity" data-qualified-name="Address" data-source-line="8" id="ent0003"><rect fill="#F1F1F1" height="131.9996" rx="2.5" ry="2.5" style="stroke:#181818;stroke-width:0.5;" width="138.8255" x="128.59" y="1143.2"/><ellipse cx="168.5532" cy="1159.2" fill="#ADD1B2" rx="11" ry="11" style="stroke:#181818;stroke-width:1;"/><path d="M163.5532,1160.3563 C163.5532,1162.8563 165.6938,1164.6688 168.6157,1164.6688 C169.85,1164.6688 171.0219,1164.3719 171.7719,1163.8563 C172.3813,1163.4344 172.7094,1163.0125 172.7094,1162.6063 C172.7094,1162.1375 172.2875,1161.7313 171.7875,1161.7313 C171.5532,1161.7313 171.3344,1161.8094 171.1313,1162.0125 C170.6938,1162.45 170.6938,1162.45 170.5219,1162.5438 C170.0688,1162.7781 169.4282,1162.9188 168.6625,1162.9188 C166.6625,1162.9188 165.3813,1161.9031 165.3813,1160.325 L165.3813,1159.2781 C165.3813,1157.575 166.6,1156.3719 168.3032,1156.3719 C168.8813,1156.3719 169.4594,1156.5125 169.9282,1156.7625 C170.3969,1157.0281 170.5688,1157.2156 170.6313,1157.575 C170.7563,1158.2469 171.0063,1158.4969 171.5375,1158.4969 C171.8188,1158.4969 172.1,1158.3563 172.2875,1158.1375 C172.4125,1157.9656 172.4594,1157.7938 172.4594,1157.3563 L172.4594,1155.9969 C172.4594,1155.575 172.4438,1155.4344 172.3188,1155.2625 C172.1469,1155.0125 171.8657,1154.8563 171.5375,1154.8563 C171.225,1154.8563 171.0219,1154.9656 170.8032,1155.2313 C169.6313,1154.7313 169.1938,1154.6219 168.2407,1154.6219 C165.5688,1154.6219 163.5532,1156.6375 163.5532,1159.2625 L163.5532,1160.3563 Z " fill="#000000"/><text fill="#000000" font-family="sans-serif" font-size="14" lengthAdjust="spacing" textLength="51.3518" x="188.1005" y="1163.806">Address</text><line style="stroke:#181818;stroke-width:0.5;" x1="129.59" x2="266.4155" y1="1175.2" y2="1175.2"/><text fill="#000000" font-family="sans-serif" font-size="14" lengthAdjust="spacing" textLength="114.3795" x="134.59" y="1192.2059">streetname: String</text><text fill="#000000" font-family="sans-serif" font-size="14" lengthAdjust="spacing" textLength="126.8255" x="134.59" y="1209.0059">streetnumber: String</text><text fill="#000000" font-family="sans-serif" font-size="14" lengthAdjust="spacing" textLength="91.0556" x="134.59" y="1225.8058">postalcode: Int</text><text fill="#000000" font-family="sans-serif" font-size="14" lengthAdjust="spacing" textLength="65.3517" x="134.59" y="1242.6057">city: String</text><text fill="#000000" font-family="sans-serif" font-size="14" lengthAdjust="spacing" textLength="90.2576" x="134.59" y="1259.4057">country: String</text><line style="stroke:#181818;stroke-width:0.5;" x1="129.59" x2="266.4155" y1="1267.1996" y2="1267.1996"/></g><!--class Donor--><g class="entity" data-qualified-name="Donor" data-source-line="11" id="ent0006"><rect fill="#F1F1F1" height="98.3998" rx="2.5" ry="2.5" style="stroke:#181818;stroke-width:0.5;" width="275.6049" x="699.2" y="515.4"/><ellipse cx="813.6915" cy="531.4" fill="#ADD1B2" rx="11" ry="11" style="stroke:#181818;stroke-width:1;"/><path d="M808.6915,532.5563 C808.6915,535.0563 810.8322,536.8688 813.754,536.8688 C814.9884,536.8688 816.1603,536.5719 816.9103,536.0563 C817.5197,535.6344 817.8478,535.2125 817.8478,534.8063 C817.8478,534.3375 817.4259,533.9313 816.9259,533.9313 C816.6915,533.9313 816.4728,534.0094 816.2697,534.2125 C815.8322,534.65 815.8322,534.65 815.6603,534.7438 C815.2072,534.9781 814.5665,535.1188 813.8009,535.1188 C811.8009,535.1188 810.5197,534.1031 810.5197,532.525 L810.5197,531.4781 C810.5197,529.775 811.7384,528.5719 813.4415,528.5719 C814.0197,528.5719 814.5978,528.7125 815.0665,528.9625 C815.5353,529.2281 815.7072,529.4156 815.7697,529.775 C815.8947,530.4469 816.1447,530.6969 816.6759,530.6969 C816.9572,530.6969 817.2384,530.5563 817.4259,530.3375 C817.5509,530.1656 817.5978,529.9938 817.5978,529.5563 L817.5978,528.1969 C817.5978,527.775 817.5822,527.6344 817.4572,527.4625 C817.2853,527.2125 817.004,527.0563 816.6759,527.0563 C816.3634,527.0563 816.1603,527.1656 815.9415,527.4313 C814.7697,526.9313 814.3322,526.8219 813.379,526.8219 C810.7072,526.8219 808.6915,528.8375 808.6915,531.4625 L808.6915,532.5563 Z " fill="#000000"/><text fill="#000000" font-family="sans-serif" font-size="14" lengthAdjust="spacing" textLength="38.1218" x="834.1915" y="536.006">Donor</text><line style="stroke:#181818;stroke-width:0.5;" x1="700.2" x2="973.8049" y1="547.4" y2="547.4"/><text fill="#000000" font-family="sans-serif" font-size="14" lengthAdjust="spacing" textLength="263.6049" x="705.2" y="564.4059">comment: String // "about me/preferences"</text><text fill="#000000" font-family="sans-serif" font-size="14" lengthAdjust="spacing" textLength="116.6895" x="705.2" y="581.2059">interval: DeltaTime</text><text fill="#000000" font-family="sans-serif" font-size="14" lengthAdjust="spacing" textLength="187.5152" x="705.2" y="598.0058">slotPreferences: String // Cron</text><line style="stroke:#181818;stroke-width:0.5;" x1="700.2" x2="973.8049" y1="605.7998" y2="605.7998"/></g><!--class Bloodtype--><g class="entity" data-qualified-name="Bloodtype" data-source-line="16" id="ent0008"><rect fill="#F1F1F1" height="182.3994" rx="2.5" ry="2.5" style="stroke:#181818;stroke-width:0.5;" width="94.2577" x="789.87" y="690.8"/><ellipse cx="804.87" cy="706.8" fill="#EB937F" rx="11" ry="11" style="stroke:#181818;stroke-width:1;"/><path d="M803.7294,707.8625 L805.0419,707.8625 L805.0419,707.9094 C805.0419,708.3156 805.0575,708.4719 805.1669,708.6281 C805.3388,708.8781 805.6356,709.05 805.9481,709.05 C806.2294,709.05 806.5263,708.9094 806.6981,708.6906 C806.8231,708.5031 806.87,708.3625 806.87,707.9094 L806.87,706.0656 C806.87,705.7375 806.8544,705.6281 806.7919,705.4563 C806.6825,705.1594 806.3231,704.9094 805.9481,704.9094 C805.6513,704.9094 805.3856,705.05 805.2138,705.2688 C805.0731,705.4563 805.0419,705.6281 805.0419,706.0656 L805.0419,706.1281 L803.7294,706.1281 L803.7294,703.9563 L807.5731,703.9563 L807.5731,704.7063 C807.5731,705.0969 807.6044,705.2844 807.7138,705.4406 C807.8856,705.6906 808.1825,705.8625 808.495,705.8625 C808.7919,705.8625 809.0575,705.7375 809.245,705.5031 C809.3856,705.3156 809.4169,705.175 809.4169,704.7063 L809.4169,702.2063 L801.7138,702.2063 C801.2606,702.2063 801.1356,702.2219 800.9638,702.3313 C800.6981,702.5031 800.5263,702.7688 800.5263,703.0813 C800.5263,703.3625 800.6513,703.6281 800.9013,703.8 C801.0888,703.925 801.2763,703.9563 801.7138,703.9563 L801.9013,703.9563 L801.9013,710.05 L801.7138,710.05 C801.2919,710.05 801.1356,710.0813 800.9638,710.175 C800.6981,710.3313 800.5263,710.6125 800.5263,710.9094 C800.5263,711.4875 800.9325,711.8 801.7138,711.8 L809.7919,711.8 L809.7919,709.2688 C809.7919,708.8625 809.7606,708.6906 809.6513,708.5344 C809.4794,708.2688 809.1981,708.1125 808.87,708.1125 C808.5888,708.1125 808.3075,708.2531 808.12,708.4719 C807.9794,708.6594 807.9481,708.8156 807.9481,709.2688 L807.9481,710.05 L803.7294,710.05 L803.7294,707.8625 Z " fill="#000000"/><text fill="#000000" font-family="sans-serif" font-size="14" lengthAdjust="spacing" textLength="62.2577" x="818.87" y="711.406">Bloodtype</text><line style="stroke:#181818;stroke-width:0.5;" x1="790.87" x2="883.1277" y1="722.8" y2="722.8"/><text fill="#000000" font-family="sans-serif" font-size="14" lengthAdjust="spacing" textLength="15.5539" x="795.87" y="739.8059">O-</text><text fill="#000000" font-family="sans-serif" font-size="14" lengthAdjust="spacing" textLength="19.0679" x="795.87" y="756.6059">O+</text><text fill="#000000" font-family="sans-serif" font-size="14" lengthAdjust="spacing" textLength="17.5139" x="795.87" y="773.4058">A+</text><text fill="#000000" font-family="sans-serif" font-size="14" lengthAdjust="spacing" textLength="14" x="795.87" y="790.2057">A-</text><text fill="#000000" font-family="sans-serif" font-size="14" lengthAdjust="spacing" textLength="17.5139" x="795.87" y="807.0057">B+</text><text fill="#000000" font-family="sans-serif" font-size="14" lengthAdjust="spacing" textLength="14" x="795.87" y="823.8056">B-</text><text fill="#000000" font-family="sans-serif" font-size="14" lengthAdjust="spacing" textLength="26.8519" x="795.87" y="840.6055">AB+</text><text fill="#000000" font-family="sans-serif" font-size="14" lengthAdjust="spacing" textLength="23.3379" x="795.87" y="857.4054">AB-</text><line style="stroke:#181818;stroke-width:0.5;" x1="790.87" x2="883.1277" y1="865.1994" y2="865.1994"/></g><!--class TestResult--><g class="entity" data-qualified-name="TestResult" data-source-line="27" id="ent0009"><rect fill="#F1F1F1" height="98.3998" rx="2.5" ry="2.5" style="stroke:#181818;stroke-width:0.5;" width="161.3794" x="919.31" y="732.8"/><ellipse cx="962.4231" cy="748.8" fill="#ADD1B2" rx="11" ry="11" style="stroke:#181818;stroke-width:1;"/><path d="M957.4231,749.9563 C957.4231,752.4563 959.5638,754.2688 962.4856,754.2688 C963.72,754.2688 964.8919,753.9719 965.6419,753.4563 C966.2513,753.0344 966.5794,752.6125 966.5794,752.2063 C966.5794,751.7375 966.1575,751.3313 965.6575,751.3313 C965.4231,751.3313 965.2044,751.4094 965.0013,751.6125 C964.5638,752.05 964.5638,752.05 964.3919,752.1438 C963.9388,752.3781 963.2981,752.5188 962.5325,752.5188 C960.5325,752.5188 959.2513,751.5031 959.2513,749.925 L959.2513,748.8781 C959.2513,747.175 960.47,745.9719 962.1731,745.9719 C962.7513,745.9719 963.3294,746.1125 963.7981,746.3625 C964.2669,746.6281 964.4388,746.8156 964.5013,747.175 C964.6263,747.8469 964.8763,748.0969 965.4075,748.0969 C965.6888,748.0969 965.97,747.9563 966.1575,747.7375 C966.2825,747.5656 966.3294,747.3938 966.3294,746.9563 L966.3294,745.5969 C966.3294,745.175 966.3138,745.0344 966.1888,744.8625 C966.0169,744.6125 965.7356,744.4563 965.4075,744.4563 C965.095,744.4563 964.8919,744.5656 964.6731,744.8313 C963.5013,744.3313 963.0638,744.2219 962.1106,744.2219 C959.4388,744.2219 957.4231,746.2375 957.4231,748.8625 L957.4231,749.9563 Z " fill="#000000"/><text fill="#000000" font-family="sans-serif" font-size="14" lengthAdjust="spacing" textLength="66.9057" x="982.6705" y="753.406">TestResult</text><line style="stroke:#181818;stroke-width:0.5;" x1="920.31" x2="1079.6894" y1="764.8" y2="764.8"/><text fill="#000000" font-family="sans-serif" font-size="14" lengthAdjust="spacing" textLength="103.4596" x="925.31" y="781.8059">time: Timestamp</text><text fill="#000000" font-family="sans-serif" font-size="14" lengthAdjust="spacing" textLength="149.3794" x="925.31" y="798.6059">validityDuration: Interval</text><text fill="#000000" font-family="sans-serif" font-size="14" lengthAdjust="spacing" textLength="126.0695" x="925.31" y="815.4058">invalidated: Boolean</text><line style="stroke:#181818;stroke-width:0.5;" x1="920.31" x2="1079.6894" y1="823.1998" y2="823.1998"/></g><!--class Bloodbank--><g class="entity" data-qualified-name="Bloodbank" data-source-line="28" id="ent0011"><rect fill="#F1F1F1" height="98.3998" rx="2.5" ry="2.5" style="stroke:#181818;stroke-width:0.5;" width="264.1109" x="490.94" y="732.8"/><ellipse cx="585.6706" cy="748.8" fill="#ADD1B2" rx="11" ry="11" style="stroke:#181818;stroke-width:1;"/><path d="M580.6706,749.9563 C580.6706,752.4563 582.8112,754.2688 585.7331,754.2688 C586.9675,754.2688 588.1393,753.9719 588.8893,753.4563 C589.4987,753.0344 589.8268,752.6125 589.8268,752.2063 C589.8268,751.7375 589.405,751.3313 588.905,751.3313 C588.6706,751.3313 588.4518,751.4094 588.2487,751.6125 C587.8112,752.05 587.8112,752.05 587.6393,752.1438 C587.1862,752.3781 586.5456,752.5188 585.78,752.5188 C583.78,752.5188 582.4987,751.5031 582.4987,749.925 L582.4987,748.8781 C582.4987,747.175 583.7175,745.9719 585.4206,745.9719 C585.9987,745.9719 586.5768,746.1125 587.0456,746.3625 C587.5143,746.6281 587.6862,746.8156 587.7487,747.175 C587.8737,747.8469 588.1237,748.0969 588.655,748.0969 C588.9362,748.0969 589.2175,747.9563 589.405,747.7375 C589.53,747.5656 589.5768,747.3938 589.5768,746.9563 L589.5768,745.5969 C589.5768,745.175 589.5612,745.0344 589.4362,744.8625 C589.2643,744.6125 588.9831,744.4563 588.655,744.4563 C588.3425,744.4563 588.1393,744.5656 587.9206,744.8313 C586.7487,744.3313 586.3112,744.2219 585.3581,744.2219 C582.6862,744.2219 580.6706,746.2375 580.6706,748.8625 L580.6706,749.9563 Z " fill="#000000"/><text fill="#000000" font-family="sans-serif" font-size="14" lengthAdjust="spacing" textLength="66.1497" x="606.1706" y="753.406">Bloodbank</text><line style="stroke:#181818;stroke-width:0.5;" x1="491.94" x2="754.0509" y1="764.8" y2="764.8"/><text fill="#000000" font-family="sans-serif" font-size="14" lengthAdjust="spacing" textLength="79.3657" x="496.94" y="781.8059">name: String</text><text fill="#000000" font-family="sans-serif" font-size="14" lengthAdjust="spacing" textLength="189.0972" x="496.94" y="798.6059">// A blood bus is represnted by</text><text fill="#000000" font-family="sans-serif" font-size="14" lengthAdjust="spacing" textLength="252.1109" x="496.94" y="815.4058">// multiple bloodbanks with diffent names</text><line style="stroke:#181818;stroke-width:0.5;" x1="491.94" x2="754.0509" y1="823.1998" y2="823.1998"/></g><!--class Form--><g class="entity" data-qualified-name="Form" data-source-line="36" id="ent0013"><rect fill="#F1F1F1" height="64.7999" rx="2.5" ry="2.5" style="stroke:#181818;stroke-width:0.5;" width="147.4074" x="1230.3" y="983.8"/><ellipse cx="1283.4228" cy="999.8" fill="#ADD1B2" rx="11" ry="11" style="stroke:#181818;stroke-width:1;"/><path d="M1278.4228,1000.9563 C1278.4228,1003.4563 1280.5634,1005.2688 1283.4853,1005.2688 C1284.7196,1005.2688 1285.8915,1004.9719 1286.6415,1004.4563 C1287.2509,1004.0344 1287.579,1003.6125 1287.579,1003.2063 C1287.579,1002.7375 1287.1571,1002.3313 1286.6571,1002.3313 C1286.4228,1002.3313 1286.204,1002.4094 1286.0009,1002.6125 C1285.5634,1003.05 1285.5634,1003.05 1285.3915,1003.1438 C1284.9384,1003.3781 1284.2978,1003.5188 1283.5321,1003.5188 C1281.5321,1003.5188 1280.2509,1002.5031 1280.2509,1000.925 L1280.2509,999.8781 C1280.2509,998.175 1281.4696,996.9719 1283.1728,996.9719 C1283.7509,996.9719 1284.329,997.1125 1284.7978,997.3625 C1285.2665,997.6281 1285.4384,997.8156 1285.5009,998.175 C1285.6259,998.8469 1285.8759,999.0969 1286.4071,999.0969 C1286.6884,999.0969 1286.9696,998.9563 1287.1571,998.7375 C1287.2821,998.5656 1287.329,998.3938 1287.329,997.9563 L1287.329,996.5969 C1287.329,996.175 1287.3134,996.0344 1287.1884,995.8625 C1287.0165,995.6125 1286.7353,995.4563 1286.4071,995.4563 C1286.0946,995.4563 1285.8915,995.5656 1285.6728,995.8313 C1284.5009,995.3313 1284.0634,995.2219 1283.1103,995.2219 C1280.4384,995.2219 1278.4228,997.2375 1278.4228,999.8625 L1278.4228,1000.9563 Z " fill="#000000"/><text fill="#000000" font-family="sans-serif" font-size="14" lengthAdjust="spacing" textLength="32.6619" x="1303.9228" y="1004.406">Form</text><line style="stroke:#181818;stroke-width:0.5;" x1="1231.3" x2="1376.7074" y1="1015.8" y2="1015.8"/><text fill="#000000" font-family="sans-serif" font-size="14" lengthAdjust="spacing" textLength="135.4074" x="1236.3" y="1032.8059">okToDonate: Boolean</text><line style="stroke:#181818;stroke-width:0.5;" x1="1231.3" x2="1376.7074" y1="1040.5999" y2="1040.5999"/></g><!--class EntryForm--><g class="entity" data-qualified-name="EntryForm" data-source-line="42" id="ent0015"><rect fill="#F1F1F1" height="48" rx="2.5" ry="2.5" style="stroke:#181818;stroke-width:0.5;" width="97.3378" x="1241.33" y="1185.2"/><ellipse cx="1256.33" cy="1201.2" fill="#ADD1B2" rx="11" ry="11" style="stroke:#181818;stroke-width:1;"/><path d="M1251.33,1202.3563 C1251.33,1204.8563 1253.4706,1206.6688 1256.3925,1206.6688 C1257.6269,1206.6688 1258.7988,1206.3719 1259.5488,1205.8563 C1260.1581,1205.4344 1260.4863,1205.0125 1260.4863,1204.6063 C1260.4863,1204.1375 1260.0644,1203.7313 1259.5644,1203.7313 C1259.33,1203.7313 1259.1113,1203.8094 1258.9081,1204.0125 C1258.4706,1204.45 1258.4706,1204.45 1258.2988,1204.5438 C1257.8456,1204.7781 1257.205,1204.9188 1256.4394,1204.9188 C1254.4394,1204.9188 1253.1581,1203.9031 1253.1581,1202.325 L1253.1581,1201.2781 C1253.1581,1199.575 1254.3769,1198.3719 1256.08,1198.3719 C1256.6581,1198.3719 1257.2363,1198.5125 1257.705,1198.7625 C1258.1738,1199.0281 1258.3456,1199.2156 1258.4081,1199.575 C1258.5331,1200.2469 1258.7831,1200.4969 1259.3144,1200.4969 C1259.5956,1200.4969 1259.8769,1200.3563 1260.0644,1200.1375 C1260.1894,1199.9656 1260.2363,1199.7938 1260.2363,1199.3563 L1260.2363,1197.9969 C1260.2363,1197.575 1260.2206,1197.4344 1260.0956,1197.2625 C1259.9238,1197.0125 1259.6425,1196.8563 1259.3144,1196.8563 C1259.0019,1196.8563 1258.7988,1196.9656 1258.58,1197.2313 C1257.4081,1196.7313 1256.9706,1196.6219 1256.0175,1196.6219 C1253.3456,1196.6219 1251.33,1198.6375 1251.33,1201.2625 L1251.33,1202.3563 Z " fill="#000000"/><text fill="#000000" font-family="sans-serif" font-size="14" lengthAdjust="spacing" textLength="65.3378" x="1270.33" y="1205.806">EntryForm</text><line style="stroke:#181818;stroke-width:0.5;" x1="1242.33" x2="1337.6678" y1="1217.2" y2="1217.2"/><line style="stroke:#181818;stroke-width:0.5;" x1="1242.33" x2="1337.6678" y1="1225.2" y2="1225.2"/></g><!--class Interview--><g class="entity" data-qualified-name="Interview" data-source-line="46" id="ent0017"><rect fill="#F1F1F1" height="48" rx="2.5" ry="2.5" style="stroke:#181818;stroke-width:0.5;" width="88.0138" x="1074.99" y="1185.2"/><ellipse cx="1089.99" cy="1201.2" fill="#ADD1B2" rx="11" ry="11" style="stroke:#181818;stroke-width:1;"/><path d="M1084.99,1202.3563 C1084.99,1204.8563 1087.1306,1206.6688 1090.0525,1206.6688 C1091.2869,1206.6688 1092.4588,1206.3719 1093.2088,1205.8563 C1093.8181,1205.4344 1094.1463,1205.0125 1094.1463,1204.6063 C1094.1463,1204.1375 1093.7244,1203.7313 1093.2244,1203.7313 C1092.99,1203.7313 1092.7713,1203.8094 1092.5681,1204.0125 C1092.1306,1204.45 1092.1306,1204.45 1091.9588,1204.5438 C1091.5056,1204.7781 1090.865,1204.9188 1090.0994,1204.9188 C1088.0994,1204.9188 1086.8181,1203.9031 1086.8181,1202.325 L1086.8181,1201.2781 C1086.8181,1199.575 1088.0369,1198.3719 1089.74,1198.3719 C1090.3181,1198.3719 1090.8963,1198.5125 1091.365,1198.7625 C1091.8338,1199.0281 1092.0056,1199.2156 1092.0681,1199.575 C1092.1931,1200.2469 1092.4431,1200.4969 1092.9744,1200.4969 C1093.2556,1200.4969 1093.5369,1200.3563 1093.7244,1200.1375 C1093.8494,1199.9656 1093.8963,1199.7938 1093.8963,1199.3563 L1093.8963,1197.9969 C1093.8963,1197.575 1093.8806,1197.4344 1093.7556,1197.2625 C1093.5838,1197.0125 1093.3025,1196.8563 1092.9744,1196.8563 C1092.6619,1196.8563 1092.4588,1196.9656 1092.24,1197.2313 C1091.0681,1196.7313 1090.6306,1196.6219 1089.6775,1196.6219 C1087.0056,1196.6219 1084.99,1198.6375 1084.99,1201.2625 L1084.99,1202.3563 Z " fill="#000000"/><text fill="#000000" font-family="sans-serif" font-size="14" lengthAdjust="spacing" textLength="56.0138" x="1103.99" y="1205.806">Interview</text><line style="stroke:#181818;stroke-width:0.5;" x1="1075.99" x2="1162.0038" y1="1217.2" y2="1217.2"/><line style="stroke:#181818;stroke-width:0.5;" x1="1075.99" x2="1162.0038" y1="1225.2" y2="1225.2"/></g><!--class Admin--><g class="entity" data-qualified-name="Admin" data-source-line="49" id="ent0019"><rect fill="#F1F1F1" height="48" rx="2.5" ry="2.5" style="stroke:#181818;stroke-width:0.5;" width="71.6758" x="895.16" y="1352.2"/><ellipse cx="910.16" cy="1368.2" fill="#ADD1B2" rx="11" ry="11" style="stroke:#181818;stroke-width:1;"/><path d="M905.16,1369.3563 C905.16,1371.8563 907.3006,1373.6688 910.2225,1373.6688 C911.4569,1373.6688 912.6288,1373.3719 913.3788,1372.8563 C913.9881,1372.4344 914.3163,1372.0125 914.3163,1371.6063 C914.3163,1371.1375 913.8944,1370.7313 913.3944,1370.7313 C913.16,1370.7313 912.9413,1370.8094 912.7381,1371.0125 C912.3006,1371.45 912.3006,1371.45 912.1288,1371.5438 C911.6756,1371.7781 911.035,1371.9188 910.2694,1371.9188 C908.2694,1371.9188 906.9881,1370.9031 906.9881,1369.325 L906.9881,1368.2781 C906.9881,1366.575 908.2069,1365.3719 909.91,1365.3719 C910.4881,1365.3719 911.0663,1365.5125 911.535,1365.7625 C912.0038,1366.0281 912.1756,1366.2156 912.2381,1366.575 C912.3631,1367.2469 912.6131,1367.4969 913.1444,1367.4969 C913.4256,1367.4969 913.7069,1367.3563 913.8944,1367.1375 C914.0194,1366.9656 914.0663,1366.7938 914.0663,1366.3563 L914.0663,1364.9969 C914.0663,1364.575 914.0506,1364.4344 913.9256,1364.2625 C913.7538,1364.0125 913.4725,1363.8563 913.1444,1363.8563 C912.8319,1363.8563 912.6288,1363.9656 912.41,1364.2313 C911.2381,1363.7313 910.8006,1363.6219 909.8475,1363.6219 C907.1756,1363.6219 905.16,1365.6375 905.16,1368.2625 L905.16,1369.3563 Z " fill="#000000"/><text fill="#000000" font-family="sans-serif" font-size="14" lengthAdjust="spacing" textLength="39.6758" x="924.16" y="1372.806">Admin</text><line style="stroke:#181818;stroke-width:0.5;" x1="896.16" x2="965.8358" y1="1384.2" y2="1384.2"/><line style="stroke:#181818;stroke-width:0.5;" x1="896.16" x2="965.8358" y1="1392.2" y2="1392.2"/></g><!--class DonationTest--><g class="entity" data-qualified-name="DonationTest" data-source-line="51" id="ent0021"><rect fill="#F1F1F1" height="48" rx="2.5" ry="2.5" style="stroke:#181818;stroke-width:0.5;" width="115.2576" x="1373.37" y="1185.2"/><ellipse cx="1388.37" cy="1201.2" fill="#ADD1B2" rx="11" ry="11" style="stroke:#181818;stroke-width:1;"/><path d="M1383.37,1202.3563 C1383.37,1204.8563 1385.5106,1206.6688 1388.4325,1206.6688 C1389.6669,1206.6688 1390.8388,1206.3719 1391.5888,1205.8563 C1392.1981,1205.4344 1392.5263,1205.0125 1392.5263,1204.6063 C1392.5263,1204.1375 1392.1044,1203.7313 1391.6044,1203.7313 C1391.37,1203.7313 1391.1513,1203.8094 1390.9481,1204.0125 C1390.5106,1204.45 1390.5106,1204.45 1390.3388,1204.5438 C1389.8856,1204.7781 1389.245,1204.9188 1388.4794,1204.9188 C1386.4794,1204.9188 1385.1981,1203.9031 1385.1981,1202.325 L1385.1981,1201.2781 C1385.1981,1199.575 1386.4169,1198.3719 1388.12,1198.3719 C1388.6981,1198.3719 1389.2763,1198.5125 1389.745,1198.7625 C1390.2138,1199.0281 1390.3856,1199.2156 1390.4481,1199.575 C1390.5731,1200.2469 1390.8231,1200.4969 1391.3544,1200.4969 C1391.6356,1200.4969 1391.9169,1200.3563 1392.1044,1200.1375 C1392.2294,1199.9656 1392.2763,1199.7938 1392.2763,1199.3563 L1392.2763,1197.9969 C1392.2763,1197.575 1392.2606,1197.4344 1392.1356,1197.2625 C1391.9638,1197.0125 1391.6825,1196.8563 1391.3544,1196.8563 C1391.0419,1196.8563 1390.8388,1196.9656 1390.62,1197.2313 C1389.4481,1196.7313 1389.0106,1196.6219 1388.0575,1196.6219 C1385.3856,1196.6219 1383.37,1198.6375 1383.37,1201.2625 L1383.37,1202.3563 Z " fill="#000000"/><text fill="#000000" font-family="sans-serif" font-size="14" lengthAdjust="spacing" textLength="83.2576" x="1402.37" y="1205.806">DonationTest</text><line style="stroke:#181818;stroke-width:0.5;" x1="1374.37" x2="1487.6276" y1="1217.2" y2="1217.2"/><line style="stroke:#181818;stroke-width:0.5;" x1="1374.37" x2="1487.6276" y1="1225.2" y2="1225.2"/></g><!--class Note--><g class="entity" data-qualified-name="Note" data-source-line="61" id="ent0026"><rect fill="#F1F1F1" height="81.5999" rx="2.5" ry="2.5" style="stroke:#181818;stroke-width:0.5;" width="115.4596" x="627.27" y="132.8"/><ellipse cx="666.5213" cy="148.8" fill="#ADD1B2" rx="11" ry="11" style="stroke:#181818;stroke-width:1;"/><path d="M661.5213,149.9562 C661.5213,152.4562 663.6619,154.2687 666.5838,154.2687 C667.8181,154.2687 668.99,153.9719 669.74,153.4562 C670.3494,153.0344 670.6775,152.6125 670.6775,152.2062 C670.6775,151.7375 670.2556,151.3312 669.7556,151.3312 C669.5213,151.3312 669.3025,151.4094 669.0994,151.6125 C668.6619,152.05 668.6619,152.05 668.49,152.1437 C668.0369,152.3781 667.3963,152.5187 666.6306,152.5187 C664.6306,152.5187 663.3494,151.5031 663.3494,149.925 L663.3494,148.8781 C663.3494,147.175 664.5681,145.9719 666.2713,145.9719 C666.8494,145.9719 667.4275,146.1125 667.8963,146.3625 C668.365,146.6281 668.5369,146.8156 668.5994,147.175 C668.7244,147.8469 668.9744,148.0969 669.5056,148.0969 C669.7869,148.0969 670.0681,147.9562 670.2556,147.7375 C670.3806,147.5656 670.4275,147.3937 670.4275,146.9562 L670.4275,145.5969 C670.4275,145.175 670.4119,145.0344 670.2869,144.8625 C670.115,144.6125 669.8338,144.4562 669.5056,144.4562 C669.1931,144.4562 668.99,144.5656 668.7713,144.8312 C667.5994,144.3312 667.1619,144.2219 666.2088,144.2219 C663.5369,144.2219 661.5213,146.2375 661.5213,148.8625 L661.5213,149.9562 Z " fill="#000000"/><text fill="#000000" font-family="sans-serif" font-size="14" lengthAdjust="spacing" textLength="29.5679" x="685.9104" y="153.406">Note</text><line style="stroke:#181818;stroke-width:0.5;" x1="628.27" x2="741.7296" y1="164.8" y2="164.8"/><text fill="#000000" font-family="sans-serif" font-size="14" lengthAdjust="spacing" textLength="103.4596" x="633.27" y="181.8059">time: Timestamp</text><text fill="#000000" font-family="sans-serif" font-size="14" lengthAdjust="spacing" textLength="101.1496" x="633.27" y="198.6059">message: String</text><line style="stroke:#181818;stroke-width:0.5;" x1="628.27" x2="741.7296" y1="206.3999" y2="206.3999"/></g><!--class Appointment--><g class="entity" data-qualified-name="Appointment" data-source-line="66" id="ent0027"><rect fill="#F1F1F1" height="64.7999" rx="2.5" ry="2.5" style="stroke:#181818;stroke-width:0.5;" width="130.2855" x="993.86" y="7"/><ellipse cx="1017.7204" cy="23" fill="#ADD1B2" rx="11" ry="11" style="stroke:#181818;stroke-width:1;"/><path d="M1012.7204,24.1563 C1012.7204,26.6563 1014.861,28.4688 1017.7829,28.4688 C1019.0173,28.4688 1020.1892,28.1719 1020.9392,27.6563 C1021.5485,27.2344 1021.8767,26.8125 1021.8767,26.4063 C1021.8767,25.9375 1021.4548,25.5313 1020.9548,25.5313 C1020.7204,25.5313 1020.5017,25.6094 1020.2985,25.8125 C1019.861,26.25 1019.861,26.25 1019.6892,26.3438 C1019.236,26.5781 1018.5954,26.7188 1017.8298,26.7188 C1015.8298,26.7188 1014.5485,25.7031 1014.5485,24.125 L1014.5485,23.0781 C1014.5485,21.375 1015.7673,20.1719 1017.4704,20.1719 C1018.0485,20.1719 1018.6267,20.3125 1019.0954,20.5625 C1019.5642,20.8281 1019.736,21.0156 1019.7985,21.375 C1019.9235,22.0469 1020.1735,22.2969 1020.7048,22.2969 C1020.986,22.2969 1021.2673,22.1563 1021.4548,21.9375 C1021.5798,21.7656 1021.6267,21.5938 1021.6267,21.1563 L1021.6267,19.7969 C1021.6267,19.375 1021.611,19.2344 1021.486,19.0625 C1021.3142,18.8125 1021.0329,18.6563 1020.7048,18.6563 C1020.3923,18.6563 1020.1892,18.7656 1019.9704,19.0313 C1018.7985,18.5313 1018.361,18.4219 1017.4079,18.4219 C1014.736,18.4219 1012.7204,20.4375 1012.7204,23.0625 L1012.7204,24.1563 Z " fill="#000000"/><text fill="#000000" font-family="sans-serif" font-size="14" lengthAdjust="spacing" textLength="78.5957" x="1033.6894" y="27.606">Appointment</text><line style="stroke:#181818;stroke-width:0.5;" x1="994.86" x2="1123.1455" y1="39" y2="39"/><text fill="#000000" font-family="sans-serif" font-size="14" lengthAdjust="spacing" textLength="118.2855" x="999.86" y="56.0059">cancelled: Boolean</text><line style="stroke:#181818;stroke-width:0.5;" x1="994.86" x2="1123.1455" y1="63.7999" y2="63.7999"/></g><!--class Donation--><g class="entity" data-qualified-name="Donation" data-source-line="73" id="ent0030"><rect fill="#F1F1F1" height="81.5999" rx="2.5" ry="2.5" style="stroke:#181818;stroke-width:0.5;" width="185.5153" x="1282.24" y="244.4"/><ellipse cx="1342.7338" cy="260.4" fill="#ADD1B2" rx="11" ry="11" style="stroke:#181818;stroke-width:1;"/><path d="M1337.7338,261.5563 C1337.7338,264.0563 1339.8744,265.8688 1342.7963,265.8688 C1344.0306,265.8688 1345.2025,265.5719 1345.9525,265.0563 C1346.5619,264.6344 1346.89,264.2125 1346.89,263.8063 C1346.89,263.3375 1346.4681,262.9313 1345.9681,262.9313 C1345.7338,262.9313 1345.515,263.0094 1345.3119,263.2125 C1344.8744,263.65 1344.8744,263.65 1344.7025,263.7438 C1344.2494,263.9781 1343.6088,264.1188 1342.8431,264.1188 C1340.8431,264.1188 1339.5619,263.1031 1339.5619,261.525 L1339.5619,260.4781 C1339.5619,258.775 1340.7806,257.5719 1342.4838,257.5719 C1343.0619,257.5719 1343.64,257.7125 1344.1088,257.9625 C1344.5775,258.2281 1344.7494,258.4156 1344.8119,258.775 C1344.9369,259.4469 1345.1869,259.6969 1345.7181,259.6969 C1345.9994,259.6969 1346.2806,259.5563 1346.4681,259.3375 C1346.5931,259.1656 1346.64,258.9938 1346.64,258.5563 L1346.64,257.1969 C1346.64,256.775 1346.6244,256.6344 1346.4994,256.4625 C1346.3275,256.2125 1346.0463,256.0563 1345.7181,256.0563 C1345.4056,256.0563 1345.2025,256.1656 1344.9838,256.4313 C1343.8119,255.9313 1343.3744,255.8219 1342.4213,255.8219 C1339.7494,255.8219 1337.7338,257.8375 1337.7338,260.4625 L1337.7338,261.5563 Z " fill="#000000"/><text fill="#000000" font-family="sans-serif" font-size="14" lengthAdjust="spacing" textLength="56.0278" x="1363.2338" y="265.006">Donation</text><line style="stroke:#181818;stroke-width:0.5;" x1="1283.24" x2="1466.7553" y1="276.4" y2="276.4"/><text fill="#000000" font-family="sans-serif" font-size="14" lengthAdjust="spacing" textLength="112.0415" x="1288.24" y="293.4059">amountInMl: Float</text><text fill="#000000" font-family="sans-serif" font-size="14" lengthAdjust="spacing" textLength="173.5153" x="1288.24" y="310.2059">isBloodNotPlasma: Boolean</text><line style="stroke:#181818;stroke-width:0.5;" x1="1283.24" x2="1466.7553" y1="317.9999" y2="317.9999"/></g><!--class Bookingslot--><g class="entity" data-qualified-name="Bookingslot" data-source-line="81" id="ent0033"><rect fill="#F1F1F1" height="131.9996" rx="2.5" ry="2.5" style="stroke:#181818;stroke-width:0.5;" width="211.2331" x="984.38" y="950.2"/><ellipse cx="1049.5637" cy="966.2" fill="#ADD1B2" rx="11" ry="11" style="stroke:#181818;stroke-width:1;"/><path d="M1044.5637,967.3563 C1044.5637,969.8563 1046.7043,971.6688 1049.6262,971.6688 C1050.8606,971.6688 1052.0325,971.3719 1052.7825,970.8563 C1053.3918,970.4344 1053.72,970.0125 1053.72,969.6063 C1053.72,969.1375 1053.2981,968.7313 1052.7981,968.7313 C1052.5637,968.7313 1052.345,968.8094 1052.1418,969.0125 C1051.7043,969.45 1051.7043,969.45 1051.5325,969.5438 C1051.0793,969.7781 1050.4387,969.9188 1049.6731,969.9188 C1047.6731,969.9188 1046.3918,968.9031 1046.3918,967.325 L1046.3918,966.2781 C1046.3918,964.575 1047.6106,963.3719 1049.3137,963.3719 C1049.8918,963.3719 1050.47,963.5125 1050.9387,963.7625 C1051.4075,964.0281 1051.5793,964.2156 1051.6418,964.575 C1051.7668,965.2469 1052.0168,965.4969 1052.5481,965.4969 C1052.8293,965.4969 1053.1106,965.3563 1053.2981,965.1375 C1053.4231,964.9656 1053.47,964.7938 1053.47,964.3563 L1053.47,962.9969 C1053.47,962.575 1053.4543,962.4344 1053.3293,962.2625 C1053.1575,962.0125 1052.8762,961.8563 1052.5481,961.8563 C1052.2356,961.8563 1052.0325,961.9656 1051.8137,962.2313 C1050.6418,961.7313 1050.2043,961.6219 1049.2512,961.6219 C1046.5793,961.6219 1044.5637,963.6375 1044.5637,966.2625 L1044.5637,967.3563 Z " fill="#000000"/><text fill="#000000" font-family="sans-serif" font-size="14" lengthAdjust="spacing" textLength="72.3657" x="1070.0637" y="970.806">Bookingslot</text><line style="stroke:#181818;stroke-width:0.5;" x1="985.38" x2="1194.6131" y1="982.2" y2="982.2"/><text fill="#000000" font-family="sans-serif" font-size="14" lengthAdjust="spacing" textLength="103.4596" x="990.38" y="999.2059">time: Timestamp</text><text fill="#000000" font-family="sans-serif" font-size="14" lengthAdjust="spacing" textLength="104.2716" x="990.38" y="1016.0059">duration: Interval</text><text fill="#000000" font-family="sans-serif" font-size="14" lengthAdjust="spacing" textLength="133.0554" x="990.38" y="1032.8058">// Time has to fall into</text><text fill="#000000" font-family="sans-serif" font-size="14" lengthAdjust="spacing" textLength="199.2331" x="990.38" y="1049.6057">// the bloodbanks opening hours</text><text fill="#000000" font-family="sans-serif" font-size="14" lengthAdjust="spacing" textLength="74.7037" x="990.38" y="1066.4057">capacity: Int</text><line style="stroke:#181818;stroke-width:0.5;" x1="985.38" x2="1194.6131" y1="1074.1996" y2="1074.1996"/></g><!--class Location--><g class="entity" data-qualified-name="Location" data-source-line="101" id="ent0037"><rect fill="#F1F1F1" height="81.5999" rx="2.5" ry="2.5" style="stroke:#181818;stroke-width:0.5;" width="107.7176" x="251.14" y="975.4"/><ellipse cx="276.399" cy="991.4" fill="#ADD1B2" rx="11" ry="11" style="stroke:#181818;stroke-width:1;"/><path d="M271.399,992.5563 C271.399,995.0563 273.5396,996.8688 276.4615,996.8688 C277.6959,996.8688 278.8678,996.5719 279.6178,996.0563 C280.2271,995.6344 280.5553,995.2125 280.5553,994.8063 C280.5553,994.3375 280.1334,993.9313 279.6334,993.9313 C279.399,993.9313 279.1803,994.0094 278.9771,994.2125 C278.5396,994.65 278.5396,994.65 278.3678,994.7438 C277.9146,994.9781 277.274,995.1188 276.5084,995.1188 C274.5084,995.1188 273.2271,994.1031 273.2271,992.525 L273.2271,991.4781 C273.2271,989.775 274.4459,988.5719 276.149,988.5719 C276.7271,988.5719 277.3053,988.7125 277.774,988.9625 C278.2428,989.2281 278.4146,989.4156 278.4771,989.775 C278.6021,990.4469 278.8521,990.6969 279.3834,990.6969 C279.6646,990.6969 279.9459,990.5563 280.1334,990.3375 C280.2584,990.1656 280.3053,989.9938 280.3053,989.5563 L280.3053,988.1969 C280.3053,987.775 280.2896,987.6344 280.1646,987.4625 C279.9928,987.2125 279.7115,987.0563 279.3834,987.0563 C279.0709,987.0563 278.8678,987.1656 278.649,987.4313 C277.4771,986.9313 277.0396,986.8219 276.0865,986.8219 C273.4146,986.8219 271.399,988.8375 271.399,991.4625 L271.399,992.5563 Z " fill="#000000"/><text fill="#000000" font-family="sans-serif" font-size="14" lengthAdjust="spacing" textLength="52.9198" x="292.6788" y="996.006">Location</text><line style="stroke:#181818;stroke-width:0.5;" x1="252.14" x2="357.8576" y1="1007.4" y2="1007.4"/><text fill="#000000" font-family="sans-serif" font-size="14" lengthAdjust="spacing" textLength="95.7176" x="257.14" y="1024.4059">longitude: Float</text><text fill="#000000" font-family="sans-serif" font-size="14" lengthAdjust="spacing" textLength="84.0416" x="257.14" y="1041.2059">latitude: Float</text><line style="stroke:#181818;stroke-width:0.5;" x1="252.14" x2="357.8576" y1="1048.9999" y2="1048.9999"/></g><!--class Holiday--><g class="entity" data-qualified-name="Holiday" data-source-line="102" id="ent0039"><rect fill="#F1F1F1" height="98.3998" rx="2.5" ry="2.5" style="stroke:#181818;stroke-width:0.5;" width="124.0415" x="393.98" y="967"/><ellipse cx="429.3946" cy="983" fill="#ADD1B2" rx="11" ry="11" style="stroke:#181818;stroke-width:1;"/><path d="M424.3946,984.1563 C424.3946,986.6563 426.5352,988.4688 429.4571,988.4688 C430.6915,988.4688 431.8633,988.1719 432.6133,987.6563 C433.2227,987.2344 433.5508,986.8125 433.5508,986.4063 C433.5508,985.9375 433.129,985.5313 432.629,985.5313 C432.3946,985.5313 432.1758,985.6094 431.9727,985.8125 C431.5352,986.25 431.5352,986.25 431.3633,986.3438 C430.9102,986.5781 430.2696,986.7188 429.504,986.7188 C427.504,986.7188 426.2227,985.7031 426.2227,984.125 L426.2227,983.0781 C426.2227,981.375 427.4415,980.1719 429.1446,980.1719 C429.7227,980.1719 430.3008,980.3125 430.7696,980.5625 C431.2383,980.8281 431.4102,981.0156 431.4727,981.375 C431.5977,982.0469 431.8477,982.2969 432.379,982.2969 C432.6602,982.2969 432.9415,982.1563 433.129,981.9375 C433.254,981.7656 433.3008,981.5938 433.3008,981.1563 L433.3008,979.7969 C433.3008,979.375 433.2852,979.2344 433.1602,979.0625 C432.9883,978.8125 432.7071,978.6563 432.379,978.6563 C432.0665,978.6563 431.8633,978.7656 431.6446,979.0313 C430.4727,978.5313 430.0352,978.4219 429.0821,978.4219 C426.4102,978.4219 424.3946,980.4375 424.3946,983.0625 L424.3946,984.1563 Z " fill="#000000"/><text fill="#000000" font-family="sans-serif" font-size="14" lengthAdjust="spacing" textLength="46.6758" x="447.9312" y="987.606">Holiday</text><line style="stroke:#181818;stroke-width:0.5;" x1="394.98" x2="517.0215" y1="999" y2="999"/><text fill="#000000" font-family="sans-serif" font-size="14" lengthAdjust="spacing" textLength="112.0415" x="399.98" y="1016.0059">description: String</text><text fill="#000000" font-family="sans-serif" font-size="14" lengthAdjust="spacing" textLength="104.2436" x="399.98" y="1032.8059">start: Timestamp</text><text fill="#000000" font-family="sans-serif" font-size="14" lengthAdjust="spacing" textLength="100.3656" x="399.98" y="1049.6058">end: Timestamp</text><line style="stroke:#181818;stroke-width:0.5;" x1="394.98" x2="517.0215" y1="1057.3998" y2="1057.3998"/></g><!--class RecurringHoliday--><g class="entity" data-qualified-name="RecurringHoliday" data-source-line="103" id="ent0041"><rect fill="#F1F1F1" height="98.3998" rx="2.5" ry="2.5" style="stroke:#181818;stroke-width:0.5;" width="139.3515" x="553.32" y="967"/><ellipse cx="568.32" cy="983" fill="#ADD1B2" rx="11" ry="11" style="stroke:#181818;stroke-width:1;"/><path d="M563.32,984.1563 C563.32,986.6563 565.4606,988.4688 568.3825,988.4688 C569.6169,988.4688 570.7888,988.1719 571.5388,987.6563 C572.1481,987.2344 572.4763,986.8125 572.4763,986.4063 C572.4763,985.9375 572.0544,985.5313 571.5544,985.5313 C571.32,985.5313 571.1013,985.6094 570.8981,985.8125 C570.4606,986.25 570.4606,986.25 570.2888,986.3438 C569.8356,986.5781 569.195,986.7188 568.4294,986.7188 C566.4294,986.7188 565.1481,985.7031 565.1481,984.125 L565.1481,983.0781 C565.1481,981.375 566.3669,980.1719 568.07,980.1719 C568.6481,980.1719 569.2263,980.3125 569.695,980.5625 C570.1638,980.8281 570.3356,981.0156 570.3981,981.375 C570.5231,982.0469 570.7731,982.2969 571.3044,982.2969 C571.5856,982.2969 571.8669,982.1563 572.0544,981.9375 C572.1794,981.7656 572.2263,981.5938 572.2263,981.1563 L572.2263,979.7969 C572.2263,979.375 572.2106,979.2344 572.0856,979.0625 C571.9138,978.8125 571.6325,978.6563 571.3044,978.6563 C570.9919,978.6563 570.7888,978.7656 570.57,979.0313 C569.3981,978.5313 568.9606,978.4219 568.0075,978.4219 C565.3356,978.4219 563.32,980.4375 563.32,983.0625 L563.32,984.1563 Z " fill="#000000"/><text fill="#000000" font-family="sans-serif" font-size="14" lengthAdjust="spacing" textLength="107.3515" x="582.32" y="987.606">RecurringHoliday</text><line style="stroke:#181818;stroke-width:0.5;" x1="554.32" x2="691.6715" y1="999" y2="999"/><text fill="#000000" font-family="sans-serif" font-size="14" lengthAdjust="spacing" textLength="112.0415" x="559.32" y="1016.0059">description: String</text><text fill="#000000" font-family="sans-serif" font-size="14" lengthAdjust="spacing" textLength="120.5955" x="559.32" y="1032.8059">startingCron: String</text><text fill="#000000" font-family="sans-serif" font-size="14" lengthAdjust="spacing" textLength="104.2716" x="559.32" y="1049.6058">duration: Interval</text><line style="stroke:#181818;stroke-width:0.5;" x1="554.32" x2="691.6715" y1="1057.3998" y2="1057.3998"/></g><!--class Timerange--><g class="entity" data-qualified-name="Timerange" data-source-line="120" id="ent0044"><rect fill="#F1F1F1" height="81.5999" rx="2.5" ry="2.5" style="stroke:#181818;stroke-width:0.5;" width="149.7314" x="728.13" y="975.4"/><ellipse cx="766.0016" cy="991.4" fill="#ADD1B2" rx="11" ry="11" style="stroke:#181818;stroke-width:1;"/><path d="M761.0016,992.5563 C761.0016,995.0563 763.1422,996.8688 766.0641,996.8688 C767.2984,996.8688 768.4703,996.5719 769.2203,996.0563 C769.8297,995.6344 770.1578,995.2125 770.1578,994.8063 C770.1578,994.3375 769.7359,993.9313 769.2359,993.9313 C769.0016,993.9313 768.7828,994.0094 768.5797,994.2125 C768.1422,994.65 768.1422,994.65 767.9703,994.7438 C767.5172,994.9781 766.8766,995.1188 766.1109,995.1188 C764.1109,995.1188 762.8297,994.1031 762.8297,992.525 L762.8297,991.4781 C762.8297,989.775 764.0484,988.5719 765.7516,988.5719 C766.3297,988.5719 766.9078,988.7125 767.3766,988.9625 C767.8453,989.2281 768.0172,989.4156 768.0797,989.775 C768.2047,990.4469 768.4547,990.6969 768.9859,990.6969 C769.2672,990.6969 769.5484,990.5563 769.7359,990.3375 C769.8609,990.1656 769.9078,989.9938 769.9078,989.5563 L769.9078,988.1969 C769.9078,987.775 769.8922,987.6344 769.7672,987.4625 C769.5953,987.2125 769.3141,987.0563 768.9859,987.0563 C768.6734,987.0563 768.4703,987.1656 768.2516,987.4313 C767.0797,986.9313 766.6422,986.8219 765.6891,986.8219 C763.0172,986.8219 761.0016,988.8375 761.0016,991.4625 L761.0016,992.5563 Z " fill="#000000"/><text fill="#000000" font-family="sans-serif" font-size="14" lengthAdjust="spacing" textLength="66.9057" x="785.0841" y="996.006">Timerange</text><line style="stroke:#181818;stroke-width:0.5;" x1="729.13" x2="876.8614" y1="1007.4" y2="1007.4"/><text fill="#000000" font-family="sans-serif" font-size="14" lengthAdjust="spacing" textLength="124.5015" x="734.13" y="1024.4059">openingCron: String</text><text fill="#000000" font-family="sans-serif" font-size="14" lengthAdjust="spacing" textLength="137.7314" x="734.13" y="1041.2059">openDuration: Interval</text><line style="stroke:#181818;stroke-width:0.5;" x1="729.13" x2="876.8614" y1="1048.9999" y2="1048.9999"/></g><!--link User to Address--><g class="link" data-entity-1="ent0002" data-entity-2="ent0003" data-link-type="dependency" data-source-line="8" id="lnk4"><path codeLine="8" d="M229.94,454.86 C224.09,592.73 207.6742,980.1054 201.0342,1136.7154" fill="none" id="User-to-Address" style="stroke:#181818;stroke-width:1;"/><polygon fill="#181818" points="200.78,1142.71,205.1577,1133.8875,200.9918,1137.7145,197.1648,1133.5486,200.78,1142.71" style="stroke:#181818;stroke-width:1;"/><text fill="#000000" font-family="sans-serif" font-size="13" lengthAdjust="spacing" textLength="32.513" x="220.89" y="786.577">home</text><text fill="#000000" font-family="sans-serif" font-size="13" lengthAdjust="spacing" textLength="7.228" x="193.7134" y="1131.7272">1</text></g><!--link User to Address--><g class="link" data-entity-1="ent0002" data-entity-2="ent0003" data-link-type="dependency" data-source-line="9" id="lnk5"><path codeLine="9" d="M159.36,452.98 C126.12,480.51 94,518.72 94,563.6 C94,563.6 94,563.6 94,1017.2 C94,1062.89 113.7843,1103.138 138.2943,1138.078" fill="none" id="User-to-Address-1" style="stroke:#181818;stroke-width:1;"/><polygon fill="#181818" points="141.74,1142.99,139.8461,1133.3249,138.8686,1138.8967,133.2968,1137.9192,141.74,1142.99" style="stroke:#181818;stroke-width:1;"/><text fill="#000000" font-family="sans-serif" font-size="13" lengthAdjust="spacing" textLength="66.4691" x="95" y="786.577">alternatives</text><text fill="#000000" font-family="sans-serif" font-size="13" lengthAdjust="spacing" textLength="19.513" x="115.1658" y="1131.579">0..*</text></g><!--reverse link User to Donor--><g class="link" data-entity-1="ent0002" data-entity-2="ent0006" data-link-type="extension" data-source-line="12" id="lnk7"><path d="M322.4004,429.7211 C419.6704,455.0211 576.33,495.78 698.81,527.65" fill="none" id="User-backto-Donor" style="stroke:#181818;stroke-width:1;"/><polygon fill="none" points="304.98,425.19,320.89,435.5278,323.9107,423.9143,304.98,425.19" style="stroke:#181818;stroke-width:1;"/></g><!--link Donor to TestResult--><g class="link" data-entity-1="ent0006" data-entity-2="ent0009" data-link-type="dependency" data-source-line="27" id="lnk10"><path codeLine="27" d="M873.78,614.21 C900.54,649.57 932.9992,692.4656 959.7292,727.7856" fill="none" id="Donor-to-TestResult" style="stroke:#181818;stroke-width:1;"/><polygon fill="#181818" points="963.35,732.57,961.1084,722.9796,960.3327,728.583,954.7293,727.8073,963.35,732.57" style="stroke:#181818;stroke-width:1;"/><text fill="#000000" font-family="sans-serif" font-size="13" lengthAdjust="spacing" textLength="19.513" x="937.6094" y="721.3295">0..*</text></g><!--link Donor to Bloodbank--><g class="link" data-entity-1="ent0006" data-entity-2="ent0011" data-link-type="dependency" data-source-line="28" id="lnk12"><path codeLine="28" d="M788.71,614.21 C753.57,649.57 710.4388,692.9935 675.3488,728.3135" fill="none" id="Donor-to-Bloodbank" style="stroke:#181818;stroke-width:1;"/><polygon fill="#181818" points="671.12,732.57,680.3008,729.0045,674.644,729.0229,674.6255,723.3661,671.12,732.57" style="stroke:#181818;stroke-width:1;"/><text fill="#000000" font-family="sans-serif" font-size="13" lengthAdjust="spacing" textLength="51.2981" x="756.46" y="656.877">prefers a</text><text fill="#000000" font-family="sans-serif" font-size="13" lengthAdjust="spacing" textLength="7.228" x="670.691" y="721.3295">1</text></g><!--link TestResult to Form--><g class="link" data-entity-1="ent0009" data-entity-2="ent0013" data-link-type="dependency" data-source-line="36" id="lnk14"><path codeLine="36" d="M1063.73,831.68 C1123.45,877.29 1206.2115,940.5083 1257.5015,979.6783" fill="none" id="TestResult-to-Form" style="stroke:#181818;stroke-width:1;"/><polygon fill="#181818" points="1262.27,983.32,1257.5451,974.6785,1258.2963,980.2853,1252.6895,981.0365,1262.27,983.32" style="stroke:#181818;stroke-width:1;"/><text fill="#000000" font-family="sans-serif" font-size="13" lengthAdjust="spacing" textLength="7.228" x="1245.9641" y="972.1305">1</text></g><!--reverse link Form to EntryForm--><g class="link" data-entity-1="ent0013" data-entity-2="ent0015" data-link-type="extension" data-source-line="43" id="lnk16"><path d="M1300.3712,1066.6916 C1297.5612,1104.9416 1294.22,1150.57 1291.72,1184.75" fill="none" id="Form-backto-EntryForm" style="stroke:#181818;stroke-width:1;"/><polygon fill="none" points="1301.69,1048.74,1294.3873,1066.252,1306.3551,1067.1312,1301.69,1048.74" style="stroke:#181818;stroke-width:1;"/></g><!--reverse link Form to Interview--><g class="link" data-entity-1="ent0013" data-entity-2="ent0017" data-link-type="extension" data-source-line="47" id="lnk18"><path d="M1260.9265,1061.6691 C1223.8765,1099.9191 1174.82,1150.57 1141.71,1184.75" fill="none" id="Form-backto-Interview" style="stroke:#181818;stroke-width:1;"/><polygon fill="none" points="1273.45,1048.74,1256.6168,1057.4946,1265.2362,1065.8436,1273.45,1048.74" style="stroke:#181818;stroke-width:1;"/></g><!--link Interview to Admin--><g class="link" data-entity-1="ent0017" data-entity-2="ent0019" data-link-type="dependency" data-source-line="49" id="lnk20"><path codeLine="49" d="M1092.46,1233.49 C1056.73,1264.85 998.0294,1316.3721 962.2194,1347.8021" fill="none" id="Interview-to-Admin" style="stroke:#181818;stroke-width:1;"/><polygon fill="#181818" points="957.71,1351.76,967.1128,1348.8295,961.4679,1348.4618,961.8356,1342.8169,957.71,1351.76" style="stroke:#181818;stroke-width:1;"/><text fill="#000000" font-family="sans-serif" font-size="13" lengthAdjust="spacing" textLength="41.912" x="1009.16" y="1318.277">held by</text><text fill="#000000" font-family="sans-serif" font-size="13" lengthAdjust="spacing" textLength="7.228" x="956.6873" y="1340.7293">1</text></g><!--reverse link Form to DonationTest--><g class="link" data-entity-1="ent0013" data-entity-2="ent0021" data-link-type="extension" data-source-line="52" id="lnk22"><path d="M1334.9356,1063.7296 C1360.3656,1101.9796 1392.68,1150.57 1415.41,1184.75" fill="none" id="Form-backto-DonationTest" style="stroke:#181818;stroke-width:1;"/><polygon fill="none" points="1324.97,1048.74,1329.9391,1067.0514,1339.9321,1060.4077,1324.97,1048.74" style="stroke:#181818;stroke-width:1;"/></g><!--link Donor to Bloodtype--><g class="link" data-entity-1="ent0006" data-entity-2="ent0008" data-link-type="dependency" data-source-line="55" id="lnk23"><path codeLine="55" d="M837,614.21 C837,636.79 837,658.4 837,684.6" fill="none" id="Donor-to-Bloodtype" style="stroke:#181818;stroke-width:1;"/><polygon fill="#181818" points="837,690.6,841,681.6,837,685.6,833,681.6,837,690.6" style="stroke:#181818;stroke-width:1;"/><text fill="#000000" font-family="sans-serif" font-size="13" lengthAdjust="spacing" textLength="7.228" x="829.7091" y="679.2036">1</text></g><!--reverse link User to Admin--><g class="link" data-entity-1="ent0002" data-entity-2="ent0019" data-link-type="extension" data-source-line="57" id="lnk24"><path d="M142.1062,429.6154 C76.0362,450.7554 6,487.58 6,563.6 C6,563.6 6,563.6 6,1210.2 C6,1265.08 59.22,1257.01 111,1275.2 C259.5,1327.37 756.19,1363.59 894.8,1372.86" fill="none" id="User-backto-Admin" style="stroke:#181818;stroke-width:1;"/><polygon fill="none" points="159.25,424.13,140.2777,423.9008,143.9347,435.33,159.25,424.13" style="stroke:#181818;stroke-width:1;"/></g><!--link Bloodbank to Admin--><g class="link" data-entity-1="ent0011" data-entity-2="ent0019" data-link-type="dependency" data-source-line="59" id="lnk25"><path codeLine="59" d="M703.54,831.67 C748.08,858.63 798.79,889.41 821,903.2 C854.1,923.76 874.81,916.88 895,950.2 C975.58,1083.2 949.2617,1278.0783 936.8217,1345.9483" fill="none" id="Bloodbank-to-Admin" style="stroke:#181818;stroke-width:1;"/><polygon fill="#181818" points="935.74,1351.85,941.297,1343.7186,936.6414,1346.9319,933.4281,1342.2763,935.74,1351.85" style="stroke:#181818;stroke-width:1;"/><text fill="#000000" font-family="sans-serif" font-size="13" lengthAdjust="spacing" textLength="19.513" x="693.6754" y="851.1104">0..*</text><text fill="#000000" font-family="sans-serif" font-size="13" lengthAdjust="spacing" textLength="19.513" x="915.5865" y="1340.8423">1..*</text></g><!--reverse link Appointment to Note--><g class="link" data-entity-1="ent0027" data-entity-2="ent0026" data-link-type="dependency" data-source-line="66" id="lnk28"><path codeLine="66" d="M988.0619,65.4164 C955.4119,76.9364 920.94,89.1 885,101.8 C837.25,118.68 783.1,137.85 743.19,151.98" fill="none" id="Appointment-backto-Note" style="stroke:#181818;stroke-width:1;"/><polygon fill="#181818" points="993.72,63.42,983.9019,62.6425,989.0049,65.0836,986.5637,70.1867,993.72,63.42" style="stroke:#181818;stroke-width:1;"/><text fill="#000000" font-family="sans-serif" font-size="13" lengthAdjust="spacing" textLength="7.228" x="978.7802" y="62.4418">1</text></g><!--link Note to User--><g class="link" data-entity-1="ent0026" data-entity-2="ent0002" data-link-type="dependency" data-source-line="67" id="lnk29"><path codeLine="67" d="M627.17,203.91 C545,245.56 399.8519,319.1276 310.1719,364.5776" fill="none" id="Note-to-User" style="stroke:#181818;stroke-width:1;"/><polygon fill="#181818" points="304.82,367.29,314.6561,366.7894,309.2799,365.0297,311.0396,359.6535,304.82,367.29" style="stroke:#181818;stroke-width:1;"/><text fill="#000000" font-family="sans-serif" font-size="13" lengthAdjust="spacing" textLength="60.6971" x="539.47" y="289.777">created by</text><text fill="#000000" font-family="sans-serif" font-size="13" lengthAdjust="spacing" textLength="7.228" x="312.7025" y="359.7151">1</text></g><!--link Donation to DonationTest--><g class="link" data-entity-1="ent0030" data-entity-2="ent0021" data-link-type="dependency" data-source-line="78" id="lnk31"><path codeLine="78" d="M1393.34,326.26 C1409.67,365.65 1431,427.91 1431,484.4 C1431,484.4 1431,484.4 1431,1017.2 C1431,1077.72 1431,1143.02 1431,1178.97" fill="none" id="Donation-to-DonationTest" style="stroke:#181818;stroke-width:1;"/><polygon fill="#181818" points="1431,1184.97,1435,1175.97,1431,1179.97,1427,1175.97,1431,1184.97" style="stroke:#181818;stroke-width:1;"/><text fill="#000000" font-family="sans-serif" font-size="13" lengthAdjust="spacing" textLength="21.684" x="1407.2704" y="1173.6002">0..1</text></g><!--link Appointment to Donation--><g class="link" data-entity-1="ent0027" data-entity-2="ent0030" data-link-type="dependency" data-source-line="80" id="lnk32"><path codeLine="80" d="M1114.79,72.17 C1129.78,81.28 1145.77,91.54 1160,101.8 C1222.53,146.9 1285.0611,201.5132 1327.3411,239.9632" fill="none" id="Appointment-to-Donation" style="stroke:#181818;stroke-width:1;"/><polygon fill="#181818" points="1331.78,244,1327.8128,234.9855,1328.0809,240.636,1322.4304,240.9041,1331.78,244" style="stroke:#181818;stroke-width:1;"/><text fill="#000000" font-family="sans-serif" font-size="13" lengthAdjust="spacing" textLength="21.684" x="1301.6061" y="232.7583">0..1</text></g><!--link Appointment to Bookingslot--><g class="link" data-entity-1="ent0027" data-entity-2="ent0033" data-link-type="dependency" data-source-line="81" id="lnk34"><path codeLine="81" d="M1089.29,72.09 C1110.1,97.27 1134,134.47 1134,172.6 C1134,172.6 1134,172.6 1134,783 C1134,840.03 1122.5225,897.7786 1110.6625,943.9586" fill="none" id="Appointment-to-Bookingslot" style="stroke:#181818;stroke-width:1;"/><polygon fill="#181818" points="1109.17,949.77,1115.283,942.0479,1110.4137,944.9272,1107.5345,940.0579,1109.17,949.77" style="stroke:#181818;stroke-width:1;"/><text fill="#000000" font-family="sans-serif" font-size="13" lengthAdjust="spacing" textLength="7.228" x="1103.8968" y="938.7938">1</text></g><!--link Appointment to Donor--><g class="link" data-entity-1="ent0027" data-entity-2="ent0006" data-link-type="dependency" data-source-line="82" id="lnk35"><path codeLine="82" d="M1045.61,71.95 C1008.21,160.1 904.7536,403.9167 859.8736,509.6867" fill="none" id="Appointment-to-Donor" style="stroke:#181818;stroke-width:1;"/><polygon fill="#181818" points="857.53,515.21,864.7277,508.4874,859.483,510.6072,857.3632,505.3626,857.53,515.21" style="stroke:#181818;stroke-width:1;"/><text fill="#000000" font-family="sans-serif" font-size="13" lengthAdjust="spacing" textLength="19.513" x="1022.1535" y="91.9709">0..*</text><text fill="#000000" font-family="sans-serif" font-size="13" lengthAdjust="spacing" textLength="7.228" x="853.0477" y="503.9754">1</text></g><!--reverse link Bloodbank to Bookingslot--><g class="link" data-entity-1="ent0011" data-entity-2="ent0033" data-link-type="dependency" data-source-line="92" id="lnk36"><path codeLine="92" d="M695.7524,834.7048 C720.3324,850.2348 743.9,862.86 772,873.2 C850.17,901.96 881.3,868.45 957,903.2 C981.97,914.66 1005.99,932.12 1026.58,949.88" fill="none" id="Bloodbank-backto-Bookingslot" style="stroke:#181818;stroke-width:1;"/><polygon fill="#181818" points="690.68,831.5,696.152,839.6888,694.907,834.1707,700.4251,832.9256,690.68,831.5" style="stroke:#181818;stroke-width:1;"/><text fill="#000000" font-family="sans-serif" font-size="13" lengthAdjust="spacing" textLength="7.228" x="692.3201" y="851.2767">1</text><text fill="#000000" font-family="sans-serif" font-size="13" lengthAdjust="spacing" textLength="19.513" x="999.1787" y="938.4563">0..*</text></g><!--link Bloodbank to Location--><g class="link" data-entity-1="ent0011" data-entity-2="ent0037" data-link-type="dependency" data-source-line="101" id="lnk38"><path codeLine="101" d="M545.01,831.61 C495.35,863.58 430.37,907.29 376,950.2 C366.29,957.86 360.726,962.512 351.366,970.952" fill="none" id="Bloodbank-to-Location" style="stroke:#181818;stroke-width:1;"/><polygon fill="#181818" points="346.91,974.97,356.2726,971.9137,350.6233,971.6217,350.9153,965.9724,346.91,974.97" style="stroke:#181818;stroke-width:1;"/><text fill="#000000" font-family="sans-serif" font-size="13" lengthAdjust="spacing" textLength="7.228" x="346.2907" y="964.0258">1</text></g><!--link Bloodbank to Holiday--><g class="link" data-entity-1="ent0011" data-entity-2="ent0039" data-link-type="dependency" data-source-line="102" id="lnk40"><path codeLine="102" d="M587.99,831.68 C559.49,871.31 522.9535,922.1091 494.4635,961.7191" fill="none" id="Bloodbank-to-Holiday" style="stroke:#181818;stroke-width:1;"/><polygon fill="#181818" points="490.96,966.59,499.4625,961.6193,493.8796,962.5309,492.9679,956.948,490.96,966.59" style="stroke:#181818;stroke-width:1;"/><text fill="#000000" font-family="sans-serif" font-size="13" lengthAdjust="spacing" textLength="19.513" x="475.737" y="955.3231">0..*</text></g><!--link Bloodbank to RecurringHoliday--><g class="link" data-entity-1="ent0011" data-entity-2="ent0041" data-link-type="dependency" data-source-line="103" id="lnk42"><path codeLine="103" d="M623,831.68 C623,871.31 623,920.98 623,960.59" fill="none" id="Bloodbank-to-RecurringHoliday" style="stroke:#181818;stroke-width:1;"/><polygon fill="#181818" points="623,966.59,627,957.59,623,961.59,619,957.59,623,966.59" style="stroke:#181818;stroke-width:1;"/><text fill="#000000" font-family="sans-serif" font-size="13" lengthAdjust="spacing" textLength="19.513" x="602.643" y="955.3231">0..*</text></g><!--link Location to Address--><g class="link" data-entity-1="ent0037" data-entity-2="ent0003" data-link-type="dependency" data-source-line="110" id="lnk43"><path codeLine="110" d="M282.57,1057.24 C268.66,1082.07 253.3926,1109.3255 237.4426,1137.7955" fill="none" id="Location-to-Address" style="stroke:#181818;stroke-width:1;"/><polygon fill="#181818" points="234.51,1143.03,242.3985,1137.1333,236.9538,1138.6679,235.4192,1133.2232,234.51,1143.03" style="stroke:#181818;stroke-width:1;"/><text fill="#000000" font-family="sans-serif" font-size="13" lengthAdjust="spacing" textLength="21.684" x="216.5566" y="1131.6236">0..1</text></g><!--link Bloodbank to Timerange--><g class="link" data-entity-1="ent0011" data-entity-2="ent0044" data-link-type="dependency" data-source-line="120" id="lnk45"><path codeLine="120" d="M660.73,831.68 C693.72,874.23 737.3748,930.5374 768.2248,970.3474" fill="none" id="Bloodbank-to-Timerange" style="stroke:#181818;stroke-width:1;"/><polygon fill="#181818" points="771.9,975.09,769.5489,965.5259,768.8373,971.1378,763.2254,970.4262,771.9,975.09" style="stroke:#181818;stroke-width:1;"/><text fill="#000000" font-family="sans-serif" font-size="13" lengthAdjust="spacing" textLength="82.3811" x="730.12" y="916.277">opening hours</text><text fill="#000000" font-family="sans-serif" font-size="13" lengthAdjust="spacing" textLength="5.057" x="761.1306" y="963.8637">*</text></g><?plantuml-src XLNRRjim37ttLn1vt91sUms60ScwOWNMhkYw3r1ifX4gYuOajmk6_lj8-YOd6VOIoEBjyF1GAPs94Nv53F2d0F2cnXNyJC7w9_x4MsDTzjtioUDTMsynZBTlHQ7Xo-NdnSS5hAigO8mhMEofniLa-t1nyIut6vSmU9Fi2yP5KPGAv8ey1S3V2NsLmIgfhj6deIPSNdBybje4DLus0NSOq9UI1y1wpljY6FOLkcGUROry6nsb-yanp_GbaESkqBSrR1nHbGuDQjaVI_bvppzh_P7FZPmsSbhhSSrdfg03FlNvY34zO6nTcamW_6Y5hV7FJ467F88P-v_2542oCWvf8IPJDtp3ZTdAfiDL6vWwyYkuwVi5xLtj9c6rWWsHGoEj5LdQVapN5EgXg9or73q_4gFby5bqv_NLft1Grs4yVTpaqa6n-7h6PRADGgcj5vcWgs1xo2MWdGdcSwNEq2a36y8rxP62E6ga7Re1AOXUaHmmHDzHmdympwTedZ3N_RffYEKcqXGmdvPBJL1ebW6XGE0sou0obhpJB5n5RbYPpXsDRawAOZCrjJxT-5lM-BKZasJoKJlaolSSK9jPZZ6wroUZobcUDwAuvqwdTc6Uw9bvaCMQ4p7mgruwhQ6BBEGynzM9glcILrHyO6yY98ATSKwMdA2pfJt2TfXk16hGosBlgGrHMMrCoGkZAOkv4dHa_SBcxGnmHyypJoDNNdTrOTj6vXy2yZv7tmsv1rVpojd6pH2-shI7okvsmfPaZSKSLxyWtwdis9zREhZVIFRySDRsW6KR1ERWrFSp9DHs7FadczeA9mqvjkOt36eCoLJHF-7Jmkcd9eqf8AOZflhB-Ry6_vSGJzsL9FLaD3mg7TFeK8hAmo5Vk5cti91tbfKHZ9UzNCn6FpsfWqVtn7K-ykPdfUJsz4MTrgydKZDK6CjWcyurQzA4D1SpFq3vnPZiU3p_oteAzyoQlFq5?></g></svg>