<?plantuml 1.2026.1?><svg xmlns="http://www.w3.org/2000/svg" xmlns:xlink="http://www.w3.org/1999/xlink" contentStyleType="text/css" data-diagram-type="ACTIVITY" height="386px" preserveAspectRatio="none" style="width:675px;height:386px;background:#FFFFFF;" version="1.1" viewBox="0 0 675 386" width="675px" zoomAndPan="magnify"><defs/><g><ellipse cx="408.9204" cy="20" fill="#222222" rx="10" ry="10" style="stroke:#222222;stroke-width:1;"/><rect fill="#F1F1F1" height="34.4001" rx="12.5" ry="12.5" style="stroke:#181818;stroke-width:0.5;" width="154.041" x="331.8999" y="50"/><text fill="#000000" font-family="sans-serif" font-size="12" lengthAdjust="spacing" textLength="134.041" x="341.8999" y="71.1481">User selects booking-slot</text><polygon fill="#F1F1F1" points="240.2531,104.4001,577.5876,104.4001,589.5876,116.4001,577.5876,128.4001,240.2531,128.4001,228.2531,116.4001,240.2531,104.4001" style="stroke:#181818;stroke-width:0.5;"/><text fill="#000000" font-family="sans-serif" font-size="11" lengthAdjust="spacing" textLength="337.3345" x="240.2531" y="120.0191">Within opening hours? (See check in "Verify opening hours" diagram)</text><text fill="#000000" font-family="sans-serif" font-size="11" lengthAdjust="spacing" textLength="18.9529" x="209.3003" y="113.4191">Yes</text><text fill="#000000" font-family="sans-serif" font-size="11" lengthAdjust="spacing" textLength="14.0579" x="589.5876" y="113.4191">No</text><polygon fill="#F1F1F1" points="170.5685,138.4001,265.9378,138.4001,277.9378,150.4001,265.9378,162.4001,170.5685,162.4001,158.5685,150.4001,170.5685,138.4001" style="stroke:#181818;stroke-width:0.5;"/><text fill="#000000" font-family="sans-serif" font-size="11" lengthAdjust="spacing" textLength="95.3693" x="170.5685" y="154.0191">Capacity available?</text><text fill="#000000" font-family="sans-serif" font-size="11" lengthAdjust="spacing" textLength="18.9529" x="139.6156" y="147.4191">Yes</text><text fill="#000000" font-family="sans-serif" font-size="11" lengthAdjust="spacing" textLength="14.0579" x="277.9378" y="147.4191">No</text><rect fill="none" height="160.6001" style="stroke:#000000;stroke-width:1.5;" width="210.7612" x="11" y="172.4001"/><path d="M62.2298,172.4001 L62.2298,182.2 L52.2298,192.2 L11,192.2" fill="none" style="stroke:#000000;stroke-width:1.5;"/><text fill="#000000" font-family="sans-serif" font-size="14" lengthAdjust="spacing" textLength="41.2298" x="14" y="186.406">atomic</text><rect fill="#F1F1F1" height="34.4001" rx="12.5" ry="12.5" style="stroke:#181818;stroke-width:0.5;" width="126.0327" x="53.3642" y="209.2"/><text fill="#000000" font-family="sans-serif" font-size="12" lengthAdjust="spacing" textLength="106.0327" x="63.3642" y="230.3481">Decrement capacity</text><rect fill="#F1F1F1" height="34.4001" rx="12.5" ry="12.5" style="stroke:#181818;stroke-width:0.5;" width="190.7612" x="21" y="278.6001"/><text fill="#000000" font-family="sans-serif" font-size="12" lengthAdjust="spacing" textLength="170.7612" x="31" y="299.7482">Create appointment in database</text><rect fill="#F1F1F1" height="34.4001" rx="12.5" ry="12.5" style="stroke:#181818;stroke-width:0.5;" width="130.7008" x="254.7753" y="172.4001"/><text fill="#000000" font-family="sans-serif" font-size="12" lengthAdjust="spacing" textLength="110.7008" x="264.7753" y="193.5482">Show error message</text><rect fill="#F1F1F1" height="34.4001" rx="12.5" ry="12.5" style="stroke:#181818;stroke-width:0.5;" width="156.7289" x="241.7612" y="241.8002"/><text fill="#000000" font-family="sans-serif" font-size="12" lengthAdjust="spacing" textLength="136.7289" x="251.7612" y="262.9483">Booking-slot not available</text><ellipse cx="320.1256" cy="322.2003" fill="none" rx="11" ry="11" style="stroke:#222222;stroke-width:1;"/><ellipse cx="320.1256" cy="322.2003" fill="#222222" rx="6" ry="6" style="stroke:#222222;stroke-width:1;"/><rect fill="#F1F1F1" height="34.4001" rx="12.5" ry="12.5" style="stroke:#181818;stroke-width:0.5;" width="130.7008" x="534.2373" y="138.4001"/><text fill="#000000" font-family="sans-serif" font-size="12" lengthAdjust="spacing" textLength="110.7008" x="544.2373" y="159.5482">Show error message</text><rect fill="#F1F1F1" height="34.4001" rx="12.5" ry="12.5" style="stroke:#181818;stroke-width:0.5;" width="122.7087" x="538.2333" y="207.8002"/><text fill="#000000" font-family="sans-serif" font-size="12" lengthAdjust="spacing" textLength="102.7087" x="548.2333" y="228.9483">Invalid booking-slot</text><ellipse cx="599.5876" cy="288.2003" fill="none" rx="11" ry="11" style="stroke:#222222;stroke-width:1;"/><ellipse cx="599.5876" cy="288.2003" fill="#222222" rx="6" ry="6" style="stroke:#222222;stroke-width:1;"/><ellipse cx="408.9204" cy="364.2003" fill="none" rx="11" ry="11" style="stroke:#222222;stroke-width:1;"/><ellipse cx="408.9204" cy="364.2003" fill="#222222" rx="6" ry="6" style="stroke:#222222;stroke-width:1;"/><line style="stroke:#181818;stroke-width:1;" x1="408.9204" x2="408.9204" y1="30" y2="50"/><polygon fill="#181818" points="404.9204,40,408.9204,50,412.9204,40,408.9204,44" style="stroke:#181818;stroke-width:1;"/><line style="stroke:#181818;stroke-width:1;" x1="116.3806" x2="116.3806" y1="243.6001" y2="278.6001"/><polygon fill="#181818" points="112.3806,268.6001,116.3806,278.6001,120.3806,268.6001,116.3806,272.6001" style="stroke:#181818;stroke-width:1;"/><line style="stroke:#181818;stroke-width:1;" x1="320.1256" x2="320.1256" y1="206.8002" y2="241.8002"/><polygon fill="#181818" points="316.1256,231.8002,320.1256,241.8002,324.1256,231.8002,320.1256,235.8002" style="stroke:#181818;stroke-width:1;"/><line style="stroke:#181818;stroke-width:1;" x1="320.1256" x2="320.1256" y1="276.2003" y2="311.2003"/><polygon fill="#181818" points="316.1256,301.2003,320.1256,311.2003,324.1256,301.2003,320.1256,305.2003" style="stroke:#181818;stroke-width:1;"/><line style="stroke:#181818;stroke-width:1;" x1="158.5685" x2="116.3806" y1="150.4001" y2="150.4001"/><line style="stroke:#181818;stroke-width:1;" x1="116.3806" x2="116.3806" y1="150.4001" y2="209.2"/><polygon fill="#181818" points="112.3806,199.2,116.3806,209.2,120.3806,199.2,116.3806,203.2" style="stroke:#181818;stroke-width:1;"/><line style="stroke:#181818;stroke-width:1;" x1="277.9378" x2="320.1256" y1="150.4001" y2="150.4001"/><line style="stroke:#181818;stroke-width:1;" x1="320.1256" x2="320.1256" y1="150.4001" y2="172.4001"/><polygon fill="#181818" points="316.1256,162.4001,320.1256,172.4001,324.1256,162.4001,320.1256,166.4001" style="stroke:#181818;stroke-width:1;"/><line style="stroke:#181818;stroke-width:1;" x1="116.3806" x2="116.3806" y1="313.0002" y2="338.2003"/><line style="stroke:#181818;stroke-width:1;" x1="116.3806" x2="408.9204" y1="338.2003" y2="338.2003"/><line style="stroke:#181818;stroke-width:1;" x1="408.9204" x2="408.9204" y1="338.2003" y2="353.2003"/><polygon fill="#181818" points="404.9204,343.2003,408.9204,353.2003,412.9204,343.2003,408.9204,347.2003" style="stroke:#181818;stroke-width:1;"/><line style="stroke:#181818;stroke-width:1;" x1="599.5876" x2="599.5876" y1="172.8002" y2="207.8002"/><polygon fill="#181818" points="595.5876,197.8002,599.5876,207.8002,603.5876,197.8002,599.5876,201.8002" style="stroke:#181818;stroke-width:1;"/><line style="stroke:#181818;stroke-width:1;" x1="599.5876" x2="599.5876" y1="242.2003" y2="277.2003"/><polygon fill="#181818" points="595.5876,267.2003,599.5876,277.2003,603.5876,267.2003,599.5876,271.2003" style="stroke:#181818;stroke-width:1;"/><line style="stroke:#181818;stroke-width:1;" x1="228.2531" x2="218.2531" y1="116.4001" y2="116.4001"/><line style="stroke:#181818;stroke-width:1;" x1="218.2531" x2="218.2531" y1="116.4001" y2="138.4001"/><polygon fill="#181818" points="214.2531,128.4001,218.2531,138.4001,222.2531,128.4001,218.2531,132.4001" style="stroke:#181818;stroke-width:1;"/><line style="stroke:#181818;stroke-width:1;" x1="589.5876" x2="599.5876" y1="116.4001" y2="116.4001"/><line style="stroke:#181818;stroke-width:1;" x1="599.5876" x2="599.5876" y1="116.4001" y2="138.4001"/><polygon fill="#181818" points="595.5876,128.4001,599.5876,138.4001,603.5876,128.4001,599.5876,132.4001" style="stroke:#181818;stroke-width:1;"/><line style="stroke:#181818;stroke-width:1;" x1="408.9204" x2="408.9204" y1="84.4001" y2="104.4001"/><polygon fill="#181818" points="404.9204,94.4001,408.9204,104.4001,412.9204,94.4001,408.9204,98.4001" style="stroke:#181818;stroke-width:1;"/><?plantuml-src TP2nJiCm48PtFyMlJid02wH39Sh2mb81Ohmub-HKnxRiewX2l3jE4r2fn63Byl_fkr-NbP8QqpndJiZis6f66y9H_72NNT2jCTAZUXKTnID4zYN16DvJtg4wCCEER8yeuUQ5a_Jdlz06dT2GQAfhwCWUrHldsW2pTK-HhEWPT29nr3hUtL10B0L59PG_qZ29hV5v2O3cWMtYYRt2hgRjJxHFJCgW68DulJ2bOaTABMLUiAzoiykCwYaimvh363x0AOM4YNEcOKMR-wkTm9VpMta1ieOuwtmdlRcM_gDi7ls9d7Gtorv5YyRCxsy0?></g></svg>