<?plantuml 1.2026.1?><svg xmlns="http://www.w3.org/2000/svg" xmlns:xlink="http://www.w3.org/1999/xlink" contentStyleType="text/css" data-diagram-type="ACTIVITY" height="267px" preserveAspectRatio="none" style="width:670px;height:267px;background:#FFFFFF;" version="1.1" viewBox="0 0 670 267" width="670px" zoomAndPan="magnify"><defs/><g><ellipse cx="308.7179" cy="20" fill="#222222" rx="10" ry="10" style="stroke:#222222;stroke-width:1;"/><rect fill="#F1F1F1" height="34.4001" rx="12.5" ry="12.5" style="stroke:#181818;stroke-width:0.5;" width="190.0652" x="213.6853" y="50"/><text fill="#000000" font-family="sans-serif" font-size="12" lengthAdjust="spacing" textLength="170.0652" x="223.6853" y="71.1481">Admin creates new booking-slot</text><polygon fill="#F1F1F1" points="140.0507,104.4001,477.3852,104.4001,489.3852,116.4001,477.3852,128.4001,140.0507,128.4001,128.0507,116.4001,140.0507,104.4001" style="stroke:#181818;stroke-width:0.5;"/><text fill="#000000" font-family="sans-serif" font-size="11" lengthAdjust="spacing" textLength="337.3345" x="140.0507" y="120.0191">Within opening hours? (See check in "Verify opening hours" diagram)</text><text fill="#000000" font-family="sans-serif" font-size="11" lengthAdjust="spacing" textLength="18.9529" x="109.0978" y="113.4191">Yes</text><text fill="#000000" font-family="sans-serif" font-size="11" lengthAdjust="spacing" textLength="14.0579" x="489.3852" y="113.4191">No</text><rect fill="#F1F1F1" height="34.4001" rx="12.5" ry="12.5" style="stroke:#181818;stroke-width:0.5;" width="214.1013" x="11" y="138.4001"/><text fill="#000000" font-family="sans-serif" font-size="12" lengthAdjust="spacing" textLength="194.1013" x="21" y="159.5482">Create new booking slot in database</text><rect fill="#F1F1F1" height="34.4001" rx="12.5" ry="12.5" style="stroke:#181818;stroke-width:0.5;" width="320.6501" x="339.0602" y="138.4001"/><text fill="#000000" font-family="sans-serif" font-size="12" lengthAdjust="spacing" textLength="300.6501" x="349.0602" y="159.5482">Show error message "Booking-slot not in opening hours"</text><ellipse cx="499.3852" cy="203.8002" fill="none" rx="11" ry="11" style="stroke:#222222;stroke-width:1;"/><ellipse cx="499.3852" cy="203.8002" fill="#222222" rx="6" ry="6" style="stroke:#222222;stroke-width:1;"/><ellipse cx="308.7179" cy="245.8002" fill="none" rx="11" ry="11" style="stroke:#222222;stroke-width:1;"/><ellipse cx="308.7179" cy="245.8002" fill="#222222" rx="6" ry="6" style="stroke:#222222;stroke-width:1;"/><line style="stroke:#181818;stroke-width:1;" x1="308.7179" x2="308.7179" y1="30" y2="50"/><polygon fill="#181818" points="304.7179,40,308.7179,50,312.7179,40,308.7179,44" style="stroke:#181818;stroke-width:1;"/><line style="stroke:#181818;stroke-width:1;" x1="499.3852" x2="499.3852" y1="172.8002" y2="192.8002"/><polygon fill="#181818" points="495.3852,182.8002,499.3852,192.8002,503.3852,182.8002,499.3852,186.8002" style="stroke:#181818;stroke-width:1;"/><line style="stroke:#181818;stroke-width:1;" x1="128.0507" x2="118.0507" y1="116.4001" y2="116.4001"/><line style="stroke:#181818;stroke-width:1;" x1="118.0507" x2="118.0507" y1="116.4001" y2="138.4001"/><polygon fill="#181818" points="114.0507,128.4001,118.0507,138.4001,122.0507,128.4001,118.0507,132.4001" style="stroke:#181818;stroke-width:1;"/><line style="stroke:#181818;stroke-width:1;" x1="489.3852" x2="499.3852" y1="116.4001" y2="116.4001"/><line style="stroke:#181818;stroke-width:1;" x1="499.3852" x2="499.3852" y1="116.4001" y2="138.4001"/><polygon fill="#181818" points="495.3852,128.4001,499.3852,138.4001,503.3852,128.4001,499.3852,132.4001" style="stroke:#181818;stroke-width:1;"/><line style="stroke:#181818;stroke-width:1;" x1="118.0507" x2="118.0507" y1="172.8002" y2="219.8002"/><line style="stroke:#181818;stroke-width:1;" x1="118.0507" x2="308.7179" y1="219.8002" y2="219.8002"/><line style="stroke:#181818;stroke-width:1;" x1="308.7179" x2="308.7179" y1="219.8002" y2="234.8002"/><polygon fill="#181818" points="304.7179,224.8002,308.7179,234.8002,312.7179,224.8002,308.7179,228.8002" style="stroke:#181818;stroke-width:1;"/><line style="stroke:#181818;stroke-width:1;" x1="308.7179" x2="308.7179" y1="84.4001" y2="104.4001"/><polygon fill="#181818" points="304.7179,94.4001,308.7179,104.4001,312.7179,94.4001,308.7179,98.4001" style="stroke:#181818;stroke-width:1;"/><?plantuml-src LOwn3e9044Jx_Oe95HJ-W1H6xMrCD9Od3Dn5kIMtPun_Bs23tIOpRzzOTYcBRFVj42AQH9TfY7pZhle8iT_OKtCj4ZgKrv3zrDAHSKhWzPLiX_9Cel5i7fZ2ui8Kkiz_gK0RN9_SK5N8dX7bZLO9i3qknhKGit3-rBhixivO2vz6b2TTYBFNDvYI9WmqSprH75PR4N_u_u1wGYthA8njw4Jc-mi0?></g></svg>