<?plantuml 1.2026.1?><svg xmlns="http://www.w3.org/2000/svg" xmlns:xlink="http://www.w3.org/1999/xlink" contentStyleType="text/css" data-diagram-type="ACTIVITY" height="432px" preserveAspectRatio="none" style="width:867px;height:432px;background:#FFFFFF;" version="1.1" viewBox="0 0 867 432" width="867px" zoomAndPan="magnify"><defs/><g><ellipse cx="513.7969" cy="20" fill="#222222" rx="10" ry="10" style="stroke:#222222;stroke-width:1;"/><rect fill="#F1F1F1" height="34.4001" rx="12.5" ry="12.5" style="stroke:#181818;stroke-width:0.5;" width="160.065" x="433.7644" y="50"/><text fill="#000000" font-family="sans-serif" font-size="12" lengthAdjust="spacing" textLength="140.065" x="443.7644" y="71.1481">User updated booking-slot</text><polygon fill="#F1F1F1" points="345.1297,104.4001,682.4642,104.4001,694.4642,116.4001,682.4642,128.4001,345.1297,128.4001,333.1297,116.4001,345.1297,104.4001" style="stroke:#181818;stroke-width:0.5;"/><text fill="#000000" font-family="sans-serif" font-size="11" lengthAdjust="spacing" textLength="337.3345" x="345.1297" y="120.0191">Within opening hours? (See check in "Verify opening hours" diagram)</text><text fill="#000000" font-family="sans-serif" font-size="11" lengthAdjust="spacing" textLength="18.9529" x="314.1768" y="113.4191">Yes</text><text fill="#000000" font-family="sans-serif" font-size="11" lengthAdjust="spacing" textLength="14.0579" x="694.4642" y="113.4191">No</text><polygon fill="#F1F1F1" points="216.8692,138.4001,370.9341,138.4001,382.9341,150.4001,370.9341,162.4001,216.8692,162.4001,204.8692,150.4001,216.8692,138.4001" style="stroke:#181818;stroke-width:0.5;"/><text fill="#000000" font-family="sans-serif" font-size="11" lengthAdjust="spacing" textLength="154.0648" x="216.8692" y="154.0191">Capacity on new slot available?</text><text fill="#000000" font-family="sans-serif" font-size="11" lengthAdjust="spacing" textLength="18.9529" x="185.9164" y="147.4191">Yes</text><text fill="#000000" font-family="sans-serif" font-size="11" lengthAdjust="spacing" textLength="14.0579" x="382.9341" y="147.4191">No</text><rect fill="none" height="207.0002" style="stroke:#000000;stroke-width:1.5;" width="270.7736" x="11" y="172.4001"/><path d="M62.2298,172.4001 L62.2298,182.2 L52.2298,192.2 L11,192.2" fill="none" style="stroke:#000000;stroke-width:1.5;"/><text fill="#000000" font-family="sans-serif" font-size="14" lengthAdjust="spacing" textLength="41.2298" x="14" y="186.406">atomic</text><rect fill="#F1F1F1" height="34.4001" rx="12.5" ry="12.5" style="stroke:#181818;stroke-width:0.5;" width="190.0652" x="51.3542" y="209.2"/><text fill="#000000" font-family="sans-serif" font-size="12" lengthAdjust="spacing" textLength="170.0652" x="61.3542" y="230.3481">Decrement capacity on new slot</text><rect fill="#F1F1F1" height="34.4001" rx="12.5" ry="12.5" style="stroke:#181818;stroke-width:0.5;" width="178.7371" x="57.0182" y="278.6001"/><text fill="#000000" font-family="sans-serif" font-size="12" lengthAdjust="spacing" textLength="158.7371" x="67.0182" y="299.7482">Increment capacity on old slot</text><rect fill="#F1F1F1" height="34.4001" rx="12.5" ry="12.5" style="stroke:#181818;stroke-width:0.5;" width="250.7736" x="21" y="333.0002"/><text fill="#000000" font-family="sans-serif" font-size="12" lengthAdjust="spacing" textLength="230.7736" x="31" y="354.1483">Point to new booking-slot from appointment</text><rect fill="#F1F1F1" height="34.4001" rx="12.5" ry="12.5" style="stroke:#181818;stroke-width:0.5;" width="279.2858" x="301.7736" y="172.4001"/><text fill="#000000" font-family="sans-serif" font-size="12" lengthAdjust="spacing" textLength="259.2858" x="311.7736" y="193.5482">Show error message "Booking-slot not available"</text><ellipse cx="441.4165" cy="252.8002" fill="none" rx="11" ry="11" style="stroke:#222222;stroke-width:1;"/><ellipse cx="441.4165" cy="252.8002" fill="#222222" rx="6" ry="6" style="stroke:#222222;stroke-width:1;"/><rect fill="#F1F1F1" height="34.4001" rx="12.5" ry="12.5" style="stroke:#181818;stroke-width:0.5;" width="245.2656" x="611.0594" y="138.4001"/><text fill="#000000" font-family="sans-serif" font-size="12" lengthAdjust="spacing" textLength="225.2656" x="621.0594" y="159.5482">Show error message "Invalid booking-slot"</text><ellipse cx="733.6922" cy="218.8002" fill="none" rx="11" ry="11" style="stroke:#222222;stroke-width:1;"/><ellipse cx="733.6922" cy="218.8002" fill="#222222" rx="6" ry="6" style="stroke:#222222;stroke-width:1;"/><ellipse cx="513.7969" cy="410.4003" fill="none" rx="11" ry="11" style="stroke:#222222;stroke-width:1;"/><ellipse cx="513.7969" cy="410.4003" fill="#222222" rx="6" ry="6" style="stroke:#222222;stroke-width:1;"/><line style="stroke:#181818;stroke-width:1;" x1="513.7969" x2="513.7969" y1="30" y2="50"/><polygon fill="#181818" points="509.7969,40,513.7969,50,517.7969,40,513.7969,44" style="stroke:#181818;stroke-width:1;"/><line style="stroke:#181818;stroke-width:1;" x1="146.3868" x2="146.3868" y1="243.6001" y2="278.6001"/><polygon fill="#181818" points="142.3868,268.6001,146.3868,278.6001,150.3868,268.6001,146.3868,272.6001" style="stroke:#181818;stroke-width:1;"/><line style="stroke:#181818;stroke-width:1;" x1="146.3868" x2="146.3868" y1="313.0002" y2="333.0002"/><polygon fill="#181818" points="142.3868,323.0002,146.3868,333.0002,150.3868,323.0002,146.3868,327.0002" style="stroke:#181818;stroke-width:1;"/><line style="stroke:#181818;stroke-width:1;" x1="441.4165" x2="441.4165" y1="206.8002" y2="241.8002"/><polygon fill="#181818" points="437.4165,231.8002,441.4165,241.8002,445.4165,231.8002,441.4165,235.8002" style="stroke:#181818;stroke-width:1;"/><line style="stroke:#181818;stroke-width:1;" x1="204.8692" x2="146.3868" y1="150.4001" y2="150.4001"/><line style="stroke:#181818;stroke-width:1;" x1="146.3868" x2="146.3868" y1="150.4001" y2="209.2"/><polygon fill="#181818" points="142.3868,199.2,146.3868,209.2,150.3868,199.2,146.3868,203.2" style="stroke:#181818;stroke-width:1;"/><line style="stroke:#181818;stroke-width:1;" x1="382.9341" x2="441.4165" y1="150.4001" y2="150.4001"/><line style="stroke:#181818;stroke-width:1;" x1="441.4165" x2="441.4165" y1="150.4001" y2="172.4001"/><polygon fill="#181818" points="437.4165,162.4001,441.4165,172.4001,445.4165,162.4001,441.4165,166.4001" style="stroke:#181818;stroke-width:1;"/><line style="stroke:#181818;stroke-width:1;" x1="146.3868" x2="146.3868" y1="367.4003" y2="384.4003"/><line style="stroke:#181818;stroke-width:1;" x1="146.3868" x2="513.7969" y1="384.4003" y2="384.4003"/><line style="stroke:#181818;stroke-width:1;" x1="513.7969" x2="513.7969" y1="384.4003" y2="399.4003"/><polygon fill="#181818" points="509.7969,389.4003,513.7969,399.4003,517.7969,389.4003,513.7969,393.4003" style="stroke:#181818;stroke-width:1;"/><line style="stroke:#181818;stroke-width:1;" x1="733.6922" x2="733.6922" y1="172.8002" y2="207.8002"/><polygon fill="#181818" points="729.6922,197.8002,733.6922,207.8002,737.6922,197.8002,733.6922,201.8002" style="stroke:#181818;stroke-width:1;"/><line style="stroke:#181818;stroke-width:1;" x1="333.1297" x2="293.9017" y1="116.4001" y2="116.4001"/><line style="stroke:#181818;stroke-width:1;" x1="293.9017" x2="293.9017" y1="116.4001" y2="138.4001"/><polygon fill="#181818" points="289.9017,128.4001,293.9017,138.4001,297.9017,128.4001,293.9017,132.4001" style="stroke:#181818;stroke-width:1;"/><line style="stroke:#181818;stroke-width:1;" x1="694.4642" x2="733.6922" y1="116.4001" y2="116.4001"/><line style="stroke:#181818;stroke-width:1;" x1="733.6922" x2="733.6922" y1="116.4001" y2="138.4001"/><polygon fill="#181818" points="729.6922,128.4001,733.6922,138.4001,737.6922,128.4001,733.6922,132.4001" style="stroke:#181818;stroke-width:1;"/><line style="stroke:#181818;stroke-width:1;" x1="513.7969" x2="513.7969" y1="84.4001" y2="104.4001"/><polygon fill="#181818" points="509.7969,94.4001,513.7969,104.4001,517.7969,94.4001,513.7969,98.4001" style="stroke:#181818;stroke-width:1;"/><?plantuml-src RP51QiCm44NNqIa-NjcBNi1U1DfkiYc5q9Ok9_8u7c9hXAGabDAxLtOBTOetGZ3lFtr9CL58njGlaGFElgN4BGwg9t77kpXeQeoH3kMRf5uSrBFB4_Hw3d6BSiyCsxCz8G-BLmxIVTn21LgXOw2ngf1wTYZVELO6cAmFvCbAoX47nrTC1u8k90CT1jx-Im0-bvKacIufwIYsmgVP0FKZsy0ZkmIxecncPkVM61tQ1VEiakT9v-Zo6T057K7UJy0aQUP2Ntdb8JBA9wtCfjxtUWM7e04ZnqX7Hd6_rBZb1OiVIKpg9uzhfJFcJvVxhFbsxaA3tFxIR9ezlvPf_mq0?></g></svg>