<?plantuml 1.2026.1?><svg xmlns="http://www.w3.org/2000/svg" xmlns:xlink="http://www.w3.org/1999/xlink" contentStyleType="text/css" data-diagram-type="ACTIVITY" height="412px" preserveAspectRatio="none" style="width:408px;height:412px;background:#FFFFFF;" version="1.1" viewBox="0 0 408 412" width="408px" zoomAndPan="magnify"><title>Verify opening hours</title><defs/><g><g class="title" data-source-line="1"><text fill="#000000" font-family="sans-serif" font-size="14" font-weight="bold" lengthAdjust="spacing" textLength="140.0275" x="132.7597" y="33.0059">Verify opening hours</text></g><ellipse cx="250.4804" cy="57.7999" fill="#222222" rx="10" ry="10" style="stroke:#222222;stroke-width:1;"/><rect fill="#F1F1F1" height="34.4001" rx="12.5" ry="12.5" style="stroke:#181818;stroke-width:0.5;" width="132.0568" x="184.452" y="87.7999"/><text fill="#000000" font-family="sans-serif" font-size="12" lengthAdjust="spacing" textLength="112.0568" x="194.452" y="108.948">Query opening hours</text><polygon fill="#F1F1F1" points="172.227,142.2,328.7338,142.2,340.7338,154.2,328.7338,166.2,172.227,166.2,160.227,154.2,172.227,142.2" style="stroke:#181818;stroke-width:0.5;"/><text fill="#000000" font-family="sans-serif" font-size="11" lengthAdjust="spacing" textLength="156.5069" x="172.227" y="157.819">Given time within opening hours</text><text fill="#000000" font-family="sans-serif" font-size="11" lengthAdjust="spacing" textLength="18.9529" x="141.2741" y="151.219">Yes</text><text fill="#000000" font-family="sans-serif" font-size="11" lengthAdjust="spacing" textLength="14.0579" x="340.7338" y="151.219">No</text><rect fill="#F1F1F1" height="34.4001" rx="12.5" ry="12.5" style="stroke:#181818;stroke-width:0.5;" width="100.0285" x="95.7459" y="176.2"/><text fill="#000000" font-family="sans-serif" font-size="12" lengthAdjust="spacing" textLength="80.0285" x="105.7459" y="197.3481">Query holidays</text><polygon fill="#F1F1F1" points="73.0122,230.6001,218.5082,230.6001,230.5082,242.6001,218.5082,254.6001,73.0122,254.6001,61.0122,242.6001,73.0122,230.6001" style="stroke:#181818;stroke-width:0.5;"/><text fill="#000000" font-family="sans-serif" font-size="11" lengthAdjust="spacing" textLength="145.4959" x="73.0122" y="246.2191">Given time not within holidays</text><text fill="#000000" font-family="sans-serif" font-size="11" lengthAdjust="spacing" textLength="18.9529" x="42.0594" y="239.6192">Yes</text><text fill="#000000" font-family="sans-serif" font-size="11" lengthAdjust="spacing" textLength="14.0579" x="230.5082" y="239.6192">No</text><rect fill="#F1F1F1" height="34.4001" rx="12.5" ry="12.5" style="stroke:#181818;stroke-width:0.5;" width="80.0244" x="11" y="264.6001"/><text fill="#000000" font-family="sans-serif" font-size="12" lengthAdjust="spacing" textLength="60.0244" x="21" y="285.7482">Return true</text><rect fill="#F1F1F1" height="34.4001" rx="12.5" ry="12.5" style="stroke:#181818;stroke-width:0.5;" width="84.6925" x="198.1619" y="264.6001"/><text fill="#000000" font-family="sans-serif" font-size="12" lengthAdjust="spacing" textLength="64.6925" x="208.1619" y="285.7482">Return false</text><polygon fill="#F1F1F1" points="145.7602,305.0002,157.7602,317.0002,145.7602,329.0002,133.7602,317.0002,145.7602,305.0002" style="stroke:#181818;stroke-width:0.5;"/><rect fill="#F1F1F1" height="34.4001" rx="12.5" ry="12.5" style="stroke:#181818;stroke-width:0.5;" width="84.6925" x="312.8544" y="176.2"/><text fill="#000000" font-family="sans-serif" font-size="12" lengthAdjust="spacing" textLength="64.6925" x="322.8544" y="197.3481">Return false</text><polygon fill="#F1F1F1" points="250.4804,335.0002,262.4804,347.0002,250.4804,359.0002,238.4804,347.0002,250.4804,335.0002" style="stroke:#181818;stroke-width:0.5;"/><ellipse cx="250.4804" cy="390.0002" fill="none" rx="11" ry="11" style="stroke:#222222;stroke-width:1;"/><ellipse cx="250.4804" cy="390.0002" fill="#222222" rx="6" ry="6" style="stroke:#222222;stroke-width:1;"/><line style="stroke:#181818;stroke-width:1;" x1="250.4804" x2="250.4804" y1="67.7999" y2="87.7999"/><polygon fill="#181818" points="246.4804,77.7999,250.4804,87.7999,254.4804,77.7999,250.4804,81.7999" style="stroke:#181818;stroke-width:1;"/><line style="stroke:#181818;stroke-width:1;" x1="61.0122" x2="51.0122" y1="242.6001" y2="242.6001"/><line style="stroke:#181818;stroke-width:1;" x1="51.0122" x2="51.0122" y1="242.6001" y2="264.6001"/><polygon fill="#181818" points="47.0122,254.6001,51.0122,264.6001,55.0122,254.6001,51.0122,258.6001" style="stroke:#181818;stroke-width:1;"/><line style="stroke:#181818;stroke-width:1;" x1="230.5082" x2="240.5082" y1="242.6001" y2="242.6001"/><line style="stroke:#181818;stroke-width:1;" x1="240.5082" x2="240.5082" y1="242.6001" y2="264.6001"/><polygon fill="#181818" points="236.5082,254.6001,240.5082,264.6001,244.5082,254.6001,240.5082,258.6001" style="stroke:#181818;stroke-width:1;"/><line style="stroke:#181818;stroke-width:1;" x1="51.0122" x2="51.0122" y1="299.0002" y2="317.0002"/><line style="stroke:#181818;stroke-width:1;" x1="51.0122" x2="133.7602" y1="317.0002" y2="317.0002"/><polygon fill="#181818" points="123.7602,313.0002,133.7602,317.0002,123.7602,321.0002,127.7602,317.0002" style="stroke:#181818;stroke-width:1;"/><line style="stroke:#181818;stroke-width:1;" x1="240.5082" x2="240.5082" y1="299.0002" y2="317.0002"/><line style="stroke:#181818;stroke-width:1;" x1="240.5082" x2="157.7602" y1="317.0002" y2="317.0002"/><polygon fill="#181818" points="167.7602,313.0002,157.7602,317.0002,167.7602,321.0002,163.7602,317.0002" style="stroke:#181818;stroke-width:1;"/><line style="stroke:#181818;stroke-width:1;" x1="145.7602" x2="145.7602" y1="210.6001" y2="230.6001"/><polygon fill="#181818" points="141.7602,220.6001,145.7602,230.6001,149.7602,220.6001,145.7602,224.6001" style="stroke:#181818;stroke-width:1;"/><line style="stroke:#181818;stroke-width:1;" x1="160.227" x2="145.7602" y1="154.2" y2="154.2"/><line style="stroke:#181818;stroke-width:1;" x1="145.7602" x2="145.7602" y1="154.2" y2="176.2"/><polygon fill="#181818" points="141.7602,166.2,145.7602,176.2,149.7602,166.2,145.7602,170.2" style="stroke:#181818;stroke-width:1;"/><line style="stroke:#181818;stroke-width:1;" x1="340.7338" x2="355.2006" y1="154.2" y2="154.2"/><line style="stroke:#181818;stroke-width:1;" x1="355.2006" x2="355.2006" y1="154.2" y2="176.2"/><polygon fill="#181818" points="351.2006,166.2,355.2006,176.2,359.2006,166.2,355.2006,170.2" style="stroke:#181818;stroke-width:1;"/><line style="stroke:#181818;stroke-width:1;" x1="145.7602" x2="145.7602" y1="329.0002" y2="347.0002"/><line style="stroke:#181818;stroke-width:1;" x1="145.7602" x2="238.4804" y1="347.0002" y2="347.0002"/><polygon fill="#181818" points="228.4804,343.0002,238.4804,347.0002,228.4804,351.0002,232.4804,347.0002" style="stroke:#181818;stroke-width:1;"/><line style="stroke:#181818;stroke-width:1;" x1="355.2006" x2="355.2006" y1="210.6001" y2="347.0002"/><line style="stroke:#181818;stroke-width:1;" x1="355.2006" x2="262.4804" y1="347.0002" y2="347.0002"/><polygon fill="#181818" points="272.4804,343.0002,262.4804,347.0002,272.4804,351.0002,268.4804,347.0002" style="stroke:#181818;stroke-width:1;"/><line style="stroke:#181818;stroke-width:1;" x1="250.4804" x2="250.4804" y1="122.2" y2="142.2"/><polygon fill="#181818" points="246.4804,132.2,250.4804,142.2,254.4804,132.2,250.4804,136.2" style="stroke:#181818;stroke-width:1;"/><line style="stroke:#181818;stroke-width:1;" x1="250.4804" x2="250.4804" y1="359.0002" y2="379.0002"/><polygon fill="#181818" points="246.4804,369.0002,250.4804,379.0002,254.4804,369.0002,250.4804,373.0002" style="stroke:#181818;stroke-width:1;"/><?plantuml-src NOzB2W8n343tEKMMCrVG0xWJT26uB4ng0pKPsbIPsni_0quXgxoN1p6sJ7YXmd51dKbORfYqbGfGBHI3tQbHwTWUW2CE1twGeF6TyCcMMBRMY9QS3rUg8o3-GaapJs7n1g9Frn6rjRMANSP3Px9M_A0qUbSeLyBXg5iQWwy_M2QEy2zrobVmTtL-0G00?></g></svg>